<?xml version="1.0" encoding="UTF-8"?>
<!DOCTYPE svg PUBLIC "-//W3C//DTD SVG 1.1//EN"
    "http://www.w3.org/Graphics/SVG/1.1/DTD/svg11.dtd"><svg xmlns="http://www.w3.org/2000/svg" height="200" width="200" xmlns:xlink="http://www.w3.org/1999/xlink" version="1.11.1"><path d="M 175.0000,100.0000 L 175.0000,100.5000 L 200.0000,100.5000 L 200.0000,100.0000 L 200.0000,99.5000 L 175.0000,99.5000 Z" stroke="none" fill="black"/><path d="M 174.6388,107.3513 L 174.5946,107.8001 L 199.4646,110.3481 L 199.5185,109.8017 L 199.5723,109.2554 L 174.6831,106.9025 Z" stroke="none" fill="black"/><path d="M 173.5589,114.6318 L 173.4804,115.0265 L 197.9619,120.0951 L 198.0785,119.5090 L 198.1951,118.9230 L 173.6374,114.2370 Z" stroke="none" fill="black"/><path d="M 171.7705,121.7714 L 171.6675,122.1109 L 195.5068,129.6458 L 195.6940,129.0285 L 195.8813,128.4111 L 171.8735,121.4318 Z" stroke="none" fill="black"/><path d="M 169.2910,128.7013 L 169.1728,128.9864 L 192.1234,138.9071 L 192.3879,138.2683 L 192.6525,137.6296 L 169.4091,128.4161 Z" stroke="none" fill="black"/><path d="M 166.1441,135.3548 L 166.0195,135.5878 L 187.8453,147.7885 L 188.1921,147.1397 L 188.5389,146.4908 L 166.2687,135.1217 Z" stroke="none" fill="black"/><path d="M 162.3602,141.6678 L 162.2368,141.8525 L 182.7148,156.2037 L 183.1470,155.5570 L 183.5791,154.9103 L 162.4837,141.4830 Z" stroke="none" fill="black"/><path d="M 157.9758,147.5795 L 157.8598,147.7208 L 176.7826,164.0710 L 177.3010,163.4393 L 177.8195,162.8076 L 158.0918,147.4382 Z" stroke="none" fill="black"/><path d="M 153.0330,153.0330 L 152.9295,153.1366 L 170.1071,171.3142 L 170.7107,170.7107 L 171.3142,170.1071 L 153.1366,152.9295 Z" stroke="none" fill="black"/><path d="M 147.5795,157.9758 L 147.4918,158.0478 L 162.7541,177.8634 L 163.4393,177.3010 L 164.1246,176.7386 L 147.6672,157.9038 Z" stroke="none" fill="black"/><path d="M 141.6678,162.3602 L 141.5977,162.4070 L 154.7956,183.6557 L 155.5570,183.1470 L 156.3184,182.6382 L 141.7378,162.3134 Z" stroke="none" fill="black"/><path d="M 135.3548,166.1441 L 135.3027,166.1719 L 146.3098,188.6357 L 147.1397,188.1921 L 147.9695,187.7486 L 135.4068,166.1163 Z" stroke="none" fill="black"/><path d="M 128.7013,169.2910 L 128.6661,169.3055 L 137.3796,192.7561 L 138.2683,192.3879 L 139.1571,192.0198 L 128.7364,169.2764 Z" stroke="none" fill="black"/><path d="M 121.7714,171.7705 L 121.7508,171.7768 L 128.0921,195.9781 L 129.0285,195.6940 L 129.9648,195.4100 L 121.7920,171.7643 Z" stroke="none" fill="black"/><path d="M 114.6318,173.5589 L 114.6223,173.5608 L 118.5377,198.2717 L 119.5090,198.0785 L 120.4804,197.8853 L 114.6412,173.5570 Z" stroke="none" fill="black"/><path d="M 107.3513,174.6388 L 107.3489,174.6391 L 108.8089,199.6162 L 109.8017,199.5185 L 110.7945,199.4207 L 107.3537,174.6386 Z" stroke="none" fill="black"/><path d="M 100.0000,175.0000 L 100.0000,175.0000 L 99.0000,200.0000 L 100.0000,200.0000 L 101.0000,200.0000 L 100.0000,175.0000 Z" stroke="none" fill="black"/><path d="M 92.6487,174.6388 L 92.6463,174.6386 L 89.2055,199.4207 L 90.1983,199.5185 L 91.1911,199.6162 L 92.6511,174.6391 Z" stroke="none" fill="black"/><path d="M 85.3682,173.5589 L 85.3588,173.5570 L 79.5196,197.8853 L 80.4910,198.0785 L 81.4623,198.2717 L 85.3776,173.5608 Z" stroke="none" fill="black"/><path d="M 78.2286,171.7705 L 78.2080,171.7643 L 70.0352,195.4100 L 70.9715,195.6940 L 71.9079,195.9781 L 78.2492,171.7768 Z" stroke="none" fill="black"/><path d="M 71.2987,169.2910 L 71.2636,169.2764 L 60.8429,192.0198 L 61.7316,192.3879 L 62.6204,192.7561 L 71.3339,169.3055 Z" stroke="none" fill="black"/><path d="M 64.6452,166.1441 L 64.5932,166.1163 L 52.0305,187.7486 L 52.8603,188.1921 L 53.6902,188.6357 L 64.6973,166.1719 Z" stroke="none" fill="black"/><path d="M 58.3322,162.3602 L 58.2622,162.3134 L 43.6816,182.6382 L 44.4430,183.1470 L 45.2044,183.6557 L 58.4023,162.4070 Z" stroke="none" fill="black"/><path d="M 52.4205,157.9758 L 52.3328,157.9038 L 35.8754,176.7387 L 36.5607,177.3011 L 37.2460,177.8634 L 52.5082,158.0478 Z" stroke="none" fill="black"/><path d="M 46.9670,153.0330 L 46.8634,152.9295 L 28.6858,170.1071 L 29.2893,170.7107 L 29.8929,171.3142 L 47.0705,153.1366 Z" stroke="none" fill="black"/><path d="M 42.0242,147.5795 L 41.9082,147.4382 L 22.1805,162.8076 L 22.6990,163.4393 L 23.2174,164.0710 L 42.1402,147.7208 Z" stroke="none" fill="black"/><path d="M 37.6398,141.6678 L 37.5163,141.4830 L 16.4209,154.9103 L 16.8530,155.5570 L 17.2851,156.2037 L 37.7632,141.8525 Z" stroke="none" fill="black"/><path d="M 33.8559,135.3548 L 33.7313,135.1217 L 11.4611,146.4908 L 11.8079,147.1397 L 12.1547,147.7885 L 33.9805,135.5878 Z" stroke="none" fill="black"/><path d="M 30.7090,128.7012 L 30.5909,128.4161 L 7.3475,137.6296 L 7.6120,138.2683 L 7.8766,138.9070 L 30.8271,128.9864 Z" stroke="none" fill="black"/><path d="M 28.2295,121.7714 L 28.1265,121.4318 L 4.1187,128.4111 L 4.3060,129.0285 L 4.4932,129.6458 L 28.3325,122.1109 Z" stroke="none" fill="black"/><path d="M 26.4411,114.6318 L 26.3626,114.2370 L 1.8049,118.9230 L 1.9215,119.5090 L 2.0380,120.0951 L 26.5196,115.0265 Z" stroke="none" fill="black"/><path d="M 25.3611,107.3513 L 25.3169,106.9025 L 0.4277,109.2554 L 0.4815,109.8017 L 0.5353,110.3481 L 25.4054,107.8001 Z" stroke="none" fill="black"/><path d="M 25.0000,100.0000 L 25.0000,99.5000 L 0.0000,99.5000 L 0.0000,100.0000 L -0.0000,100.5000 L 25.0000,100.5000 Z" stroke="none" fill="black"/><path d="M 25.3611,92.6487 L 25.4150,92.1023 L 0.5257,89.7494 L 0.4815,90.1983 L 0.4373,90.6471 L 25.3073,93.1951 Z" stroke="none" fill="black"/><path d="M 26.4411,85.3682 L 26.5577,84.7821 L 2.0000,80.0962 L 1.9215,80.4910 L 1.8430,80.8857 L 26.3245,85.9543 Z" stroke="none" fill="black"/><path d="M 28.2295,78.2286 L 28.4168,77.6113 L 4.4090,70.6319 L 4.3060,70.9715 L 4.2030,71.3111 L 28.0422,78.8460 Z" stroke="none" fill="black"/><path d="M 30.7090,71.2987 L 30.9736,70.6600 L 7.7302,61.4465 L 7.6121,61.7317 L 7.4939,62.0168 L 30.4445,71.9375 Z" stroke="none" fill="black"/><path d="M 33.8559,64.6452 L 34.2027,63.9964 L 11.9325,52.6272 L 11.8079,52.8603 L 11.6833,53.0934 L 33.5091,65.2941 Z" stroke="none" fill="black"/><path d="M 37.6398,58.3322 L 38.0719,57.6855 L 16.9765,44.2582 L 16.8530,44.4430 L 16.7296,44.6277 L 37.2077,58.9789 Z" stroke="none" fill="black"/><path d="M 42.0242,52.4205 L 42.5426,51.7888 L 22.8149,36.4194 L 22.6990,36.5607 L 22.5830,36.7020 L 41.5058,53.0522 Z" stroke="none" fill="black"/><path d="M 46.9670,46.9670 L 47.5706,46.3634 L 29.3929,29.1858 L 29.2893,29.2893 L 29.1858,29.3929 L 46.3634,47.5705 Z" stroke="none" fill="black"/><path d="M 52.4205,42.0242 L 53.1058,41.4618 L 36.6484,22.6270 L 36.5607,22.6990 L 36.4729,22.7710 L 51.7352,42.5866 Z" stroke="none" fill="black"/><path d="M 58.3322,37.6398 L 59.0937,37.1310 L 44.5131,16.8062 L 44.4430,16.8530 L 44.3729,16.8998 L 57.5708,38.1485 Z" stroke="none" fill="black"/><path d="M 64.6452,33.8559 L 65.4751,33.4123 L 52.9124,11.7800 L 52.8603,11.8079 L 52.8083,11.8357 L 63.8154,34.2995 Z" stroke="none" fill="black"/><path d="M 71.2988,30.7090 L 72.1875,30.3409 L 61.7668,7.5975 L 61.7317,7.6120 L 61.6965,7.6266 L 70.4100,31.0771 Z" stroke="none" fill="black"/><path d="M 78.2287,28.2295 L 79.1650,27.9454 L 70.9921,4.2997 L 70.9715,4.3060 L 70.9509,4.3122 L 77.2923,28.5135 Z" stroke="none" fill="black"/><path d="M 85.3682,26.4411 L 86.3396,26.2479 L 80.5004,1.9196 L 80.4910,1.9215 L 80.4815,1.9234 L 84.3969,26.6343 Z" stroke="none" fill="black"/><path d="M 92.6487,25.3611 L 93.6415,25.2634 L 90.2007,0.4813 L 90.1983,0.4815 L 90.1959,0.4818 L 91.6559,25.4589 Z" stroke="none" fill="black"/><path d="M 100.0000,25.0000 L 101.0000,25.0000 L 100.0000,0.0000 L 100.0000,0.0000 L 100.0000,0.0000 L 99.0000,25.0000 Z" stroke="none" fill="black"/><path d="M 107.3513,25.3611 L 108.3441,25.4589 L 109.8041,0.4818 L 109.8017,0.4815 L 109.7994,0.4813 L 106.3585,25.2634 Z" stroke="none" fill="black"/><path d="M 114.6318,26.4411 L 115.6031,26.6343 L 119.5185,1.9234 L 119.5090,1.9215 L 119.4996,1.9196 L 113.6604,26.2479 Z" stroke="none" fill="black"/><path d="M 121.7714,28.2295 L 122.7077,28.5135 L 129.0491,4.3122 L 129.0285,4.3060 L 129.0079,4.2997 L 120.8350,27.9454 Z" stroke="none" fill="black"/><path d="M 128.7013,30.7090 L 129.5900,31.0772 L 138.3035,7.6266 L 138.2684,7.6121 L 138.2332,7.5975 L 127.8125,30.3409 Z" stroke="none" fill="black"/><path d="M 135.3548,33.8559 L 136.1846,34.2995 L 147.1917,11.8357 L 147.1397,11.8079 L 147.0876,11.7800 L 134.5249,33.4123 Z" stroke="none" fill="black"/><path d="M 141.6678,37.6398 L 142.4292,38.1485 L 155.6271,16.8999 L 155.5570,16.8530 L 155.4870,16.8062 L 140.9064,37.1310 Z" stroke="none" fill="black"/><path d="M 147.5795,42.0242 L 148.2648,42.5866 L 163.5271,22.7710 L 163.4393,22.6990 L 163.3516,22.6270 L 146.8942,41.4618 Z" stroke="none" fill="black"/><path d="M 153.0330,46.9670 L 153.6366,47.5706 L 170.8142,29.3929 L 170.7107,29.2893 L 170.6072,29.1858 L 152.4295,46.3635 Z" stroke="none" fill="black"/><path d="M 157.9758,52.4205 L 158.4942,53.0522 L 177.4170,36.7020 L 177.3011,36.5607 L 177.1851,36.4194 L 157.4574,51.7888 Z" stroke="none" fill="black"/><path d="M 162.3602,58.3322 L 162.7923,58.9789 L 183.2704,44.6277 L 183.1470,44.4430 L 183.0235,44.2582 L 161.9281,57.6855 Z" stroke="none" fill="black"/><path d="M 166.1441,64.6453 L 166.4909,65.2941 L 188.3167,53.0934 L 188.1921,52.8603 L 188.0676,52.6273 L 165.7973,63.9964 Z" stroke="none" fill="black"/><path d="M 169.2910,71.2987 L 169.5555,71.9375 L 192.5061,62.0168 L 192.3880,61.7317 L 192.2698,61.4465 L 169.0264,70.6600 Z" stroke="none" fill="black"/><path d="M 171.7705,78.2287 L 171.9578,78.8460 L 195.7970,71.3111 L 195.6940,70.9716 L 195.5910,70.6320 L 171.5833,77.6113 Z" stroke="none" fill="black"/><path d="M 173.5589,85.3682 L 173.6755,85.9543 L 198.1570,80.8857 L 198.0785,80.4910 L 198.0000,80.0962 L 173.4423,84.7822 Z" stroke="none" fill="black"/><path d="M 174.6388,92.6487 L 174.6927,93.1951 L 199.5627,90.6472 L 199.5185,90.1983 L 199.4743,89.7495 L 174.5850,92.1024 Z" stroke="none" fill="black"/><path d="M 175.0000,100.0000 L 175.0000,100.5000 L 200.0000,100.5000 L 200.0000,100.0000 L 200.0000,99.5000 L 175.0000,99.5000 Z" stroke="none" fill="black"/><path d="M 150.0000,100.0000 L 150.0000,100.0000 L 175.0000,101.0000 L 175.0000,100.0000 L 175.0000,99.0000 L 150.0000,100.0000 Z" stroke="none" fill="black"/><path d="M 149.7592,104.9009 L 149.7590,104.9032 L 174.5411,108.3441 L 174.6388,107.3513 L 174.7366,106.3585 L 149.7595,104.8985 Z" stroke="none" fill="black"/><path d="M 149.0393,109.7545 L 149.0374,109.7639 L 173.3657,115.6031 L 173.5589,114.6318 L 173.7521,113.6604 L 149.0411,109.7451 Z" stroke="none" fill="black"/><path d="M 147.8470,114.5142 L 147.8408,114.5348 L 171.4865,122.7077 L 171.7705,121.7714 L 172.0546,120.8350 L 147.8533,114.4936 Z" stroke="none" fill="black"/><path d="M 146.1940,119.1342 L 146.1794,119.1693 L 168.9228,129.5900 L 169.2910,128.7013 L 169.6591,127.8125 L 146.2085,119.0990 Z" stroke="none" fill="black"/><path d="M 144.0961,123.5698 L 144.0682,123.6219 L 165.7005,136.1846 L 166.1441,135.3548 L 166.5877,134.5249 L 144.1239,123.5178 Z" stroke="none" fill="black"/><path d="M 141.5735,127.7785 L 141.5267,127.8486 L 161.8515,142.4292 L 162.3602,141.6678 L 162.8690,140.9064 L 141.6203,127.7084 Z" stroke="none" fill="black"/><path d="M 138.6505,131.7197 L 138.5785,131.8074 L 157.4134,148.2648 L 157.9758,147.5795 L 158.5382,146.8942 L 138.7225,131.6319 Z" stroke="none" fill="black"/><path d="M 135.3554,135.3554 L 135.2518,135.4589 L 152.4295,153.6366 L 153.0330,153.0330 L 153.6366,152.4295 L 135.4589,135.2518 Z" stroke="none" fill="black"/><path d="M 131.7197,138.6505 L 131.5784,138.7665 L 146.9478,158.4942 L 147.5795,157.9758 L 148.2112,157.4574 L 131.8610,138.5346 Z" stroke="none" fill="black"/><path d="M 127.7785,141.5735 L 127.5937,141.6970 L 141.0211,162.7923 L 141.6678,162.3602 L 142.3144,161.9281 L 127.9633,141.4500 Z" stroke="none" fill="black"/><path d="M 123.5698,144.0961 L 123.3367,144.2207 L 134.7059,166.4909 L 135.3548,166.1441 L 136.0036,165.7973 L 123.8029,143.9715 Z" stroke="none" fill="black"/><path d="M 119.1342,146.1940 L 118.8490,146.3121 L 128.0626,169.5555 L 128.7013,169.2910 L 129.3400,169.0264 L 119.4193,146.0758 Z" stroke="none" fill="black"/><path d="M 114.5142,147.8470 L 114.1746,147.9500 L 121.1540,171.9578 L 121.7714,171.7705 L 122.3887,171.5832 L 114.8538,147.7440 Z" stroke="none" fill="black"/><path d="M 109.7545,149.0393 L 109.3598,149.1178 L 114.0457,173.6755 L 114.6318,173.5589 L 115.2178,173.4423 L 110.1492,148.9607 Z" stroke="none" fill="black"/><path d="M 104.9009,149.7592 L 104.4520,149.8034 L 106.8049,174.6927 L 107.3513,174.6388 L 107.8976,174.5850 L 105.3497,149.7150 Z" stroke="none" fill="black"/><path d="M 100.0000,150.0000 L 99.5000,150.0000 L 99.5000,175.0000 L 100.0000,175.0000 L 100.5000,175.0000 L 100.5000,150.0000 Z" stroke="none" fill="black"/><path d="M 95.0991,149.7592 L 94.5528,149.7054 L 92.1999,174.5946 L 92.6487,174.6388 L 93.0975,174.6831 L 95.6455,149.8130 Z" stroke="none" fill="black"/><path d="M 90.2455,149.0393 L 89.6594,148.9227 L 84.9735,173.4804 L 85.3682,173.5589 L 85.7630,173.6374 L 90.8316,149.1558 Z" stroke="none" fill="black"/><path d="M 85.4858,147.8470 L 84.8684,147.6597 L 77.8891,171.6675 L 78.2286,171.7705 L 78.5682,171.8735 L 86.1031,148.0343 Z" stroke="none" fill="black"/><path d="M 80.8658,146.1940 L 80.2271,145.9294 L 71.0136,169.1728 L 71.2987,169.2910 L 71.5839,169.4091 L 81.5045,146.4585 Z" stroke="none" fill="black"/><path d="M 76.4302,144.0961 L 75.7813,143.7493 L 64.4121,166.0195 L 64.6452,166.1441 L 64.8783,166.2687 L 77.0790,144.4429 Z" stroke="none" fill="black"/><path d="M 72.2215,141.5735 L 71.5748,141.1414 L 58.1475,162.2368 L 58.3322,162.3602 L 58.5170,162.4837 L 72.8682,142.0056 Z" stroke="none" fill="black"/><path d="M 68.2803,138.6505 L 67.6486,138.1321 L 52.2792,157.8598 L 52.4205,157.9758 L 52.5618,158.0918 L 68.9120,139.1690 Z" stroke="none" fill="black"/><path d="M 64.6447,135.3554 L 64.0411,134.7518 L 46.8634,152.9295 L 46.9670,153.0330 L 47.0705,153.1366 L 65.2482,135.9589 Z" stroke="none" fill="black"/><path d="M 61.3495,131.7197 L 60.7871,131.0344 L 41.9522,147.4918 L 42.0242,147.5795 L 42.0962,147.6672 L 61.9119,132.4049 Z" stroke="none" fill="black"/><path d="M 58.4265,127.7785 L 57.9178,127.0171 L 37.5930,141.5977 L 37.6398,141.6678 L 37.6866,141.7378 L 58.9353,128.5399 Z" stroke="none" fill="black"/><path d="M 55.9039,123.5698 L 55.4604,122.7400 L 33.8281,135.3027 L 33.8559,135.3548 L 33.8837,135.4068 L 56.3475,124.3997 Z" stroke="none" fill="black"/><path d="M 53.8060,119.1342 L 53.4379,118.2454 L 30.6945,128.6661 L 30.7090,128.7012 L 30.7236,128.7364 L 54.1741,120.0229 Z" stroke="none" fill="black"/><path d="M 52.1530,114.5142 L 51.8689,113.5779 L 28.2232,121.7508 L 28.2295,121.7714 L 28.2357,121.7920 L 52.4370,115.4506 Z" stroke="none" fill="black"/><path d="M 50.9607,109.7545 L 50.7675,108.7832 L 26.4392,114.6224 L 26.4411,114.6318 L 26.4430,114.6412 L 51.1540,110.7259 Z" stroke="none" fill="black"/><path d="M 50.2408,104.9009 L 50.1430,103.9081 L 25.3609,107.3489 L 25.3611,107.3513 L 25.3614,107.3537 L 50.3385,105.8936 Z" stroke="none" fill="black"/><path d="M 50.0000,100.0000 L 50.0000,99.0000 L 25.0000,100.0000 L 25.0000,100.0000 L 25.0000,100.0000 L 50.0000,101.0000 Z" stroke="none" fill="black"/><path d="M 50.2408,95.0991 L 50.3385,94.1063 L 25.3614,92.6463 L 25.3611,92.6487 L 25.3609,92.6511 L 50.1430,96.0919 Z" stroke="none" fill="black"/><path d="M 50.9607,90.2455 L 51.1540,89.2741 L 26.4430,85.3588 L 26.4411,85.3682 L 26.4392,85.3776 L 50.7675,91.2168 Z" stroke="none" fill="black"/><path d="M 52.1530,85.4858 L 52.4370,84.5494 L 28.2357,78.2080 L 28.2295,78.2286 L 28.2232,78.2492 L 51.8690,86.4221 Z" stroke="none" fill="black"/><path d="M 53.8060,80.8658 L 54.1741,79.9771 L 30.7236,71.2636 L 30.7090,71.2987 L 30.6945,71.3339 L 53.4379,81.7546 Z" stroke="none" fill="black"/><path d="M 55.9039,76.4302 L 56.3475,75.6003 L 33.8837,64.5932 L 33.8559,64.6452 L 33.8281,64.6973 L 55.4604,77.2600 Z" stroke="none" fill="black"/><path d="M 58.4265,72.2215 L 58.9353,71.4601 L 37.6866,58.2622 L 37.6398,58.3322 L 37.5930,58.4023 L 57.9178,72.9829 Z" stroke="none" fill="black"/><path d="M 61.3495,68.2803 L 61.9119,67.5951 L 42.0962,52.3328 L 42.0242,52.4205 L 41.9522,52.5082 L 60.7871,68.9656 Z" stroke="none" fill="black"/><path d="M 64.6447,64.6446 L 65.2482,64.0411 L 47.0706,46.8634 L 46.9670,46.9670 L 46.8634,47.0705 L 64.0411,65.2482 Z" stroke="none" fill="black"/><path d="M 68.2803,61.3495 L 68.9120,60.8311 L 52.5618,41.9082 L 52.4205,42.0242 L 52.2792,42.1402 L 67.6486,61.8679 Z" stroke="none" fill="black"/><path d="M 72.2215,58.4265 L 72.8682,57.9944 L 58.5170,37.5163 L 58.3322,37.6398 L 58.1475,37.7632 L 71.5748,58.8586 Z" stroke="none" fill="black"/><path d="M 76.4302,55.9039 L 77.0790,55.5571 L 64.8783,33.7313 L 64.6452,33.8559 L 64.4122,33.9805 L 75.7813,56.2507 Z" stroke="none" fill="black"/><path d="M 80.8658,53.8060 L 81.5046,53.5414 L 71.5839,30.5909 L 71.2988,30.7090 L 71.0136,30.8271 L 80.2271,54.0706 Z" stroke="none" fill="black"/><path d="M 85.4858,52.1530 L 86.1031,51.9657 L 78.5682,28.1265 L 78.2287,28.2295 L 77.8891,28.3325 L 84.8684,52.3403 Z" stroke="none" fill="black"/><path d="M 90.2455,50.9607 L 90.8316,50.8442 L 85.7630,26.3626 L 85.3682,26.4411 L 84.9735,26.5196 L 89.6594,51.0773 Z" stroke="none" fill="black"/><path d="M 95.0992,50.2408 L 95.6455,50.1870 L 93.0976,25.3169 L 92.6487,25.3611 L 92.1999,25.4054 L 94.5528,50.2946 Z" stroke="none" fill="black"/><path d="M 100.0000,50.0000 L 100.5000,50.0000 L 100.5000,25.0000 L 100.0000,25.0000 L 99.5000,25.0000 L 99.5000,50.0000 Z" stroke="none" fill="black"/><path d="M 104.9009,50.2408 L 105.3497,50.2850 L 107.8977,25.4150 L 107.3513,25.3611 L 106.8050,25.3073 L 104.4520,50.1966 Z" stroke="none" fill="black"/><path d="M 109.7545,50.9607 L 110.1492,51.0393 L 115.2178,26.5577 L 114.6318,26.4411 L 114.0457,26.3245 L 109.3598,50.8822 Z" stroke="none" fill="black"/><path d="M 114.5142,52.1530 L 114.8538,52.2560 L 122.3887,28.4168 L 121.7714,28.2295 L 121.1540,28.0422 L 114.1747,52.0500 Z" stroke="none" fill="black"/><path d="M 119.1342,53.8060 L 119.4193,53.9241 L 129.3400,30.9736 L 128.7013,30.7090 L 128.0626,30.4445 L 118.8490,53.6879 Z" stroke="none" fill="black"/><path d="M 123.5698,55.9039 L 123.8029,56.0285 L 136.0036,34.2027 L 135.3548,33.8559 L 134.7059,33.5091 L 123.3368,55.7793 Z" stroke="none" fill="black"/><path d="M 127.7785,58.4265 L 127.9633,58.5500 L 142.3145,38.0719 L 141.6678,37.6398 L 141.0211,37.2077 L 127.5938,58.3031 Z" stroke="none" fill="black"/><path d="M 131.7197,61.3495 L 131.8610,61.4654 L 148.2112,42.5426 L 147.5795,42.0242 L 146.9478,41.5058 L 131.5784,61.2335 Z" stroke="none" fill="black"/><path d="M 135.3554,64.6447 L 135.4589,64.7482 L 153.6366,47.5706 L 153.0330,46.9670 L 152.4295,46.3635 L 135.2518,64.5411 Z" stroke="none" fill="black"/><path d="M 138.6505,68.2803 L 138.7225,68.3681 L 158.5382,53.1058 L 157.9758,52.4205 L 157.4134,51.7352 L 138.5785,68.1926 Z" stroke="none" fill="black"/><path d="M 141.5735,72.2215 L 141.6203,72.2915 L 162.8690,59.0936 L 162.3602,58.3322 L 161.8515,57.5708 L 141.5267,72.1514 Z" stroke="none" fill="black"/><path d="M 144.0961,76.4302 L 144.1239,76.4822 L 166.5877,65.4751 L 166.1441,64.6453 L 165.7005,63.8154 L 144.0682,76.3781 Z" stroke="none" fill="black"/><path d="M 146.1940,80.8658 L 146.2085,80.9010 L 169.6591,72.1875 L 169.2910,71.2987 L 168.9228,70.4100 L 146.1794,80.8307 Z" stroke="none" fill="black"/><path d="M 147.8470,85.4858 L 147.8533,85.5064 L 172.0546,79.1650 L 171.7705,78.2287 L 171.4865,77.2923 L 147.8408,85.4652 Z" stroke="none" fill="black"/><path d="M 149.0393,90.2455 L 149.0411,90.2549 L 173.7521,86.3396 L 173.5589,85.3682 L 173.3657,84.3969 L 149.0374,90.2361 Z" stroke="none" fill="black"/><path d="M 149.7592,95.0992 L 149.7595,95.1016 L 174.7366,93.6415 L 174.6388,92.6487 L 174.5411,91.6560 L 149.7590,95.0968 Z" stroke="none" fill="black"/><path d="M 150.0000,100.0000 L 150.0000,100.0000 L 175.0000,101.0000 L 175.0000,100.0000 L 175.0000,99.0000 L 150.0000,100.0000 Z" stroke="none" fill="black"/></svg>