<?xml version="1.0" encoding="UTF-8"?>
<!DOCTYPE svg PUBLIC "-//W3C//DTD SVG 1.1//EN"
    "http://www.w3.org/Graphics/SVG/1.1/DTD/svg11.dtd"><svg xmlns="http://www.w3.org/2000/svg" height="200" width="200" xmlns:xlink="http://www.w3.org/1999/xlink" version="1.11.1"><path d="M 200.0000,100.0000 L 200.0000,99.5000 L 150.0000,99.5000 L 150.0000,100.0000 L 150.0000,100.5000 L 200.0000,100.5000 Z" stroke="none" fill="black"/><path d="M 199.5185,109.8017 L 199.5675,109.3041 L 149.8082,104.4033 L 149.7592,104.9009 L 149.7102,105.3984 L 199.4694,110.2993 Z" stroke="none" fill="black"/><path d="M 198.0785,119.5090 L 198.1761,119.0186 L 149.1368,109.2641 L 149.0393,109.7545 L 148.9417,110.2449 L 197.9810,119.9994 Z" stroke="none" fill="black"/><path d="M 195.6940,129.0285 L 195.8392,128.5500 L 147.9922,114.0358 L 147.8470,114.5142 L 147.7019,114.9927 L 195.5489,129.5069 Z" stroke="none" fill="black"/><path d="M 192.3879,138.2683 L 192.5793,137.8064 L 146.3853,118.6722 L 146.1940,119.1342 L 146.0026,119.5961 L 192.1966,138.7303 Z" stroke="none" fill="black"/><path d="M 188.1921,147.1397 L 188.4278,146.6987 L 144.3318,123.1289 L 144.0961,123.5698 L 143.8604,124.0108 L 187.9564,147.5806 Z" stroke="none" fill="black"/><path d="M 183.1470,155.5570 L 183.4247,155.1413 L 141.8513,127.3628 L 141.5735,127.7785 L 141.2957,128.1942 L 182.8692,155.9728 Z" stroke="none" fill="black"/><path d="M 177.3010,163.4393 L 177.6182,163.0528 L 138.9677,131.3332 L 138.6505,131.7197 L 138.3333,132.1062 L 176.9838,163.8258 Z" stroke="none" fill="black"/><path d="M 170.7107,170.7107 L 171.0642,170.3571 L 135.7089,135.0018 L 135.3554,135.3554 L 135.0018,135.7089 L 170.3571,171.0642 Z" stroke="none" fill="black"/><path d="M 163.4393,177.3010 L 163.8258,176.9838 L 132.1062,138.3333 L 131.7197,138.6505 L 131.3332,138.9677 L 163.0528,177.6182 Z" stroke="none" fill="black"/><path d="M 155.5570,183.1470 L 155.9728,182.8692 L 128.1942,141.2957 L 127.7785,141.5735 L 127.3628,141.8513 L 155.1413,183.4248 Z" stroke="none" fill="black"/><path d="M 147.1397,188.1921 L 147.5806,187.9564 L 124.0108,143.8604 L 123.5698,144.0961 L 123.1289,144.3318 L 146.6987,188.4278 Z" stroke="none" fill="black"/><path d="M 138.2683,192.3879 L 138.7303,192.1966 L 119.5961,146.0026 L 119.1342,146.1940 L 118.6722,146.3853 L 137.8064,192.5793 Z" stroke="none" fill="black"/><path d="M 129.0285,195.6940 L 129.5069,195.5489 L 114.9927,147.7019 L 114.5142,147.8470 L 114.0358,147.9922 L 128.5500,195.8392 Z" stroke="none" fill="black"/><path d="M 119.5090,198.0785 L 119.9994,197.9810 L 110.2449,148.9417 L 109.7545,149.0393 L 109.2641,149.1368 L 119.0186,198.1761 Z" stroke="none" fill="black"/><path d="M 109.8017,199.5185 L 110.2993,199.4694 L 105.3984,149.7102 L 104.9009,149.7592 L 104.4033,149.8082 L 109.3041,199.5675 Z" stroke="none" fill="black"/><path d="M 100.0000,200.0000 L 100.5000,200.0000 L 100.5000,150.0000 L 100.0000,150.0000 L 99.5000,150.0000 L 99.5000,200.0000 Z" stroke="none" fill="black"/><path d="M 90.1983,199.5185 L 90.6959,199.5675 L 95.5967,149.8082 L 95.0991,149.7592 L 94.6016,149.7102 L 89.7007,199.4694 Z" stroke="none" fill="black"/><path d="M 80.4910,198.0785 L 80.9814,198.1761 L 90.7359,149.1368 L 90.2455,149.0393 L 89.7551,148.9417 L 80.0006,197.9810 Z" stroke="none" fill="black"/><path d="M 70.9715,195.6940 L 71.4500,195.8392 L 85.9642,147.9922 L 85.4858,147.8470 L 85.0073,147.7019 L 70.4931,195.5489 Z" stroke="none" fill="black"/><path d="M 61.7316,192.3879 L 62.1936,192.5793 L 81.3278,146.3853 L 80.8658,146.1940 L 80.4039,146.0026 L 61.2697,192.1966 Z" stroke="none" fill="black"/><path d="M 52.8603,188.1921 L 53.3013,188.4278 L 76.8711,144.3318 L 76.4302,144.0961 L 75.9892,143.8604 L 52.4194,187.9564 Z" stroke="none" fill="black"/><path d="M 44.4430,183.1470 L 44.8587,183.4247 L 72.6372,141.8513 L 72.2215,141.5735 L 71.8058,141.2957 L 44.0272,182.8692 Z" stroke="none" fill="black"/><path d="M 36.5607,177.3011 L 36.9472,177.6183 L 68.6668,138.9677 L 68.2803,138.6505 L 67.8938,138.3333 L 36.1742,176.9839 Z" stroke="none" fill="black"/><path d="M 29.2893,170.7107 L 29.6429,171.0642 L 64.9982,135.7089 L 64.6447,135.3554 L 64.2911,135.0018 L 28.9358,170.3571 Z" stroke="none" fill="black"/><path d="M 22.6990,163.4393 L 23.0161,163.8258 L 61.6667,132.1062 L 61.3495,131.7197 L 61.0323,131.3332 L 22.3818,163.0528 Z" stroke="none" fill="black"/><path d="M 16.8530,155.5570 L 17.1308,155.9728 L 58.7043,128.1942 L 58.4265,127.7785 L 58.1487,127.3628 L 16.5752,155.1413 Z" stroke="none" fill="black"/><path d="M 11.8079,147.1397 L 12.0436,147.5806 L 56.1396,124.0108 L 55.9039,123.5698 L 55.6682,123.1289 L 11.5722,146.6987 Z" stroke="none" fill="black"/><path d="M 7.6120,138.2683 L 7.8034,138.7303 L 53.9974,119.5961 L 53.8060,119.1342 L 53.6147,118.6722 L 7.4207,137.8064 Z" stroke="none" fill="black"/><path d="M 4.3060,129.0285 L 4.4511,129.5069 L 52.2981,114.9927 L 52.1530,114.5142 L 52.0078,114.0358 L 4.1608,128.5500 Z" stroke="none" fill="black"/><path d="M 1.9215,119.5090 L 2.0190,119.9994 L 51.0583,110.2449 L 50.9607,109.7545 L 50.8632,109.2641 L 1.8239,119.0186 Z" stroke="none" fill="black"/><path d="M 0.4815,109.8017 L 0.5305,110.2993 L 50.2898,105.3984 L 50.2408,104.9009 L 50.1918,104.4033 L 0.4325,109.3041 Z" stroke="none" fill="black"/><path d="M 0.0000,100.0000 L 0.0000,100.5000 L 50.0000,100.5000 L 50.0000,100.0000 L 50.0000,99.5000 L -0.0000,99.5000 Z" stroke="none" fill="black"/><path d="M 0.4815,90.1983 L 0.4325,90.6959 L 50.1918,95.5967 L 50.2408,95.0991 L 50.2898,94.6016 L 0.5305,89.7007 Z" stroke="none" fill="black"/><path d="M 1.9215,80.4910 L 1.8239,80.9813 L 50.8632,90.7359 L 50.9607,90.2455 L 51.0583,89.7551 L 2.0190,80.0006 Z" stroke="none" fill="black"/><path d="M 4.3060,70.9715 L 4.1608,71.4500 L 52.0078,85.9642 L 52.1530,85.4858 L 52.2981,85.0073 L 4.4511,70.4930 Z" stroke="none" fill="black"/><path d="M 7.6121,61.7317 L 7.4207,62.1936 L 53.6147,81.3278 L 53.8060,80.8658 L 53.9974,80.4039 L 7.8034,61.2697 Z" stroke="none" fill="black"/><path d="M 11.8079,52.8603 L 11.5722,53.3013 L 55.6682,76.8711 L 55.9039,76.4302 L 56.1396,75.9892 L 12.0436,52.4194 Z" stroke="none" fill="black"/><path d="M 16.8530,44.4430 L 16.5753,44.8587 L 58.1487,72.6372 L 58.4265,72.2215 L 58.7043,71.8058 L 17.1308,44.0272 Z" stroke="none" fill="black"/><path d="M 22.6990,36.5607 L 22.3818,36.9472 L 61.0323,68.6668 L 61.3495,68.2803 L 61.6667,67.8938 L 23.0162,36.1742 Z" stroke="none" fill="black"/><path d="M 29.2893,29.2893 L 28.9358,29.6429 L 64.2911,64.9982 L 64.6447,64.6446 L 64.9982,64.2911 L 29.6429,28.9358 Z" stroke="none" fill="black"/><path d="M 36.5607,22.6990 L 36.1742,23.0162 L 67.8938,61.6667 L 68.2803,61.3495 L 68.6668,61.0323 L 36.9472,22.3818 Z" stroke="none" fill="black"/><path d="M 44.4430,16.8530 L 44.0273,17.1308 L 71.8058,58.7043 L 72.2215,58.4265 L 72.6372,58.1487 L 44.8587,16.5752 Z" stroke="none" fill="black"/><path d="M 52.8603,11.8079 L 52.4194,12.0436 L 75.9892,56.1396 L 76.4302,55.9039 L 76.8711,55.6682 L 53.3013,11.5722 Z" stroke="none" fill="black"/><path d="M 61.7317,7.6120 L 61.2697,7.8034 L 80.4039,53.9974 L 80.8658,53.8060 L 81.3278,53.6147 L 62.1936,7.4207 Z" stroke="none" fill="black"/><path d="M 70.9715,4.3060 L 70.4931,4.4511 L 85.0073,52.2981 L 85.4858,52.1530 L 85.9642,52.0078 L 71.4500,4.1608 Z" stroke="none" fill="black"/><path d="M 80.4910,1.9215 L 80.0006,2.0190 L 89.7551,51.0583 L 90.2455,50.9607 L 90.7359,50.8632 L 80.9814,1.8239 Z" stroke="none" fill="black"/><path d="M 90.1983,0.4815 L 89.7007,0.5305 L 94.6016,50.2898 L 95.0992,50.2408 L 95.5967,50.1918 L 90.6959,0.4325 Z" stroke="none" fill="black"/><path d="M 100.0000,0.0000 L 99.5000,0.0000 L 99.5000,50.0000 L 100.0000,50.0000 L 100.5000,50.0000 L 100.5000,0.0000 Z" stroke="none" fill="black"/><path d="M 109.8017,0.4815 L 109.3042,0.4325 L 104.4033,50.1918 L 104.9009,50.2408 L 105.3985,50.2898 L 110.2993,0.5305 Z" stroke="none" fill="black"/><path d="M 119.5090,1.9215 L 119.0186,1.8239 L 109.2641,50.8632 L 109.7545,50.9607 L 110.2449,51.0583 L 119.9994,2.0190 Z" stroke="none" fill="black"/><path d="M 129.0285,4.3060 L 128.5500,4.1608 L 114.0358,52.0078 L 114.5142,52.1530 L 114.9927,52.2981 L 129.5070,4.4511 Z" stroke="none" fill="black"/><path d="M 138.2684,7.6121 L 137.8064,7.4207 L 118.6722,53.6147 L 119.1342,53.8060 L 119.5961,53.9974 L 138.7303,7.8034 Z" stroke="none" fill="black"/><path d="M 147.1397,11.8079 L 146.6987,11.5722 L 123.1289,55.6682 L 123.5698,55.9039 L 124.0108,56.1396 L 147.5806,12.0436 Z" stroke="none" fill="black"/><path d="M 155.5570,16.8530 L 155.1413,16.5753 L 127.3628,58.1487 L 127.7785,58.4265 L 128.1943,58.7043 L 155.9728,17.1308 Z" stroke="none" fill="black"/><path d="M 163.4393,22.6990 L 163.0528,22.3818 L 131.3332,61.0323 L 131.7197,61.3495 L 132.1062,61.6667 L 163.8258,23.0162 Z" stroke="none" fill="black"/><path d="M 170.7107,29.2893 L 170.3572,28.9358 L 135.0018,64.2911 L 135.3554,64.6447 L 135.7089,64.9982 L 171.0642,29.6429 Z" stroke="none" fill="black"/><path d="M 177.3011,36.5607 L 176.9839,36.1742 L 138.3333,67.8938 L 138.6505,68.2803 L 138.9677,68.6668 L 177.6183,36.9472 Z" stroke="none" fill="black"/><path d="M 183.1470,44.4430 L 182.8692,44.0272 L 141.2957,71.8058 L 141.5735,72.2215 L 141.8513,72.6372 L 183.4247,44.8587 Z" stroke="none" fill="black"/><path d="M 188.1921,52.8603 L 187.9564,52.4194 L 143.8604,75.9892 L 144.0961,76.4302 L 144.3318,76.8711 L 188.4278,53.3013 Z" stroke="none" fill="black"/><path d="M 192.3880,61.7317 L 192.1966,61.2697 L 146.0026,80.4039 L 146.1940,80.8658 L 146.3853,81.3278 L 192.5793,62.1936 Z" stroke="none" fill="black"/><path d="M 195.6940,70.9716 L 195.5489,70.4931 L 147.7019,85.0073 L 147.8470,85.4858 L 147.9922,85.9642 L 195.8392,71.4500 Z" stroke="none" fill="black"/><path d="M 198.0785,80.4910 L 197.9810,80.0006 L 148.9417,89.7551 L 149.0393,90.2455 L 149.1368,90.7359 L 198.1761,80.9814 Z" stroke="none" fill="black"/><path d="M 199.5185,90.1983 L 199.4695,89.7007 L 149.7102,94.6016 L 149.7592,95.0992 L 149.8083,95.5968 L 199.5675,90.6959 Z" stroke="none" fill="black"/><path d="M 200.0000,100.0000 L 200.0000,99.5000 L 150.0000,99.5000 L 150.0000,100.0000 L 150.0000,100.5000 L 200.0000,100.5000 Z" stroke="none" fill="black"/></svg>