<?xml version="1.0" encoding="UTF-8" standalone="no"?>
<!-- Created with Inkscape (http://www.inkscape.org/) -->

<svg
   xmlns:dc="http://purl.org/dc/elements/1.1/"
   xmlns:cc="http://creativecommons.org/ns#"
   xmlns:rdf="http://www.w3.org/1999/02/22-rdf-syntax-ns#"
   xmlns:svg="http://www.w3.org/2000/svg"
   xmlns="http://www.w3.org/2000/svg"
   xmlns:sodipodi="http://sodipodi.sourceforge.net/DTD/sodipodi-0.dtd"
   xmlns:inkscape="http://www.inkscape.org/namespaces/inkscape"
   width="297mm"
   height="210mm"
   viewBox="0 0 297 210"
   version="1.1"
   id="svg8"
   inkscape:version="0.92.4 (5da689c313, 2019-01-14)"
   sodipodi:docname="ausstellungsschild.svg">
  <defs
     id="defs2" />
  <sodipodi:namedview
     id="base"
     pagecolor="#ffffff"
     bordercolor="#666666"
     borderopacity="1.0"
     inkscape:pageopacity="0.0"
     inkscape:pageshadow="2"
     inkscape:zoom="0.7"
     inkscape:cx="343.61789"
     inkscape:cy="373.1049"
     inkscape:document-units="mm"
     inkscape:current-layer="layer1"
     showgrid="false"
     inkscape:window-width="1568"
     inkscape:window-height="868"
     inkscape:window-x="16"
     inkscape:window-y="16"
     inkscape:window-maximized="1">
    <inkscape:grid
       type="xygrid"
       id="grid14416" />
  </sodipodi:namedview>
  <metadata
     id="metadata5">
    <rdf:RDF>
      <cc:Work
         rdf:about="">
        <dc:format>image/svg+xml</dc:format>
        <dc:type
           rdf:resource="http://purl.org/dc/dcmitype/StillImage" />
        <dc:title></dc:title>
      </cc:Work>
    </rdf:RDF>
  </metadata>
  <g
     inkscape:label="Layer 1"
     inkscape:groupmode="layer"
     id="layer1"
     transform="translate(0,-87)">
    <g
       id="g14317"
       transform="matrix(0.73102184,0,0,0.73102184,114.22382,136.94308)">
      <path
         id="path14215"
         d="M 5.9003,0 4.1234,2 2.3872,4 0.7209,6 -0.857,8 l -1.48,2 -1.38,2 -1.2837,2 -1.1954,2 -1.1183,2 -1.0544,2 -1.0045,2 -0.9687,2 -0.9462,2 -0.9353,2 -0.9343,2 -0.9406,2 -0.9513,2 -0.9637,2 -0.9746,2 -0.9811,2 -0.9806,2 -0.9703,2 -0.9484,2 -0.9135,2 -0.8646,2 -0.8017,2 -0.7257,2 -0.6387,2 -0.5436,2 -0.4449,2 -0.3483,2 -0.2601,2 -0.1757,2 -0.0911,2 -0.0061,2 0.0792,2 0.1648,2 0.2499,2 0.3342,2 0.4169,2 0.4975,2 0.575,2 0.6488,2 0.718,2 0.782,2 0.8399,2 0.8912,2 0.9353,2 0.9718,2 1.0006,2 1.0215,2 1.0346,2 1.0404,2 1.0392,2 1.0323,2 1.0206,2 1.0057,2 0.9894,2 0.9741,2 0.9623,2 0.9571,2 0.962,2 0.9808,2 1.0098,2 1.0446,2 1.0858,2 1.1342,2 1.1904,2 1.2536,2 1.3235,2 1.399,2 1.4787,2 1.5611,2 1.6446,2 1.727,2 1.8067,2 1.8815,2 1.9497,2 2.0093,2 2.059,2 2.097,2 2.1225,2 2.1345,2 2.1328,2 2.1173,2 2.0886,2 2.0479,2 1.9971,2 1.9382,2 1.875,2 1.811,2 1.7514,2 1.7017,2 1.6688,2 1.6584,2 1.6653,2 1.6791,2 1.6906,2 1.6931,2 1.6815,2"
         inkscape:connector-curvature="0"
         style="fill:none;stroke:#000000;stroke-width:0.2" />
      <path
         id="path14217"
         d="M 10.1189,0 8.4885,2 6.8966,4 5.3695,6 l -1.447,2 -1.3612,2 -1.2768,2 -1.1996,2 -1.1337,2 -1.0816,2 -1.0449,2 -1.0236,2 -1.0171,2 -1.0237,2 -1.0413,2 -1.0669,2 -1.0973,2 -1.129,2 -1.1585,2 -1.1821,2 -1.1966,2 -1.1989,2 -1.1863,2 -1.1571,2 -1.1101,2 -1.045,2 -0.9626,2 -0.8651,2 -0.7558,2 -0.6398,2 -0.5234,2 -0.4153,2 -0.3234,2 -0.2385,2 -0.1526,2 -0.066,2 0.0216,2 0.1094,2 0.1973,2 0.2844,2 0.3702,2 0.4537,2 0.5343,2 0.611,2 0.683,2 0.7496,2 0.8099,2 0.8633,2 0.9092,2 0.9474,2 0.9773,2 0.999,2 1.0126,2 1.0187,2 1.0174,2 1.0102,2 0.998,2 0.9824,2 0.9654,2 0.9493,2 0.9368,2 0.9313,2 0.9361,2 0.9554,2 0.9901,2 1.0377,2 1.097,2 1.1669,2 1.2455,2 1.3312,2 1.422,2 1.5159,2 1.6111,2 1.705,2 1.7959,2 1.8817,2 1.9603,2 2.03,2 2.0893,2 2.1366,2 2.1708,2 2.1911,2 2.1969,2 2.188,2 2.1648,2 2.1279,2 2.0786,2 2.0186,2 1.95,2 1.8761,2 1.8002,2 1.7267,2 1.6606,2 1.6076,2 1.5743,2 1.5658,2 1.5768,2 1.5968,2 1.6173,2 1.6314,2 1.6339,2"
         inkscape:connector-curvature="0"
         style="fill:none;stroke:#000000;stroke-width:0.2" />
      <path
         id="path14219"
         d="m 13.652,0 -1.5093,2 -1.473,2 -1.4133,2 -1.3414,2 -1.2668,2 -1.1969,2 -1.137,2 -1.0911,2 -1.0612,2 -1.0482,2 -1.0517,2 -1.0703,2 -1.1018,2 -1.1432,2 -1.1908,2 -1.2409,2 -1.2895,2 -1.3323,2 -1.3654,2 -1.385,2 -1.388,2 -1.3718,2 -1.3346,2 -1.2755,2 -1.1949,2 -1.0945,2 -0.9772,2 -0.8479,2 -0.713,2 -0.5811,2 -0.4628,2 -0.3681,2 -0.2821,2 -0.194,2 -0.104,2 -0.0125,2 0.08,2 0.1729,2 0.2652,2 0.356,2 0.4445,2 0.5298,2 0.6106,2 0.6863,2 0.7558,2 0.8183,2 0.8733,2 0.9199,2 0.9579,2 0.9869,2 1.007,2 1.0183,2 1.0212,2 1.0164,2 1.0052,2 0.9887,2 0.9688,2 0.9475,2 0.9274,2 0.9115,2 0.9033,2 0.9066,2 0.9259,2 0.9647,2 1.022,2 1.0946,2 1.1797,2 1.2746,2 1.3761,2 1.4815,2 1.5882,2 1.6934,2 1.7947,2 1.89,2 1.9769,2 2.0537,2 2.1186,2 2.1705,2 2.208,2 2.2305,2 2.2376,2 2.229,2 2.2054,2 2.1672,2 2.1157,2 2.0527,2 1.9801,2 1.9008,2 1.8176,2 1.7348,2 1.6563,2 1.5873,2 1.5333,2 1.5007,2 1.4948,2 1.5114,2 1.5403,2 1.5729,2 1.602,2 1.6222,2"
         inkscape:connector-curvature="0"
         style="fill:none;stroke:#000000;stroke-width:0.2" />
      <path
         id="path14221"
         d="m 16.3539,0 -1.4193,2 -1.3852,2 -1.3299,2 -1.2649,2 -1.1999,2 -1.1419,2 -1.0962,2 -1.0663,2 -1.054,2 -1.0596,2 -1.0824,2 -1.1203,2 -1.1707,2 -1.2299,2 -1.2939,2 -1.3585,2 -1.419,2 -1.4709,2 -1.51,2 -1.5322,2 -1.5344,2 -1.5139,2 -1.469,2 -1.3994,2 -1.3055,2 -1.1899,2 -1.0564,2 -0.9108,2 -0.7608,2 -0.6164,2 -0.4903,2 -0.3933,2 -0.3061,2 -0.2148,2 -0.12,2 -0.0225,2 0.0768,2 0.1767,2 0.2763,2 0.3744,2 0.4695,2 0.5609,2 0.6472,2 0.7271,2 0.8,2 0.8646,2 0.9204,2 0.9667,2 1.0029,2 1.029,2 1.045,2 1.0511,2 1.0478,2 1.0362,2 1.0175,2 0.9932,2 0.9654,2 0.9364,2 0.9094,2 0.8873,2 0.8743,2 0.8747,2 0.8934,2 0.9349,2 0.9977,2 1.078,2 1.1717,2 1.2752,2 1.385,2 1.4978,2 1.6103,2 1.7199,2 1.8237,2 1.9198,2 2.0055,2 2.0797,2 2.1403,2 2.1865,2 2.2175,2 2.2326,2 2.2317,2 2.2152,2 2.1836,2 2.138,2 2.0799,2 2.011,2 1.9337,2 1.851,2 1.7657,2 1.682,2 1.6037,2 1.5359,2 1.4836,2 1.4528,2 1.4499,2 1.4736,2 1.5135,2 1.5605,2 1.6073,2 1.6472,2"
         inkscape:connector-curvature="0"
         style="fill:none;stroke:#000000;stroke-width:0.2" />
      <path
         id="path14223"
         d="m 18.1859,0 -1.3624,2 -1.33,2 -1.278,2 -1.2182,2 -1.1601,2 -1.1106,2 -1.0748,2 -1.0559,2 -1.0556,2 -1.0737,2 -1.1092,2 -1.1598,2 -1.2224,2 -1.293,2 -1.3672,2 -1.4405,2 -1.5079,2 -1.5648,2 -1.6067,2 -1.6295,2 -1.6298,2 -1.6052,2 -1.5541,2 -1.476,2 -1.3724,2 -1.2457,2 -1.1005,2 -0.9433,2 -0.7829,2 -0.6302,2 -0.4987,2 -0.4006,2 -0.3117,2 -0.2163,2 -0.1154,2 -0.0105,2 0.0972,2 0.2061,2 0.3148,2 0.4215,2 0.525,2 0.6237,2 0.7161,2 0.8011,2 0.8774,2 0.944,2 0.9999,2 1.0448,2 1.078,2 1.0994,2 1.1091,2 1.1076,2 1.0956,2 1.0742,2 1.0449,2 1.0099,2 0.9711,2 0.9317,2 0.8949,2 0.8645,2 0.845,2 0.8412,2 0.859,2 0.9014,2 0.9659,2 1.0479,2 1.1432,2 1.248,2 1.3583,2 1.471,2 1.5826,2 1.6907,2 1.7923,2 1.8854,2 1.9681,2 2.0386,2 2.0956,2 2.1382,2 2.1658,2 2.1778,2 2.1747,2 2.1565,2 2.1242,2 2.0787,2 2.0218,2 1.9551,2 1.8811,2 1.8023,2 1.722,2 1.6433,2 1.5706,2 1.5077,2 1.4599,2 1.432,2 1.4326,2 1.4641,2 1.5164,2 1.5795,2 1.6451,2 1.7062,2"
         inkscape:connector-curvature="0"
         style="fill:none;stroke:#000000;stroke-width:0.2" />
      <path
         id="path14225"
         d="m 19.251,0 -1.3356,2 -1.3042,2 -1.2543,2 -1.1976,2 -1.1435,2 -1.0987,2 -1.0683,2 -1.0554,2 -1.0613,2 -1.0858,2 -1.1279,2 -1.1846,2 -1.2529,2 -1.3288,2 -1.4075,2 -1.4844,2 -1.5544,2 -1.6127,2 -1.6548,2 -1.6767,2 -1.6748,2 -1.6467,2 -1.5911,2 -1.5077,2 -1.3979,2 -1.2645,2 -1.1125,2 -0.9489,2 -0.7825,2 -0.6254,2 -0.4914,2 -0.3929,2 -0.3023,2 -0.2022,2 -0.0944,2 0.019,2 0.1364,2 0.2555,2 0.3744,2 0.491,2 0.6037,2 0.7105,2 0.8097,2 0.9,2 0.9798,2 1.048,2 1.1037,2 1.1463,2 1.1753,2 1.1907,2 1.1925,2 1.1815,2 1.1588,2 1.1254,2 1.0836,2 1.0353,2 0.9836,2 0.9315,2 0.883,2 0.8427,2 0.8153,2 0.8067,2 0.8229,2 0.8649,2 0.9276,2 1.0063,2 1.0972,2 1.1964,2 1.3007,2 1.4068,2 1.5118,2 1.6131,2 1.7084,2 1.7957,2 1.8733,2 1.9396,2 1.9936,2 2.0344,2 2.0615,2 2.0747,2 2.0739,2 2.0598,2 2.0328,2 1.9943,2 1.9454,2 1.8879,2 1.8239,2 1.7556,2 1.6861,2 1.6179,2 1.5549,2 1.5007,2 1.4593,2 1.4354,2 1.4396,2 1.4796,2 1.5449,2 1.6246,2 1.7094,2 1.7915,2"
         inkscape:connector-curvature="0"
         style="fill:none;stroke:#000000;stroke-width:0.2" />
      <path
         id="path14227"
         d="m 19.8293,0 -1.3297,2 -1.2988,2 -1.2499,2 -1.1946,2 -1.142,2 -1.0991,2 -1.0707,2 -1.0598,2 -1.0677,2 -1.0942,2 -1.1378,2 -1.1962,2 -1.2656,2 -1.3423,2 -1.4215,2 -1.4983,2 -1.568,2 -1.6254,2 -1.6662,2 -1.6863,2 -1.6822,2 -1.6516,2 -1.5932,2 -1.5066,2 -1.3937,2 -1.2571,2 -1.1022,2 -0.9358,2 -0.7673,2 -0.6086,2 -0.4742,2 -0.3759,2 -0.2835,2 -0.1785,2 -0.0634,2 0.0592,2 0.1867,2 0.3165,2 0.4463,2 0.5734,2 0.6957,2 0.811,2 0.9172,2 1.0128,2 1.096,2 1.1657,2 1.2208,2 1.2606,2 1.2847,2 1.293,2 1.2862,2 1.2647,2 1.2299,2 1.1835,2 1.1277,2 1.0651,2 0.9989,2 0.9331,2 0.872,2 0.8206,2 0.7848,2 0.7707,2 0.7851,2 0.8259,2 0.8843,2 0.9563,2 1.0386,2 1.128,2 1.2216,2 1.3168,2 1.4112,2 1.5024,2 1.5888,2 1.6682,2 1.7395,2 1.8014,2 1.8528,2 1.8931,2 1.9217,2 1.9387,2 1.9437,2 1.9373,2 1.9201,2 1.8929,2 1.8567,2 1.8131,2 1.7637,2 1.7103,2 1.6554,2 1.6014,2 1.551,2 1.5074,2 1.4742,2 1.4548,2 1.4628,2 1.5114,2 1.5899,2 1.686,2 1.7898,2 1.8923,2"
         inkscape:connector-curvature="0"
         style="fill:none;stroke:#000000;stroke-width:0.2" />
      <path
         id="path14229"
         d="m 20.3702,0 -1.3321,2 -1.3017,2 -1.2534,2 -1.199,2 -1.1473,2 -1.1055,2 -1.078,2 -1.0679,2 -1.0764,2 -1.1032,2 -1.1471,2 -1.2052,2 -1.2743,2 -1.3502,2 -1.4284,2 -1.5039,2 -1.572,2 -1.6277,2 -1.6664,2 -1.6843,2 -1.678,2 -1.6451,2 -1.5842,2 -1.4955,2 -1.3802,2 -1.2418,2 -1.0851,2 -0.9174,2 -0.748,2 -0.5888,2 -0.4546,2 -0.357,2 -0.2627,2 -0.1526,2 -0.0299,2 0.1023,2 0.2405,2 0.3815,2 0.5226,2 0.6605,2 0.7928,2 0.9168,2 1.0303,2 1.1313,2 1.218,2 1.289,2 1.3432,2 1.3799,2 1.3988,2 1.3997,2 1.3835,2 1.351,2 1.3035,2 1.2433,2 1.1727,2 1.095,2 1.0139,2 0.9337,2 0.8592,2 0.7965,2 0.7516,2 0.7318,2 0.7444,2 0.7837,2 0.8371,2 0.9013,2 0.9737,2 1.052,2 1.1337,2 1.2168,2 1.2995,2 1.3799,2 1.4564,2 1.5277,2 1.5926,2 1.65,2 1.6992,2 1.7396,2 1.7705,2 1.7922,2 1.8042,2 1.8068,2 1.8007,2 1.7861,2 1.7642,2 1.7357,2 1.7021,2 1.665,2 1.6258,2 1.5867,2 1.5498,2 1.5176,2 1.4927,2 1.4781,2 1.4898,2 1.547,2 1.6385,2 1.7509,2 1.8732,2 1.9958,2"
         inkscape:connector-curvature="0"
         style="fill:none;stroke:#000000;stroke-width:0.2" />
      <path
         id="path14231"
         d="m 21.1337,0 -1.3535,2 -1.3241,2 -1.2773,2 -1.2247,2 -1.175,2 -1.1346,2 -1.1083,2 -1.0989,2 -1.1074,2 -1.1337,2 -1.1762,2 -1.2324,2 -1.299,2 -1.3717,2 -1.4463,2 -1.518,2 -1.5817,2 -1.6331,2 -1.6674,2 -1.6811,2 -1.6706,2 -1.6339,2 -1.5697,2 -1.4782,2 -1.3606,2 -1.2206,2 -1.0628,2 -0.8947,2 -0.7255,2 -0.5671,2 -0.4338,2 -0.3371,2 -0.2403,2 -0.1234,2 0.0093,2 0.1537,2 0.3055,2 0.4609,2 0.6161,2 0.7677,2 0.9123,2 1.0471,2 1.1695,2 1.2769,2 1.3676,2 1.44,2 1.4927,2 1.5253,2 1.5372,2 1.5289,2 1.5009,2 1.4545,2 1.3915,2 1.3144,2 1.226,2 1.13,2 1.0308,2 0.9333,2 0.8431,2 0.7667,2 0.7113,2 0.6848,2 0.6951,2 0.7327,2 0.781,2 0.8372,2 0.9,2 0.9671,2 1.0375,2 1.1091,2 1.1809,2 1.2514,2 1.3195,2 1.384,2 1.4441,2 1.4987,2 1.5474,2 1.5894,2 1.6244,2 1.6521,2 1.6722,2 1.685,2 1.6906,2 1.6892,2 1.6814,2 1.6681,2 1.65,2 1.6281,2 1.6039,2 1.5786,2 1.5541,2 1.5321,2 1.5148,2 1.5046,2 1.5199,2 1.5849,2 1.6881,2 1.8152,2 1.9542,2 2.0948,2"
         inkscape:connector-curvature="0"
         style="fill:none;stroke:#000000;stroke-width:0.2" />
      <path
         id="path14233"
         d="m 22.2782,0 -1.4108,2 -1.383,2 -1.3393,2 -1.2898,2 -1.2429,2 -1.2048,2 -1.1797,2 -1.1701,2 -1.1771,2 -1.2004,2 -1.2385,2 -1.289,2 -1.3485,2 -1.4135,2 -1.4795,2 -1.542,2 -1.5965,2 -1.6387,2 -1.6643,2 -1.6699,2 -1.6522,2 -1.6095,2 -1.5405,2 -1.4455,2 -1.3261,2 -1.1854,2 -1.0286,2 -0.8622,2 -0.6957,2 -0.5403,2 -0.4098,2 -0.3146,2 -0.2142,2 -0.0881,2 0.0582,2 0.2189,2 0.3889,2 0.5632,2 0.7371,2 0.9062,2 1.0668,2 1.2152,2 1.3484,2 1.4637,2 1.5587,2 1.6321,2 1.6822,2 1.7086,2 1.711,2 1.69,2 1.6465,2 1.5821,2 1.499,2 1.4001,2 1.2892,2 1.1704,2 1.0486,2 0.9298,2 0.8202,2 0.7272,2 0.6589,2 0.6243,2 0.6319,2 0.6677,2 0.7106,2 0.7591,2 0.8122,2 0.8691,2 0.929,2 0.9908,2 1.0537,2 1.1167,2 1.179,2 1.2398,2 1.2982,2 1.3534,2 1.4048,2 1.4516,2 1.4935,2 1.5299,2 1.5604,2 1.585,2 1.6034,2 1.6158,2 1.6223,2 1.6232,2 1.6193,2 1.611,2 1.5994,2 1.5857,2 1.571,2 1.5571,2 1.5456,2 1.5389,2 1.5573,2 1.6284,2 1.7406,2 1.8789,2 2.0306,2 2.1844,2"
         inkscape:connector-curvature="0"
         style="fill:none;stroke:#000000;stroke-width:0.2" />
      <path
         id="path14235"
         d="m 23.9937,0 -1.511,2 -1.4859,2 -1.4462,2 -1.4009,2 -1.3577,2 -1.3218,2 -1.2969,2 -1.2855,2 -1.2882,2 -1.3049,2 -1.334,2 -1.3735,2 -1.4204,2 -1.4713,2 -1.5223,2 -1.5694,2 -1.6087,2 -1.6361,2 -1.648,2 -1.6412,2 -1.6133,2 -1.5623,2 -1.4876,2 -1.3894,2 -1.2693,2 -1.1304,2 -0.9773,2 -0.8165,2 -0.6562,2 -0.5072,2 -0.3821,2 -0.2891,2 -0.1845,2 -0.047,2 0.1156,2 0.2964,2 0.4882,2 0.685,2 0.8809,2 1.0707,2 1.2497,2 1.4135,2 1.5587,2 1.6822,2 1.7813,2 1.8545,2 1.9003,2 1.9183,2 1.9085,2 1.8714,2 1.8087,2 1.7224,2 1.6152,2 1.4908,2 1.3534,2 1.2079,2 1.0602,2 0.917,2 0.7855,2 0.674,2 0.5914,2 0.5477,2 0.5523,2 0.5861,2 0.624,2 0.6648,2 0.7092,2 0.7571,2 0.8083,2 0.8626,2 0.9195,2 0.9784,2 1.0387,2 1.0998,2 1.1607,2 1.2207,2 1.2789,2 1.3346,2 1.3869,2 1.4351,2 1.4786,2 1.5167,2 1.5492,2 1.5754,2 1.5956,2 1.6096,2 1.6177,2 1.6203,2 1.6183,2 1.6124,2 1.6043,2 1.5952,2 1.5872,2 1.5829,2 1.6034,2 1.6785,2 1.7958,2 1.9403,2 2.0987,2 2.2597,2"
         inkscape:connector-curvature="0"
         style="fill:none;stroke:#000000;stroke-width:0.2" />
      <path
         id="path14237"
         d="m 26.4618,0 -1.6536,2 -1.6316,2 -1.5966,2 -1.556,2 -1.5161,2 -1.4814,2 -1.455,2 -1.4389,2 -1.4337,2 -1.439,2 -1.454,2 -1.4765,2 -1.5044,2 -1.5346,2 -1.5641,2 -1.5894,2 -1.6073,2 -1.6145,2 -1.6082,2 -1.5857,2 -1.5448,2 -1.4845,2 -1.4041,2 -1.3039,2 -1.1856,2 -1.0518,2 -0.9067,2 -0.7558,2 -0.6067,2 -0.468,2 -0.3511,2 -0.2618,2 -0.1526,2 -0.003,2 0.1774,2 0.3794,2 0.5946,2 0.8152,2 1.0342,2 1.2453,2 1.4429,2 1.6219,2 1.7785,2 1.9091,2 2.011,2 2.0823,2 2.1218,2 2.1291,2 2.1045,2 2.0492,2 1.9649,2 1.8545,2 1.7211,2 1.5692,2 1.4037,2 1.2305,2 1.056,2 0.8877,2 0.7341,2 0.604,2 0.5072,2 0.4547,2 0.4562,2 0.4883,2 0.5212,2 0.5554,2 0.5922,2 0.6328,2 0.6778,2 0.7276,2 0.7819,2 0.8408,2 0.9034,2 0.9692,2 1.0373,2 1.1067,2 1.1761,2 1.2447,2 1.311,2 1.3741,2 1.4327,2 1.486,2 1.5331,2 1.5731,2 1.6058,2 1.6309,2 1.6482,2 1.6584,2 1.6619,2 1.66,2 1.6543,2 1.6464,2 1.6393,2 1.6357,2 1.6577,2 1.7339,2 1.8519,2 1.9968,2 2.1551,2 2.3156,2"
         inkscape:connector-curvature="0"
         style="fill:none;stroke:#000000;stroke-width:0.2" />
      <path
         id="path14239"
         d="m 29.8228,0 -1.8314,2 -1.8128,2 -1.7823,2 -1.7458,2 -1.7082,2 -1.6727,2 -1.6421,2 -1.6177,2 -1.6,2 -1.5893,2 -1.5843,2 -1.5841,2 -1.5866,2 -1.59,2 -1.5919,2 -1.5899,2 -1.5813,2 -1.5642,2 -1.5362,2 -1.4955,2 -1.4407,2 -1.371,2 -1.286,2 -1.1863,2 -1.0731,2 -0.9489,2 -0.8166,2 -0.6811,2 -0.548,2 -0.4243,2 -0.3187,2 -0.2343,2 -0.1211,2 0.0399,2 0.2371,2 0.4592,2 0.6963,2 0.939,2 1.179,2 1.4092,2 1.6229,2 1.8148,2 1.9801,2 2.1153,2 2.2173,2 2.2845,2 2.3155,2 2.3104,2 2.2697,2 2.195,2 2.0887,2 1.9541,2 1.795,2 1.6167,2 1.4245,2 1.2252,2 1.0262,2 0.8354,2 0.662,2 0.5155,2 0.4067,2 0.3467,2 0.3458,2 0.3763,2 0.4049,2 0.4332,2 0.4643,2 0.4999,2 0.5415,2 0.5899,2 0.6456,2 0.7083,2 0.7776,2 0.8527,2 0.9324,2 1.0155,2 1.1002,2 1.1852,2 1.2687,2 1.3491,2 1.4247,2 1.4939,2 1.5558,2 1.6088,2 1.6524,2 1.686,2 1.7095,2 1.7235,2 1.7284,2 1.7262,2 1.7186,2 1.7084,2 1.6992,2 1.6952,2 1.7177,2 1.792,2 1.9061,2 2.0452,2 2.1964,2 2.3489,2"
         inkscape:connector-curvature="0"
         style="fill:none;stroke:#000000;stroke-width:0.2" />
      <path
         id="path14241"
         d="m 34.1532,0 -2.0329,2 -2.0172,2 -1.9905,2 -1.9568,2 -1.9192,2 -1.8803,2 -1.842,2 -1.8053,2 -1.7709,2 -1.7388,2 -1.709,2 -1.6806,2 -1.6527,2 -1.6243,2 -1.5938,2 -1.5602,2 -1.522,2 -1.4777,2 -1.4263,2 -1.3667,2 -1.2982,2 -1.2205,2 -1.1334,2 -1.0374,2 -0.9337,2 -0.8237,2 -0.7097,2 -0.5948,2 -0.4827,2 -0.3784,2 -0.2871,2 -0.209,2 -0.0933,2 0.077,2 0.2877,2 0.5263,2 0.7808,2 1.0409,2 1.2972,2 1.5413,2 1.7664,2 1.9663,2 2.136,2 2.2718,2 2.3708,2 2.431,2 2.4517,2 2.433,2 2.3759,2 2.2825,2 2.1557,2 1.9991,2 1.8176,2 1.6164,2 1.4022,2 1.1819,2 0.9633,2 0.7552,2 0.5671,2 0.409,2 0.2918,2 0.2268,2 0.2246,2 0.2537,2 0.2786,2 0.3027,2 0.3297,2 0.3626,2 0.4037,2 0.4542,2 0.5146,2 0.5851,2 0.6649,2 0.7531,2 0.8482,2 0.9484,2 1.0517,2 1.1559,2 1.2589,2 1.3581,2 1.4515,2 1.5372,2 1.6131,2 1.6778,2 1.7303,2 1.7699,2 1.7962,2 1.8102,2 1.8127,2 1.806,2 1.7928,2 1.7769,2 1.763,2 1.7575,2 1.7795,2 1.8494,2 1.9552,2 2.0829,2 2.2204,2 2.3578,2"
         inkscape:connector-curvature="0"
         style="fill:none;stroke:#000000;stroke-width:0.2" />
      <path
         id="path14243"
         d="m 39.4519,0 -2.2431,2 -2.2299,2 -2.2054,2 -2.1723,2 -2.1321,2 -2.0866,2 -2.037,2 -1.984,2 -1.9287,2 -1.8713,2 -1.8124,2 -1.7517,2 -1.6898,2 -1.6261,2 -1.5608,2 -1.4934,2 -1.4239,2 -1.3518,2 -1.2772,2 -1.1996,2 -1.1192,2 -1.0361,2 -0.9501,2 -0.862,2 -0.7721,2 -0.6812,2 -0.5905,2 -0.5012,2 -0.4147,2 -0.3333,2 -0.2591,2 -0.1886,2 -0.0723,2 0.1684,2 0.3467,2 0.483,2 0.8372,2 1.1076,2 1.3728,2 1.6239,2 1.8534,2 2.055,2 2.2236,2 2.3552,2 2.4473,2 2.4979,2 2.5068,2 2.4742,2 2.4017,2 2.2917,2 2.1476,2 1.9736,2 1.7749,2 1.5575,2 1.3279,2 1.0938,2 0.8635,2 0.6457,2 0.4499,2 0.2863,2 0.1658,2 0.0994,2 0.0969,2 0.125,2 0.1473,2 0.1683,2 0.1933,2 0.2258,2 0.2689,2 0.3241,2 0.3924,2 0.4735,2 0.5669,2 0.671,2 0.7842,2 0.904,2 1.0277,2 1.1528,2 1.2762,2 1.395,2 1.5063,2 1.6076,2 1.6966,2 1.7714,2 1.8306,2 1.8733,2 1.8997,2 1.9104,2 1.9072,2 1.8925,2 1.8707,2 1.8463,2 1.826,2 1.8178,2 1.8387,2 1.902,2 1.996,2 2.1078,2 2.2265,2 2.3429,2"
         inkscape:connector-curvature="0"
         style="fill:none;stroke:#000000;stroke-width:0.2" />
      <path
         id="path14245"
         d="m 45.637,0 -2.4462,2 -2.434,2 -2.4101,2 -2.375,2 -2.3294,2 -2.274,2 -2.2096,2 -2.1372,2 -2.0575,2 -1.972,2 -1.8811,2 -1.7863,2 -1.6884,2 -1.5885,2 -1.4876,2 -1.3867,2 -1.2865,2 -1.1881,2 -1.0921,2 -0.9992,2 -0.91,2 -0.8248,2 -0.744,2 -0.6679,2 -0.5961,2 -0.5288,2 -0.4656,2 -0.4056,2 -0.3484,2 -0.2928,2 -0.2377,2 -0.1756,2 -0.0614,2 0.1153,2 0.3372,2 0.5891,2 0.8572,2 1.1294,2 1.3948,2 1.6445,2 1.8706,2 2.0669,2 2.228,2 2.3507,2 2.4321,2 2.4709,2 2.467,2 2.421,2 2.3352,2 2.2119,2 2.0554,2 1.8699,2 1.6612,2 1.4352,2 1.1991,2 0.9602,2 0.7272,2 0.5083,2 0.3132,2 0.1514,2 0.0333,2 -0.0309,2 -0.032,2 -0.0045,2 0.0159,2 0.0352,2 0.0596,2 0.0937,2 0.1407,2 0.2028,2 0.2807,2 0.3746,2 0.483,2 0.6048,2 0.7371,2 0.8773,2 1.0222,2 1.1682,2 1.312,2 1.4497,2 1.578,2 1.6939,2 1.7943,2 1.8774,2 1.9411,2 1.9849,2 2.0088,2 2.0138,2 2.0024,2 1.9777,2 1.945,2 1.9106,2 1.8828,2 1.8712,2 1.8905,2 1.946,2 2.0258,2 2.1188,2 2.2153,2 2.3072,2"
         inkscape:connector-curvature="0"
         style="fill:none;stroke:#000000;stroke-width:0.2" />
      <path
         id="path14247"
         d="m 52.5512,0 -2.6258,2 -2.6136,2 -2.5883,2 -2.5486,2 -2.4947,2 -2.4265,2 -2.3448,2 -2.2504,2 -2.1448,2 -2.0294,2 -1.9062,2 -1.7769,2 -1.6438,2 -1.5088,2 -1.3742,2 -1.2421,2 -1.1142,2 -0.9927,2 -0.8791,2 -0.7746,2 -0.6806,2 -0.5976,2 -0.526,2 -0.4656,2 -0.4158,2 -0.3754,2 -0.3425,2 -0.3146,2 -0.2887,2 -0.2605,2 -0.2253,2 -0.173,2 -0.0631,2 0.1095,2 0.3272,2 0.5743,2 0.8364,2 1.1013,2 1.3582,2 1.5978,2 1.8127,2 1.9965,2 2.1448,2 2.2537,2 2.3213,2 2.3466,2 2.3297,2 2.272,2 2.1755,2 2.0436,2 1.8801,2 1.69,2 1.479,2 1.2533,2 1.0196,2 0.7855,2 0.5591,2 0.3483,2 0.1622,2 0.0095,2 -0.1005,2 -0.1586,2 -0.157,2 -0.1299,2 -0.1107,2 -0.0919,2 -0.067,2 -0.0303,2 0.0219,2 0.0918,2 0.1801,2 0.287,2 0.411,2 0.55,2 0.7011,2 0.8612,2 1.0261,2 1.192,2 1.3546,2 1.5096,2 1.6533,2 1.7818,2 1.892,2 1.9814,2 2.048,2 2.0912,2 2.1111,2 2.1093,2 2.0883,2 2.0529,2 2.0086,2 1.9638,2 1.9279,2 1.913,2 1.9306,2 1.9776,2 2.0426,2 2.116,2 2.189,2 2.2554,2"
         inkscape:connector-curvature="0"
         style="fill:none;stroke:#000000;stroke-width:0.2" />
      <path
         id="path14249"
         d="m 59.9778,0 -2.7679,2 -2.7546,2 -2.7257,2 -2.6793,2 -2.6146,2 -2.5316,2 -2.4309,2 -2.3137,2 -2.1818,2 -2.0373,2 -1.8829,2 -1.7215,2 -1.5559,2 -1.3894,2 -1.2252,2 -1.0663,2 -0.9156,2 -0.7759,2 -0.6495,2 -0.5384,2 -0.4442,2 -0.3675,2 -0.3088,2 -0.2675,2 -0.2422,2 -0.2306,2 -0.2296,2 -0.2346,2 -0.2403,2 -0.2397,2 -0.2247,2 -0.1825,2 -0.0796,2 0.0843,2 0.2916,2 0.5263,2 0.7744,2 1.0238,2 1.2639,2 1.4859,2 1.6827,2 1.8483,2 1.9786,2 2.0704,2 2.1222,2 2.1333,2 2.1042,2 2.0367,2 1.9332,2 1.7971,2 1.6328,2 1.445,2 1.2394,2 1.0221,2 0.7997,2 0.5792,2 0.368,2 0.1737,2 0.0039,2 -0.1333,2 -0.2301,2 -0.2789,2 -0.2735,2 -0.2464,2 -0.2278,2 -0.2093,2 -0.1831,2 -0.1435,2 -0.0861,2 -0.0089,2 0.0894,2 0.2083,2 0.3463,2 0.5008,2 0.6688,2 0.8463,2 1.0289,2 1.212,2 1.391,2 1.5608,2 1.7175,2 1.8564,2 1.9745,2 2.0686,2 2.1371,2 2.1788,2 2.1943,2 2.1855,2 2.1556,2 2.1097,2 2.0549,2 2.0003,2 1.9571,2 1.9393,2 1.9552,2 1.9942,2 2.0455,2 2.1002,2 2.1517,2 2.1939,2"
         inkscape:connector-curvature="0"
         style="fill:none;stroke:#000000;stroke-width:0.2" />
      <path
         id="path14251"
         d="m 67.6653,0 -2.8617,2 -2.8462,2 -2.8121,2 -2.7571,2 -2.6802,2 -2.5815,2 -2.4615,2 -2.3219,2 -2.1653,2 -1.9941,2 -1.812,2 -1.6225,2 -1.4295,2 -1.237,2 -1.049,2 -0.8696,2 -0.7022,2 -0.5505,2 -0.4173,2 -0.3047,2 -0.215,2 -0.1486,2 -0.1058,2 -0.0858,2 -0.0861,2 -0.104,2 -0.1343,2 -0.1714,2 -0.2074,2 -0.2333,2 -0.2376,2 -0.2056,2 -0.1118,2 0.0394,2 0.2309,2 0.4471,2 0.6748,2 0.902,2 1.1191,2 1.3177,2 1.4912,2 1.6345,2 1.7437,2 1.8164,2 1.8515,2 1.8487,2 1.8091,2 1.7345,2 1.6277,2 1.4923,2 1.3325,2 1.1533,2 0.9598,2 0.758,2 0.5541,2 0.3544,2 0.1654,2 -0.0061,2 -0.1537,2 -0.2705,2 -0.3505,2 -0.3876,2 -0.3774,2 -0.3504,2 -0.3322,2 -0.3138,2 -0.2867,2 -0.2447,2 -0.1832,2 -0.1,2 0.0061,2 0.1344,2 0.2836,2 0.4505,2 0.6318,2 0.823,2 1.0197,2 1.2164,2 1.4081,2 1.5899,2 1.7565,2 1.9038,2 2.0278,2 2.1257,2 2.1952,2 2.2358,2 2.2477,2 2.2332,2 2.196,2 2.1418,2 2.0784,2 2.0162,2 1.9673,2 1.9472,2 1.962,2 1.9946,2 2.0345,2 2.074,2 2.1075,2 2.13,2"
         inkscape:connector-curvature="0"
         style="fill:none;stroke:#000000;stroke-width:0.2" />
      <path
         id="path14253"
         d="m 75.3626,0 -2.9015,2 -2.883,2 -2.8424,2 -2.7779,2 -2.6883,2 -2.5738,2 -2.4356,2 -2.2758,2 -2.0974,2 -1.9037,2 -1.6988,2 -1.487,2 -1.273,2 -1.0614,2 -0.8569,2 -0.6641,2 -0.4872,2 -0.3299,2 -0.1958,2 -0.0873,2 -0.0061,2 0.0466,2 0.0712,2 0.0692,2 0.0431,2 -0.0028,2 -0.0628,2 -0.1293,2 -0.1931,2 -0.2428,2 -0.2649,2 -0.2429,2 -0.1599,2 -0.0242,2 0.1479,2 0.3415,2 0.5442,2 0.7451,2 0.9351,2 1.107,2 1.2545,2 1.3733,2 1.4604,2 1.5138,2 1.5326,2 1.5175,2 1.4694,2 1.3907,2 1.2843,2 1.1537,2 1.0032,2 0.8372,2 0.6612,2 0.4801,2 0.2998,2 0.1257,2 -0.0365,2 -0.1812,2 -0.3028,2 -0.3967,2 -0.4576,2 -0.4817,2 -0.4665,2 -0.4394,2 -0.4218,2 -0.404,2 -0.3769,2 -0.3338,2 -0.2703,2 -0.1838,2 -0.0729,2 0.0613,2 0.2175,2 0.3924,2 0.5825,2 0.7831,2 0.989,2 1.1951,2 1.3958,2 1.5858,2 1.7596,2 1.913,2 2.0416,2 2.1425,2 2.2135,2 2.2538,2 2.2638,2 2.2461,2 2.2045,2 2.1452,2 2.0766,2 2.0096,2 1.9572,2 1.9361,2 1.9503,2 1.9789,2 2.011,2 2.0404,2 2.0616,2 2.0708,2"
         inkscape:connector-curvature="0"
         style="fill:none;stroke:#000000;stroke-width:0.2" />
      <path
         id="path14255"
         d="m 82.863,0 -2.8883,2 -2.866,2 -2.8187,2 -2.7442,2 -2.6421,2 -2.5131,2 -2.3588,2 -2.1819,2 -1.9857,2 -1.7746,2 -1.5527,2 -1.3253,2 -1.0972,2 -0.8739,2 -0.6602,2 -0.4614,2 -0.2818,2 -0.1255,2 0.004,2 0.104,2 0.1727,2 0.2096,2 0.215,2 0.1908,2 0.1404,2 0.0685,2 -0.0178,2 -0.1104,2 -0.1982,2 -0.2686,2 -0.3064,2 -0.2941,2 -0.2226,2 -0.1038,2 0.0467,2 0.2156,2 0.3914,2 0.5642,2 0.7259,2 0.8698,2 0.991,2 1.0857,2 1.1512,2 1.1863,2 1.1909,2 1.1654,2 1.1116,2 1.0318,2 0.9288,2 0.8063,2 0.6683,2 0.5192,2 0.3636,2 0.2064,2 0.0522,2 -0.0937,2 -0.2272,2 -0.3432,2 -0.438,2 -0.5078,2 -0.5494,2 -0.5603,2 -0.5399,2 -0.5129,2 -0.4965,2 -0.4799,2 -0.4542,2 -0.4122,2 -0.3492,2 -0.2625,2 -0.1507,2 -0.0147,2 0.1439,2 0.3221,2 0.5161,2 0.7209,2 0.9317,2 1.1427,2 1.3485,2 1.5432,2 1.7217,2 1.8793,2 2.0115,2 2.1153,2 2.1885,2 2.2301,2 2.2409,2 2.2229,2 2.1805,2 2.1201,2 2.05,2 1.9816,2 1.9285,2 1.9073,2 1.9221,2 1.949,2 1.978,2 2.0029,2 2.0186,2 2.0217,2"
         inkscape:connector-curvature="0"
         style="fill:none;stroke:#000000;stroke-width:0.2" />
      <path
         id="path14257"
         d="m 90.0581,0 -2.8311,2 -2.8051,2 -2.7506,2 -2.6666,2 -2.553,2 -2.411,2 -2.2432,2 -2.0524,2 -1.8428,2 -1.619,2 -1.3858,2 -1.1487,2 -0.913,2 -0.6843,2 -0.4681,2 -0.2694,2 -0.0929,2 0.0573,2 0.1777,2 0.2656,2 0.3195,2 0.3391,2 0.3249,2 0.2795,2 0.2065,2 0.1114,2 0.0019,2 -0.1129,2 -0.2212,2 -0.3091,2 -0.3604,2 -0.3573,2 -0.2976,2 -0.1963,2 -0.0677,2 0.0764,2 0.2253,2 0.3702,2 0.5041,2 0.6213,2 0.7173,2 0.7894,2 0.8352,2 0.8544,2 0.8469,2 0.8136,2 0.7565,2 0.6779,2 0.5808,2 0.4687,2 0.3452,2 0.2147,2 0.0809,2 -0.0515,2 -0.1786,2 -0.2962,2 -0.4007,2 -0.4887,2 -0.557,2 -0.6036,2 -0.6264,2 -0.6247,2 -0.5995,2 -0.5727,2 -0.5579,2 -0.5437,2 -0.5208,2 -0.482,2 -0.422,2 -0.3382,2 -0.229,2 -0.0952,2 0.0618,2 0.2389,2 0.4324,2 0.6374,2 0.8488,2 1.0611,2 1.2685,2 1.4655,2 1.6466,2 1.807,2 1.9423,2 2.0494,2 2.1257,2 2.1707,2 2.1844,2 2.1694,2 2.1298,2 2.0717,2 2.0039,2 1.9371,2 1.8856,2 1.8658,2 1.8815,2 1.9095,2 1.9394,2 1.9651,2 1.9816,2 1.9856,2"
         inkscape:connector-curvature="0"
         style="fill:none;stroke:#000000;stroke-width:0.2" />
      <path
         id="path14259"
         d="m 97.0012,0 -2.7489,2 -2.7192,2 -2.6579,2 -2.5646,2 -2.4405,2 -2.2869,2 -2.1074,2 -1.9051,2 -1.685,2 -1.4516,2 -1.2107,2 -0.9676,2 -0.7284,2 -0.4984,2 -0.2834,2 -0.0885,2 0.0815,2 0.2225,2 0.3313,2 0.4053,2 0.4432,2 0.4448,2 0.4112,2 0.3452,2 0.2509,2 0.1346,2 0.004,2 -0.1304,2 -0.2569,2 -0.3603,2 -0.4237,2 -0.4294,2 -0.3815,2 -0.2975,2 -0.1901,2 -0.0704,2 0.0524,2 0.1706,2 0.278,2 0.3698,2 0.4424,2 0.4935,2 0.5217,2 0.5266,2 0.5088,2 0.4696,2 0.4109,2 0.3352,2 0.2452,2 0.1446,2 0.0367,2 -0.0749,2 -0.1862,2 -0.2939,2 -0.3942,2 -0.4839,2 -0.5603,2 -0.6209,2 -0.6639,2 -0.688,2 -0.6931,2 -0.6796,2 -0.6497,2 -0.6233,2 -0.6104,2 -0.5994,2 -0.5803,2 -0.5458,2 -0.4906,2 -0.4116,2 -0.3072,2 -0.1778,2 -0.025,2 0.1485,2 0.3389,2 0.5415,2 0.7514,2 0.9628,2 1.1702,2 1.3679,2 1.5506,2 1.7132,2 1.8515,2 1.962,2 2.0426,2 2.0919,2 2.1105,2 2.1004,2 2.0657,2 2.0124,2 1.9487,2 1.8859,2 1.8373,2 1.8194,2 1.8366,2 1.8671,2 1.9004,2 1.9301,2 1.9514,2 1.9603,2"
         inkscape:connector-curvature="0"
         style="fill:none;stroke:#000000;stroke-width:0.2" />
      <path
         id="path14261"
         d="m 103.844,0 -2.6632,2 -2.6294,2 -2.561,2 -2.4583,2 -2.3231,2 -2.158,2 -1.9664,2 -1.7528,2 -1.522,2 -1.2796,2 -1.0312,2 -0.7829,2 -0.5404,2 -0.3101,2 -0.0971,2 0.0929,2 0.2555,2 0.3865,2 0.4827,2 0.5418,2 0.5627,2 0.5457,2 0.4919,2 0.4048,2 0.2889,2 0.1508,2 -8e-4,2 -0.1553,2 -0.2996,2 -0.4186,2 -0.494,2 -0.5084,2 -0.4721,2 -0.4052,2 -0.319,2 -0.2233,2 -0.1261,2 -0.0342,2 0.0475,2 0.1148,2 0.1647,2 0.196,2 0.2075,2 0.1993,2 0.1726,2 0.1284,2 0.0693,2 -0.0026,2 -0.0842,2 -0.1726,2 -0.2642,2 -0.3561,2 -0.4447,2 -0.5272,2 -0.6006,2 -0.6625,2 -0.7109,2 -0.7444,2 -0.7624,2 -0.7647,2 -0.7523,2 -0.7271,2 -0.6929,2 -0.667,2 -0.6563,2 -0.6485,2 -0.6339,2 -0.6043,2 -0.5548,2 -0.4815,2 -0.3831,2 -0.2596,2 -0.1122,2 0.0562,2 0.2421,2 0.4411,2 0.6478,2 0.8573,2 1.0636,2 1.2612,2 1.4447,2 1.6093,2 1.7504,2 1.8648,2 1.9498,2 2.0044,2 2.0287,2 2.0247,2 1.9962,2 1.9489,2 1.891,2 1.833,2 1.7882,2 1.7725,2 1.7913,2 1.8239,2 1.8607,2 1.8944,2 1.9204,2 1.9344,2"
         inkscape:connector-curvature="0"
         style="fill:none;stroke:#000000;stroke-width:0.2" />
      <path
         id="path14263"
         d="m 110.536,0 -2.5773,2 -2.5388,2 -2.462,2 -2.3483,2 -2.2003,2 -2.0216,2 -1.8162,2 -1.5895,2 -1.3466,2 -1.0939,2 -0.8372,2 -0.5829,2 -0.3374,2 -0.1067,2 0.1036,2 0.2881,2 0.4419,2 0.5614,2 0.6432,2 0.6857,2 0.6875,2 0.6497,2 0.5737,2 0.4633,2 0.3237,2 0.1622,2 -0.0122,2 -0.1879,2 -0.3515,2 -0.4864,2 -0.5744,2 -0.5972,2 -0.5725,2 -0.5226,2 -0.4572,2 -0.3851,2 -0.3127,2 -0.2458,2 -0.1885,2 -0.144,2 -0.1143,2 -0.1008,2 -0.1033,2 -0.1218,2 -0.155,2 -0.201,2 -0.2581,2 -0.3235,2 -0.3946,2 -0.4687,2 -0.5425,2 -0.6135,2 -0.6787,2 -0.7357,2 -0.7824,2 -0.8171,2 -0.8386,2 -0.8464,2 -0.8407,2 -0.8228,2 -0.7943,2 -0.7586,2 -0.7203,2 -0.6952,2 -0.6867,2 -0.6831,2 -0.6738,2 -0.6509,2 -0.6092,2 -0.5444,2 -0.4553,2 -0.3411,2 -0.2034,2 -0.0443,2 0.1327,2 0.3234,2 0.5231,2 0.7264,2 0.9281,2 1.1225,2 1.3045,2 1.4693,2 1.6124,2 1.7303,2 1.8208,2 1.882,2 1.9145,2 1.9195,2 1.9005,2 1.8628,2 1.8142,2 1.7643,2 1.7256,2 1.7134,2 1.7332,2 1.7673,2 1.8056,2 1.8419,2 1.8709,2 1.8887,2"
         inkscape:connector-curvature="0"
         style="fill:none;stroke:#000000;stroke-width:0.2" />
      <path
         id="path14265"
         d="m 116.9901,0 -2.4919,2 -2.4479,2 -2.3613,2 -2.2348,2 -2.0721,2 -1.8777,2 -1.6569,2 -1.4151,2 -1.1591,2 -0.8948,2 -0.6292,2 -0.3688,2 -0.1203,2 0.1103,2 0.3169,2 0.4944,2 0.6381,2 0.7441,2 0.8097,2 0.8332,2 0.814,2 0.753,2 0.6526,2 0.517,2 0.352,2 0.1652,2 -0.0332,2 -0.2312,2 -0.4146,2 -0.5662,2 -0.6665,2 -0.6977,2 -0.6843,2 -0.6506,2 -0.6053,2 -0.5552,2 -0.5059,2 -0.4615,2 -0.4257,2 -0.4005,2 -0.3876,2 -0.3874,2 -0.3999,2 -0.4242,2 -0.4592,2 -0.5033,2 -0.5541,2 -0.6096,2 -0.6672,2 -0.7244,2 -0.7788,2 -0.8278,2 -0.8693,2 -0.9014,2 -0.9227,2 -0.9321,2 -0.9292,2 -0.9143,2 -0.8881,2 -0.8529,2 -0.8111,2 -0.7669,2 -0.7255,2 -0.7008,2 -0.6948,2 -0.6953,2 -0.6922,2 -0.6776,2 -0.6457,2 -0.5926,2 -0.5165,2 -0.4165,2 -0.2934,2 -0.1495,2 0.0127,2 0.189,2 0.3753,2 0.5667,2 0.7582,2 0.9447,2 1.121,2 1.2829,2 1.4257,2 1.5464,2 1.6422,2 1.7116,2 1.7543,2 1.7716,2 1.7661,2 1.7426,2 1.7076,2 1.6699,2 1.6405,2 1.6332,2 1.6539,2 1.6876,2 1.7256,2 1.7619,2 1.7918,2 1.8116,2"
         inkscape:connector-curvature="0"
         style="fill:none;stroke:#000000;stroke-width:0.2" />
      <path
         id="path14267"
         d="m 123.1313,0 -2.4081,2 -2.3579,2 -2.2608,2 -2.1206,2 -1.9422,2 -1.7313,2 -1.494,2 -1.2371,2 -0.9673,2 -0.6918,2 -0.4175,2 -0.1517,2 0.099,2 0.3281,2 0.53,2 0.6989,2 0.8309,2 0.9219,2 0.9697,2 0.9727,2 0.931,2 0.8457,2 0.72,2 0.5583,2 0.3672,2 0.1551,2 -0.0674,2 -0.2876,2 -0.4904,2 -0.658,2 -0.7701,2 -0.8095,2 -0.8064,2 -0.7879,2 -0.7609,2 -0.7303,2 -0.7007,2 -0.6752,2 -0.6565,2 -0.6459,2 -0.6444,2 -0.6521,2 -0.6689,2 -0.6936,2 -0.7252,2 -0.7621,2 -0.8023,2 -0.8439,2 -0.8849,2 -0.9232,2 -0.9566,2 -0.9833,2 -1.0019,2 -1.0108,2 -1.0092,2 -0.9968,2 -0.9735,2 -0.9402,2 -0.8983,2 -0.8503,2 -0.7991,2 -0.749,2 -0.7055,2 -0.6812,2 -0.6766,2 -0.6807,2 -0.6833,2 -0.6772,2 -0.6562,2 -0.6167,2 -0.5564,2 -0.4741,2 -0.3705,2 -0.2467,2 -0.1053,2 0.0505,2 0.217,2 0.3902,2 0.5653,2 0.738,2 0.9037,2 1.0583,2 1.1976,2 1.3186,2 1.4187,2 1.4961,2 1.5504,2 1.5819,2 1.593,2 1.5871,2 1.5694,2 1.5474,2 1.5302,2 1.5292,2 1.5502,2 1.582,2 1.6174,2 1.6514,2 1.6799,2 1.6998,2"
         inkscape:connector-curvature="0"
         style="fill:none;stroke:#000000;stroke-width:0.2" />
      <path
         id="path14269"
         d="m 128.8983,0 -2.3271,2 -2.271,2 -2.1634,2 -2.0097,2 -1.8162,2 -1.5895,2 -1.337,2 -1.0659,2 -0.7838,2 -0.4985,2 -0.2173,2 0.0522,2 0.3033,2 0.5295,2 0.7246,2 0.8839,2 1.0026,2 1.0778,2 1.107,2 1.0892,2 1.0249,2 0.9157,2 0.7653,2 0.5787,2 0.3629,2 0.1271,2 -0.1177,2 -0.3583,2 -0.5785,2 -0.7606,2 -0.8836,2 -0.9299,2 -0.9364,2 -0.9311,2 -0.9195,2 -0.9051,2 -0.8909,2 -0.8795,2 -0.8722,2 -0.8702,2 -0.8739,2 -0.8834,2 -0.8979,2 -0.9171,2 -0.9396,2 -0.9642,2 -0.9894,2 -1.0136,2 -1.0353,2 -1.0529,2 -1.0649,2 -1.0702,2 -1.0674,2 -1.056,2 -1.0355,2 -1.0057,2 -0.9675,2 -0.9215,2 -0.8696,2 -0.8142,2 -0.7581,2 -0.7053,2 -0.6611,2 -0.6363,2 -0.632,2 -0.6375,2 -0.6441,2 -0.6448,2 -0.634,2 -0.6079,2 -0.5642,2 -0.5016,2 -0.4198,2 -0.32,2 -0.2037,2 -0.0733,2 0.068,2 0.2171,2 0.3702,2 0.5234,2 0.6729,2 0.8153,2 0.9468,2 1.0646,2 1.1663,2 1.25,2 1.3149,2 1.3611,2 1.3896,2 1.4028,2 1.4048,2 1.4004,2 1.3971,2 1.4033,2 1.4242,2 1.4526,2 1.4835,2 1.513,2 1.5382,2 1.5567,2"
         inkscape:connector-curvature="0"
         style="fill:none;stroke:#000000;stroke-width:0.2" />
      <path
         id="path14271"
         d="m 134.2445,0 -2.2505,2 -2.1891,2 -2.0723,2 -1.9069,2 -1.7003,2 -1.4605,2 -1.1953,2 -0.913,2 -0.6218,2 -0.3296,2 -0.0445,2 0.226,2 0.4751,2 0.6959,2 0.8829,2 1.031,2 1.136,2 1.195,2 1.2059,2 1.1684,2 1.083,2 0.9521,2 0.7795,2 0.5709,2 0.3339,2 0.0778,2 -0.1857,2 -0.4428,2 -0.6776,2 -0.8714,2 -1.003,2 -1.0556,2 -1.0701,2 -1.0758,2 -1.0761,2 -1.0735,2 -1.0698,2 -1.0665,2 -1.0647,2 -1.0648,2 -1.0672,2 -1.0717,2 -1.078,2 -1.0856,2 -1.0936,2 -1.1012,2 -1.1076,2 -1.1115,2 -1.1122,2 -1.1085,2 -1.0996,2 -1.0849,2 -1.0637,2 -1.0357,2 -1.0009,2 -0.9596,2 -0.9123,2 -0.86,2 -0.8044,2 -0.7472,2 -0.6911,2 -0.6392,2 -0.5953,2 -0.5694,2 -0.563,2 -0.5671,2 -0.5742,2 -0.5785,2 -0.575,2 -0.5601,2 -0.5314,2 -0.4878,2 -0.4283,2 -0.3535,2 -0.2645,2 -0.1626,2 -0.0501,2 0.0707,2 0.1968,2 0.3256,2 0.454,2 0.5789,2 0.6978,2 0.8079,2 0.9072,2 0.9939,2 1.0667,2 1.1253,2 1.17,2 1.2018,2 1.2229,2 1.2368,2 1.2476,2 1.2613,2 1.2816,2 1.3056,2 1.3303,2 1.3539,2 1.3743,2 1.3907,2"
         inkscape:connector-curvature="0"
         style="fill:none;stroke:#000000;stroke-width:0.2" />
      <path
         id="path14273"
         d="m 139.1387,0 -2.1799,2 -2.1144,2 -1.9905,2 -1.8164,2 -1.6003,2 -1.3513,2 -1.0777,2 -0.7887,2 -0.4926,2 -0.1979,2 0.0874,2 0.3554,2 0.5995,2 0.8128,2 0.9899,2 1.1259,2 1.217,2 1.2605,2 1.2548,2 1.1996,2 1.0962,2 0.947,2 0.7567,2 0.5308,2 0.2775,2 0.006,2 -0.2707,2 -0.5397,2 -0.7844,2 -0.9863,2 -1.1243,2 -1.182,2 -1.2028,2 -1.2166,2 -1.2252,2 -1.2297,2 -1.2311,2 -1.2303,2 -1.2277,2 -1.2236,2 -1.2184,2 -1.212,2 -1.2043,2 -1.1951,2 -1.1842,2 -1.1713,2 -1.156,2 -1.1379,2 -1.1167,2 -1.0921,2 -1.0637,2 -1.0315,2 -0.9954,2 -0.9552,2 -0.9114,2 -0.8641,2 -0.814,2 -0.7618,2 -0.7084,2 -0.6553,2 -0.6037,2 -0.5555,2 -0.5135,2 -0.4855,2 -0.4742,2 -0.4731,2 -0.4765,2 -0.4796,2 -0.4787,2 -0.4706,2 -0.4534,2 -0.4256,2 -0.3863,2 -0.3354,2 -0.2731,2 -0.2004,2 -0.1182,2 -0.0281,2 0.0682,2 0.1688,2 0.2716,2 0.3748,2 0.476,2 0.5735,2 0.6654,2 0.7503,2 0.8267,2 0.8937,2 0.951,2 0.9985,2 1.0366,2 1.0668,2 1.0908,2 1.1113,2 1.1309,2 1.1497,2 1.1676,2 1.1842,2 1.1994,2 1.2131,2"
         inkscape:connector-curvature="0"
         style="fill:none;stroke:#000000;stroke-width:0.2" />
      <path
         id="path14275"
         d="m 143.5661,0 -2.117,2 -2.0488,2 -1.9206,2 -1.7415,2 -1.5206,2 -1.2672,2 -0.9907,2 -0.7001,2 -0.4043,2 -0.1118,2 0.1693,2 0.4312,2 0.6671,2 0.8708,2 1.0366,2 1.1602,2 1.238,2 1.2674,2 1.2474,2 1.178,2 1.0605,2 0.8982,2 0.6951,2 0.458,2 0.1944,2 -0.0855,2 -0.3699,2 -0.6452,2 -0.8949,2 -1.1009,2 -1.2424,2 -1.3038,2 -1.3294,2 -1.3486,2 -1.3615,2 -1.3687,2 -1.3703,2 -1.3664,2 -1.3577,2 -1.344,2 -1.326,2 -1.3037,2 -1.2776,2 -1.248,2 -1.2151,2 -1.1792,2 -1.1409,2 -1.1002,2 -1.0575,2 -1.0133,2 -0.9677,2 -0.921,2 -0.8737,2 -0.826,2 -0.778,2 -0.7304,2 -0.683,2 -0.6364,2 -0.5906,2 -0.5462,2 -0.5029,2 -0.4614,2 -0.4219,2 -0.3908,2 -0.372,2 -0.3617,2 -0.3561,2 -0.3526,2 -0.3484,2 -0.3414,2 -0.3302,2 -0.3132,2 -0.2897,2 -0.259,2 -0.2209,2 -0.1754,2 -0.1227,2 -0.0634,2 0.002,2 0.0723,2 0.1468,2 0.2245,2 0.3039,2 0.3839,2 0.4634,2 0.5409,2 0.6152,2 0.6853,2 0.7499,2 0.8082,2 0.8592,2 0.9023,2 0.9372,2 0.9634,2 0.9819,2 0.9954,2 1.0063,2 1.016,2 1.0261,2 1.0374,2"
         inkscape:connector-curvature="0"
         style="fill:none;stroke:#000000;stroke-width:0.2" />
      <path
         id="path14277"
         d="m 147.528,0 -2.0628,2 -1.9938,2 -1.8644,2 -1.6844,2 -1.4635,2 -1.2112,2 -0.9372,2 -0.6505,2 -0.3602,2 -0.0747,2 0.198,2 0.4502,2 0.6755,2 0.8676,2 1.0215,2 1.1328,2 1.1984,2 1.216,2 1.1848,2 1.1051,2 0.9784,2 0.808,2 0.5985,2 0.3562,2 0.0891,2 -0.1932,2 -0.4789,2 -0.7543,2 -1.004,2 -1.21,2 -1.3524,2 -1.416,2 -1.4449,2 -1.4668,2 -1.4809,2 -1.4869,2 -1.4845,2 -1.4735,2 -1.4543,2 -1.4272,2 -1.3928,2 -1.3515,2 -1.3044,2 -1.2523,2 -1.1961,2 -1.1367,2 -1.0754,2 -1.0128,2 -0.9503,2 -0.8885,2 -0.8283,2 -0.7705,2 -0.7157,2 -0.6644,2 -0.6167,2 -0.573,2 -0.5328,2 -0.496,2 -0.4618,2 -0.4293,2 -0.3972,2 -0.3638,2 -0.3277,2 -0.2926,2 -0.2637,2 -0.24,2 -0.2208,2 -0.2048,2 -0.1912,2 -0.1788,2 -0.1669,2 -0.1545,2 -0.1407,2 -0.1247,2 -0.1061,2 -0.0838,2 -0.0576,2 -0.027,2 0.008,2 0.0486,2 0.0937,2 0.1436,2 0.1981,2 0.2566,2 0.3187,2 0.3835,2 0.4497,2 0.5166,2 0.5822,2 0.6453,2 0.7037,2 0.7552,2 0.7976,2 0.8279,2 0.8451,2 0.8537,2 0.8581,2 0.8617,2 0.8674,2 0.8771,2"
         inkscape:connector-curvature="0"
         style="fill:none;stroke:#000000;stroke-width:0.2" />
      <path
         id="path14279"
         d="m 151.0426,0 -2.0184,2 -1.9502,2 -1.8226,2 -1.6458,2 -1.4294,2 -1.1832,2 -0.9167,2 -0.6389,2 -0.3587,2 -0.0843,2 0.1764,2 0.4164,2 0.629,2 0.8086,2 0.9503,2 1.0503,2 1.1054,2 1.1138,2 1.0748,2 0.9889,2 0.8579,2 0.6849,2 0.4748,2 0.2333,2 -0.0312,2 -0.3098,2 -0.5908,2 -0.8613,2 -1.1063,2 -1.3087,2 -1.4493,2 -1.5141,2 -1.545,2 -1.5674,2 -1.5802,2 -1.5824,2 -1.5733,2 -1.5526,2 -1.5206,2 -1.4782,2 -1.4257,2 -1.3646,2 -1.296,2 -1.2216,2 -1.1425,2 -1.0609,2 -0.9781,2 -0.8958,2 -0.8157,2 -0.739,2 -0.6673,2 -0.6014,2 -0.5423,2 -0.4905,2 -0.4462,2 -0.4093,2 -0.3789,2 -0.3543,2 -0.3335,2 -0.3147,2 -0.2947,2 -0.2704,2 -0.2377,2 -0.198,2 -0.1569,2 -0.1169,2 -0.0794,2 -0.0459,2 -0.0169,2 0.007,2 0.0266,2 0.0414,2 0.0523,2 0.0601,2 0.0658,2 0.0704,2 0.075,2 0.081,2 0.0894,2 0.1013,2 0.1179,2 0.1397,2 0.1677,2 0.2021,2 0.2429,2 0.29,2 0.3428,2 0.4,2 0.4605,2 0.5217,2 0.5814,2 0.636,2 0.682,2 0.7145,2 0.7304,2 0.7348,2 0.7339,2 0.7328,2 0.7355,2 0.7447,2"
         inkscape:connector-curvature="0"
         style="fill:none;stroke:#000000;stroke-width:0.2" />
      <path
         id="path14281"
         d="m 154.1449,0 -1.9844,2 -1.9182,2 -1.795,2 -1.6246,2 -1.4166,2 -1.1805,2 -0.9254,2 -0.6602,2 -0.3935,2 -0.1331,2 0.1134,2 0.3394,2 0.5384,2 0.7055,2 0.8358,2 0.9256,2 0.9725,2 0.9745,2 0.9312,2 0.8431,2 0.7122,2 0.5415,2 0.3355,2 0.1002,2 -0.1568,2 -0.4267,2 -0.6985,2 -0.9598,2 -1.1966,2 -1.3924,2 -1.5297,2 -1.5943,2 -1.6261,2 -1.6479,2 -1.6581,2 -1.6551,2 -1.6383,2 -1.6072,2 -1.5626,2 -1.5048,2 -1.4354,2 -1.3557,2 -1.2674,2 -1.1727,2 -1.0736,2 -0.9724,2 -0.8712,2 -0.7722,2 -0.6776,2 -0.5892,2 -0.5086,2 -0.4373,2 -0.3761,2 -0.3257,2 -0.2862,2 -0.257,2 -0.2371,2 -0.2247,2 -0.2173,2 -0.2117,2 -0.2034,2 -0.1876,2 -0.1582,2 -0.1133,2 -0.059,2 -4e-4,2 0.0582,2 0.1134,2 0.1625,2 0.2041,2 0.2371,2 0.2609,2 0.276,2 0.2827,2 0.2823,2 0.2759,2 0.2653,2 0.2522,2 0.2385,2 0.226,2 0.2166,2 0.212,2 0.2136,2 0.2226,2 0.2401,2 0.266,2 0.3007,2 0.3432,2 0.3922,2 0.4457,2 0.5006,2 0.5532,2 0.5986,2 0.6313,2 0.646,2 0.6473,2 0.6427,2 0.6387,2 0.6401,2 0.6504,2"
         inkscape:connector-curvature="0"
         style="fill:none;stroke:#000000;stroke-width:0.2" />
      <path
         id="path14283"
         d="m 156.8858,0 -1.9604,2 -1.8974,2 -1.7804,2 -1.6186,2 -1.4214,2 -1.1977,2 -0.9566,2 -0.7062,2 -0.4547,2 -0.2097,2 0.0219,2 0.2335,2 0.4195,2 0.5746,2 0.6949,2 0.7766,2 0.8175,2 0.816,2 0.7714,2 0.6846,2 0.5573,2 0.3925,2 0.1944,2 -0.0311,2 -0.2771,2 -0.535,2 -0.7946,2 -1.0442,2 -1.2705,2 -1.4582,2 -1.5905,2 -1.6546,2 -1.6866,2 -1.7072,2 -1.7147,2 -1.7068,2 -1.6831,2 -1.6432,2 -1.5877,2 -1.5174,2 -1.434,2 -1.3391,2 -1.2351,2 -1.1243,2 -1.0092,2 -0.8927,2 -0.7772,2 -0.6654,2 -0.5598,2 -0.4626,2 -0.3756,2 -0.3006,2 -0.2385,2 -0.1899,2 -0.1547,2 -0.1325,2 -0.1214,2 -0.1193,2 -0.1229,2 -0.1281,2 -0.1294,2 -0.1205,2 -0.0938,2 -0.0439,2 0.0241,2 0.1021,2 0.1833,2 0.2624,2 0.335,2 0.3981,2 0.4496,2 0.4883,2 0.5137,2 0.5261,2 0.5266,2 0.5164,2 0.4974,2 0.4718,2 0.442,2 0.4102,2 0.3793,2 0.3513,2 0.3286,2 0.3133,2 0.3066,2 0.3098,2 0.3235,2 0.3472,2 0.3803,2 0.4207,2 0.4657,2 0.5114,2 0.5528,2 0.5836,2 0.5974,2 0.5968,2 0.5905,2 0.5856,2 0.5878,2 0.6005,2"
         inkscape:connector-curvature="0"
         style="fill:none;stroke:#000000;stroke-width:0.2" />
      <path
         id="path14285"
         d="m 159.3324,0 -1.9457,2 -1.8866,2 -1.7765,2 -1.6243,2 -1.4388,2 -1.2286,2 -1.002,2 -0.7668,2 -0.5306,2 -0.3006,2 -0.0833,2 0.115,2 0.2892,2 0.4342,2 0.5464,2 0.6222,2 0.6595,2 0.6567,2 0.6136,2 0.5304,2 0.4092,2 0.2524,2 0.0646,2 -0.1494,2 -0.3827,2 -0.6271,2 -0.8734,2 -1.1104,2 -1.3255,2 -1.5044,2 -1.6315,2 -1.6943,2 -1.7263,2 -1.7464,2 -1.7519,2 -1.741,2 -1.7128,2 -1.6673,2 -1.6046,2 -1.5262,2 -1.4336,2 -1.3288,2 -1.2143,2 -1.0929,2 -0.9672,2 -0.8404,2 -0.7153,2 -0.5949,2 -0.4817,2 -0.3783,2 -0.287,2 -0.209,2 -0.1459,2 -0.0982,2 -0.0656,2 -0.0474,2 -0.0419,2 -0.0462,2 -0.0569,2 -0.0689,2 -0.0765,2 -0.0721,2 -0.0471,2 0.008,2 0.0886,2 0.1854,2 0.2891,2 0.3926,2 0.4901,2 0.577,2 0.6504,2 0.708,2 0.7487,2 0.7727,2 0.7803,2 0.7728,2 0.7524,2 0.721,2 0.6815,2 0.6366,2 0.5894,2 0.5427,2 0.4993,2 0.4618,2 0.4325,2 0.4129,2 0.4045,2 0.4073,2 0.4214,2 0.4451,2 0.4763,2 0.5115,2 0.5458,2 0.5732,2 0.5861,2 0.5851,2 0.579,2 0.5755,2 0.58,2 0.5969,2"
         inkscape:connector-curvature="0"
         style="fill:none;stroke:#000000;stroke-width:0.2" />
      <path
         id="path14287"
         d="m 161.5669,0 -1.9389,2 -1.8836,2 -1.7804,2 -1.6377,2 -1.4637,2 -1.2664,2 -1.0534,2 -0.8322,2 -0.61,2 -0.3935,2 -0.1887,2 -0.002,2 0.1628,2 0.3,2 0.4062,2 0.4782,2 0.514,2 0.512,2 0.4717,2 0.3939,2 0.2798,2 0.1322,2 -0.045,2 -0.2471,2 -0.4676,2 -0.6989,2 -0.9323,2 -1.1571,2 -1.3616,2 -1.5324,2 -1.6541,2 -1.7157,2 -1.7479,2 -1.7681,2 -1.7736,2 -1.7623,2 -1.7331,2 -1.6859,2 -1.621,2 -1.5397,2 -1.4435,2 -1.3347,2 -1.2157,2 -1.0895,2 -0.9587,2 -0.8268,2 -0.6967,2 -0.5714,2 -0.4539,2 -0.3464,2 -0.2517,2 -0.171,2 -0.106,2 -0.057,2 -0.0241,2 -0.006,2 -0.002,2 -0.008,2 -0.0207,2 -0.0351,2 -0.0448,2 -0.0422,2 -0.0179,2 0.0412,2 0.1337,2 0.2478,2 0.3727,2 0.4997,2 0.6217,2 0.7331,2 0.8297,2 0.9088,2 0.9682,2 1.0078,2 1.0274,2 1.0282,2 1.0121,2 0.9811,2 0.938,2 0.8859,2 0.828,2 0.7676,2 0.7077,2 0.6517,2 0.6021,2 0.5614,2 0.5312,2 0.5128,2 0.5064,2 0.5116,2 0.5267,2 0.5487,2 0.5741,2 0.5969,2 0.6092,2 0.609,2 0.6048,2 0.6044,2 0.613,2 0.635,2"
         inkscape:connector-curvature="0"
         style="fill:none;stroke:#000000;stroke-width:0.2" />
      <path
         id="path14289"
         d="m 163.6857,0 -1.9375,2 -1.8857,2 -1.7889,2 -1.6551,2 -1.4914,2 -1.3055,2 -1.1048,2 -0.8959,2 -0.6857,2 -0.4805,2 -0.2862,2 -0.1082,2 0.0487,2 0.1799,2 0.282,2 0.3521,2 0.3877,2 0.3876,2 0.3513,2 0.2791,2 0.1726,2 0.034,2 -0.1331,2 -0.3239,2 -0.5326,2 -0.752,2 -0.9738,2 -1.1877,2 -1.3828,2 -1.5462,2 -1.6633,2 -1.7236,2 -1.7563,2 -1.7778,2 -1.7852,2 -1.776,2 -1.7491,2 -1.7042,2 -1.6413,2 -1.5618,2 -1.4671,2 -1.3593,2 -1.2409,2 -1.1145,2 -0.9835,2 -0.8505,2 -0.719,2 -0.5917,2 -0.4719,2 -0.3619,2 -0.2641,2 -0.1804,2 -0.112,2 -0.0599,2 -0.0236,2 -0.003,2 0.005,2 0.001,2 -0.009,2 -0.0218,2 -0.0302,2 -0.0269,2 -0.002,2 0.0605,2 0.1633,2 0.2927,2 0.4369,2 0.5857,2 0.7312,2 0.8663,2 0.9865,2 1.0876,2 1.1676,2 1.225,2 1.2598,2 1.2726,2 1.2648,2 1.2386,2 1.1966,2 1.1419,2 1.0779,2 1.0079,2 0.9355,2 0.8643,2 0.7972,2 0.7373,2 0.6869,2 0.6478,2 0.6211,2 0.6071,2 0.605,2 0.613,2 0.6281,2 0.6458,2 0.6577,2 0.6591,2 0.6582,2 0.662,2 0.6759,2 0.7036,2"
         inkscape:connector-curvature="0"
         style="fill:none;stroke:#000000;stroke-width:0.2" />
      <path
         id="path14291"
         d="m 165.8055,0 -1.9382,2 -1.8897,2 -1.7991,2 -1.6734,2 -1.5195,2 -1.3445,2 -1.155,2 -0.9574,2 -0.7583,2 -0.5634,2 -0.3783,2 -0.2085,2 -0.0581,2 0.0681,2 0.1672,2 0.2358,2 0.272,2 0.2743,2 0.2422,2 0.176,2 0.0769,2 -0.053,2 -0.2102,2 -0.3903,2 -0.5879,2 -0.7962,2 -1.0069,2 -1.2109,2 -1.3972,2 -1.5538,2 -1.6666,2 -1.7256,2 -1.759,2 -1.7825,2 -1.7926,2 -1.787,2 -1.764,2 -1.7232,2 -1.6645,2 -1.5891,2 -1.4982,2 -1.3937,2 -1.2783,2 -1.1542,2 -1.0247,2 -0.8927,2 -0.7612,2 -0.6335,2 -0.5121,2 -0.4,2 -0.2995,2 -0.2122,2 -0.1399,2 -0.0833,2 -0.0423,2 -0.0165,2 -0.004,2 -0.003,2 -0.009,2 -0.0177,2 -0.0232,2 -0.0179,2 0.007,2 0.0735,2 0.1858,2 0.3296,2 0.4919,2 0.6616,2 0.8294,2 0.9879,2 1.131,2 1.2545,2 1.3552,2 1.4313,2 1.4823,2 1.5082,2 1.5105,2 1.4908,2 1.4519,2 1.3966,2 1.3283,2 1.2509,2 1.1679,2 1.083,2 1,2 0.9221,2 0.8524,2 0.7933,2 0.7467,2 0.7136,2 0.6943,2 0.6879,2 0.6926,2 0.7051,2 0.7164,2 0.72,2 0.7225,2 0.7313,2 0.7508,2 0.7843,2"
         inkscape:connector-curvature="0"
         style="fill:none;stroke:#000000;stroke-width:0.2" />
      <path
         id="path14293"
         d="m 168.1791,0 -1.9379,2 -1.8935,2 -1.8102,2 -1.694,2 -1.5516,2 -1.3889,2 -1.2122,2 -1.0275,2 -0.8405,2 -0.6568,2 -0.4819,2 -0.3202,2 -0.1767,2 -0.0549,2 0.0414,2 0.1096,2 0.1475,2 0.1536,2 0.1272,2 0.0685,2 -0.0214,2 -0.1408,2 -0.2863,2 -0.4541,2 -0.6389,2 -0.8344,2 -1.033,2 -1.2258,2 -1.4026,2 -1.5516,2 -1.6597,2 -1.7172,2 -1.7514,2 -1.777,2 -1.7905,2 -1.789,2 -1.771,2 -1.7356,2 -1.6828,2 -1.613,2 -1.5278,2 -1.4288,2 -1.3181,2 -1.1985,2 -1.0725,2 -0.9432,2 -0.8135,2 -0.6865,2 -0.5649,2 -0.4515,2 -0.3485,2 -0.2579,2 -0.1814,2 -0.1195,2 -0.0729,2 -0.0408,2 -0.022,2 -0.0141,2 -0.0142,2 -0.0174,2 -0.0184,2 -0.0104,2 0.016,2 0.0852,2 0.2062,2 0.3633,2 0.5424,2 0.7314,2 0.9202,2 1.1004,2 1.2653,2 1.4097,2 1.5303,2 1.6243,2 1.6909,2 1.7299,2 1.7422,2 1.7295,2 1.6941,2 1.6391,2 1.5678,2 1.4842,2 1.3919,2 1.2951,2 1.1977,2 1.1037,2 1.0164,2 0.9389,2 0.8739,2 0.8232,2 0.7878,2 0.7679,2 0.7629,2 0.7703,2 0.7811,2 0.7862,2 0.7917,2 0.8044,2 0.8284,2 0.8671,2"
         inkscape:connector-curvature="0"
         style="fill:none;stroke:#000000;stroke-width:0.2" />
      <path
         id="path14295"
         d="m 171.0445,0 -1.9359,2 -1.8969,2 -1.8232,2 -1.72,2 -1.5923,2 -1.4456,2 -1.2852,2 -1.1163,2 -0.9442,2 -0.7738,2 -0.6101,2 -0.4577,2 -0.3206,2 -0.2028,2 -0.1075,2 -0.0378,2 0.005,2 0.0173,2 2e-4,2 -0.0472,2 -0.124,2 -0.2288,2 -0.3586,2 -0.5103,2 -0.6787,2 -0.8582,2 -1.0417,2 -1.2209,2 -1.3861,2 -1.5262,2 -1.6287,2 -1.6842,2 -1.719,2 -1.7471,2 -1.7646,2 -1.7688,2 -1.7577,2 -1.7303,2 -1.6862,2 -1.6259,2 -1.5502,2 -1.4608,2 -1.3595,2 -1.2484,2 -1.1304,2 -1.0079,2 -0.8838,2 -0.7607,2 -0.6415,2 -0.5288,2 -0.4247,2 -0.3312,2 -0.2499,2 -0.1819,2 -0.1274,2 -0.0865,2 -0.058,2 -0.0401,2 -0.0303,2 -0.0245,2 -0.018,2 -0.005,2 0.0233,2 0.0952,2 0.2227,2 0.3904,2 0.583,2 0.7876,2 0.9936,2 1.1917,2 1.3748,2 1.5372,2 1.6748,2 1.7848,2 1.8655,2 1.9168,2 1.939,2 1.9338,2 1.9033,2 1.8506,2 1.7788,2 1.6919,2 1.5939,2 1.4889,2 1.3815,2 1.2755,2 1.1748,2 1.0833,2 1.0038,2 0.9389,2 0.8907,2 0.8598,2 0.8465,2 0.8496,2 0.8595,2 0.8649,2 0.8716,2 0.8858,2 0.9119,2 0.9527,2"
         inkscape:connector-curvature="0"
         style="fill:none;stroke:#000000;stroke-width:0.2" />
      <path
         id="path14297"
         d="m 174.4559,0 -1.9323,2 -1.9003,2 -1.8393,2 -1.7524,2 -1.6437,2 -1.5169,2 -1.3766,2 -1.2268,2 -1.0723,2 -0.9173,2 -0.7661,2 -0.6231,2 -0.4921,2 -0.3768,2 -0.2806,2 -0.2063,2 -0.1564,2 -0.1327,2 -0.1363,2 -0.1677,2 -0.2267,2 -0.3121,2 -0.4217,2 -0.5526,2 -0.7006,2 -0.8604,2 -1.0257,2 -1.1886,2 -1.3401,2 -1.4698,2 -1.5656,2 -1.6185,2 -1.6536,2 -1.6842,2 -1.7065,2 -1.7176,2 -1.7154,2 -1.6988,2 -1.667,2 -1.62,2 -1.5587,2 -1.4839,2 -1.3971,2 -1.3004,2 -1.1956,2 -1.0851,2 -0.9713,2 -0.8566,2 -0.7434,2 -0.6343,2 -0.5309,2 -0.4355,2 -0.3495,2 -0.2741,2 -0.2099,2 -0.1572,2 -0.1155,2 -0.0834,2 -0.0593,2 -0.0403,2 -0.0226,2 -0.002,2 0.0294,2 0.1025,2 0.2342,2 0.4084,2 0.6097,2 0.8247,2 1.0422,2 1.253,2 1.4493,2 1.625,2 1.7758,2 1.8985,2 1.9912,2 2.0534,2 2.0854,2 2.0884,2 2.0645,2 2.0165,2 1.9477,2 1.8618,2 1.763,2 1.6554,2 1.5435,2 1.4316,2 1.3238,2 1.2241,2 1.1359,2 1.0622,2 1.0053,2 0.967,2 0.9478,2 0.9475,2 0.956,2 0.96,2 0.9652,2 0.9776,2 1.0021,2 1.0409,2"
         inkscape:connector-curvature="0"
         style="fill:none;stroke:#000000;stroke-width:0.2" />
      <path
         id="path14299"
         d="m 178.3406,0 -1.9283,2 -1.905,2 -1.8589,2 -1.7918,2 -1.7052,2 -1.6018,2 -1.4847,2 -1.3567,2 -1.2218,2 -1.0833,2 -0.9452,2 -0.8113,2 -0.6852,2 -0.5707,2 -0.471,2 -0.3891,2 -0.3278,2 -0.2892,2 -0.2749,2 -0.286,2 -0.3227,2 -0.3842,2 -0.4694,2 -0.5757,2 -0.6997,2 -0.8369,2 -0.9812,2 -1.1258,2 -1.2621,2 -1.3802,2 -1.4684,2 -1.5179,2 -1.5528,2 -1.5855,2 -1.6127,2 -1.6315,2 -1.6397,2 -1.6359,2 -1.6193,2 -1.5894,2 -1.5465,2 -1.4911,2 -1.4241,2 -1.3468,2 -1.2607,2 -1.1675,2 -1.0691,2 -0.9673,2 -0.8643,2 -0.7617,2 -0.6618,2 -0.5659,2 -0.4757,2 -0.3925,2 -0.3172,2 -0.2505,2 -0.1924,2 -0.1425,2 -0.1004,2 -0.0642,2 -0.0319,2 -10e-4,2 0.034,2 0.1073,2 0.2401,2 0.4162,2 0.6206,2 0.8399,2 1.0627,2 1.2798,2 1.4832,2 1.6669,2 1.8263,2 1.958,2 2.06,2 2.1315,2 2.1726,2 2.1845,2 2.1689,2 2.1285,2 2.0666,2 1.9864,2 1.8923,2 1.7882,2 1.6787,2 1.5677,2 1.4598,2 1.3589,2 1.2685,2 1.1919,2 1.1317,2 1.09,2 1.0677,2 1.0651,2 1.0717,2 1.0722,2 1.0726,2 1.0795,2 1.0978,2 1.1301,2"
         inkscape:connector-curvature="0"
         style="fill:none;stroke:#000000;stroke-width:0.2" />
      <path
         id="path14301"
         d="m 182.5548,0 -1.9259,2 -1.9123,2 -1.8831,2 -1.8375,2 -1.7755,2 -1.6975,2 -1.6051,2 -1.5005,2 -1.3857,2 -1.264,2 -1.1385,2 -1.0127,2 -0.8899,2 -0.7738,2 -0.6679,2 -0.5755,2 -0.4995,2 -0.4425,2 -0.4068,2 -0.3939,2 -0.4046,2 -0.4391,2 -0.4969,2 -0.576,2 -0.6738,2 -0.7862,2 -0.9084,2 -1.0335,2 -1.1538,2 -1.2596,2 -1.3397,2 -1.3854,2 -1.419,2 -1.453,2 -1.4844,2 -1.5108,2 -1.5298,2 -1.54,2 -1.5403,2 -1.53,2 -1.5085,2 -1.476,2 -1.4328,2 -1.3793,2 -1.3164,2 -1.2451,2 -1.1665,2 -1.0819,2 -0.9927,2 -0.9004,2 -0.8063,2 -0.712,2 -0.6189,2 -0.5283,2 -0.4414,2 -0.3595,2 -0.2832,2 -0.2133,2 -0.1502,2 -0.0942,2 -0.0449,2 -0.002,2 0.0374,2 0.1099,2 0.2405,2 0.4141,2 0.6159,2 0.8332,2 1.0548,2 1.2718,2 1.4763,2 1.6625,2 1.8255,2 1.9623,2 2.0707,2 2.1497,2 2.1993,2 2.2204,2 2.2148,2 2.1847,2 2.1332,2 2.0636,2 1.9795,2 1.8851,2 1.7844,2 1.6815,2 1.5806,2 1.4854,2 1.3995,2 1.3261,2 1.2679,2 1.2269,2 1.2043,2 1.2006,2 1.2046,2 1.1995,2 1.1921,2 1.1894,2 1.1968,2 1.2177,2"
         inkscape:connector-curvature="0"
         style="fill:none;stroke:#000000;stroke-width:0.2" />
      <path
         id="path14303"
         d="m 186.9299,0 -1.9277,2 -1.9241,2 -1.9124,2 -1.8893,2 -1.8523,2 -1.8001,2 -1.7328,2 -1.6509,2 -1.5558,2 -1.4498,2 -1.3355,2 -1.2159,2 -1.0944,2 -0.9744,2 -0.86,2 -0.7542,2 -0.6609,2 -0.583,2 -0.5233,2 -0.484,2 -0.467,2 -0.4727,2 -0.5016,2 -0.5523,2 -0.6232,2 -0.7107,2 -0.8103,2 -0.9162,2 -1.0205,2 -1.1141,2 -1.186,2 -1.227,2 -1.2584,2 -1.2924,2 -1.3269,2 -1.3595,2 -1.3887,2 -1.4128,2 -1.4302,2 -1.4402,2 -1.4416,2 -1.434,2 -1.4169,2 -1.39,2 -1.3534,2 -1.3073,2 -1.2519,2 -1.1878,2 -1.1158,2 -1.0365,2 -0.9512,2 -0.8607,2 -0.7664,2 -0.6698,2 -0.5721,2 -0.4751,2 -0.3803,2 -0.2896,2 -0.2046,2 -0.1274,2 -0.0598,2 -0.004,2 0.0403,2 0.1106,2 0.2363,2 0.4032,2 0.5975,2 0.8072,2 1.0219,2 1.2328,2 1.4329,2 1.6163,2 1.7787,2 1.9169,2 2.0289,2 2.1134,2 2.1707,2 2.2014,2 2.2069,2 2.1894,2 2.1514,2 2.0963,2 2.0271,2 1.9477,2 1.8618,2 1.7731,2 1.6853,2 1.6022,2 1.5269,2 1.4621,2 1.4107,2 1.3741,2 1.3539,2 1.35,2 1.3507,2 1.3382,2 1.3198,2 1.3039,2 1.2963,2 1.3014,2"
         inkscape:connector-curvature="0"
         style="fill:none;stroke:#000000;stroke-width:0.2" />
      <path
         id="path14305"
         d="m 191.3089,0 -1.9362,2 -1.9426,2 -1.9479,2 -1.9465,2 -1.9335,2 -1.906,2 -1.862,2 -1.8012,2 -1.7239,2 -1.6314,2 -1.526,2 -1.4104,2 -1.2877,2 -1.1619,2 -1.0365,2 -0.9157,2 -0.8033,2 -0.703,2 -0.6182,2 -0.552,2 -0.5065,2 -0.4834,2 -0.4837,2 -0.5067,2 -0.5514,2 -0.615,2 -0.6933,2 -0.7809,2 -0.8702,2 -0.9525,2 -1.0161,2 -1.0521,2 -1.0798,2 -1.1121,2 -1.1477,2 -1.185,2 -1.2224,2 -1.2587,2 -1.2922,2 -1.3216,2 -1.3455,2 -1.3629,2 -1.3723,2 -1.373,2 -1.364,2 -1.3447,2 -1.3145,2 -1.2731,2 -1.2205,2 -1.1568,2 -1.0825,2 -0.9983,2 -0.9052,2 -0.8044,2 -0.6979,2 -0.5872,2 -0.4753,2 -0.3646,2 -0.2585,2 -0.1604,2 -0.0748,2 -0.006,2 0.0428,2 0.1103,2 0.2289,2 0.3859,2 0.5688,2 0.7666,2 0.9697,2 1.1701,2 1.3613,2 1.538,2 1.696,2 1.8327,2 1.9458,2 2.0344,2 2.0985,2 2.1387,2 2.156,2 2.1525,2 2.1306,2 2.0926,2 2.042,2 1.9815,2 1.9148,2 1.845,2 1.7754,2 1.7091,2 1.6488,2 1.5972,2 1.556,2 1.527,2 1.5109,2 1.5077,2 1.5046,2 1.483,2 1.4514,2 1.4192,2 1.3932,2 1.3788,2"
         inkscape:connector-curvature="0"
         style="fill:none;stroke:#000000;stroke-width:0.2" />
      <path
         id="path14307"
         d="m 195.5738,0 -1.9544,2 -1.9696,2 -1.9908,2 -2.0089,2 -2.0175,2 -2.0119,2 -1.9884,2 -1.9456,2 -1.8829,2 -1.8011,2 -1.7017,2 -1.5876,2 -1.4617,2 -1.3278,2 -1.1903,2 -1.0532,2 -0.9211,2 -0.7983,2 -0.6888,2 -0.5961,2 -0.5235,2 -0.473,2 -0.4465,2 -0.4438,2 -0.4646,2 -0.5064,2 -0.5656,2 -0.6368,2 -0.713,2 -0.7846,2 -0.8407,2 -0.8708,2 -0.8937,2 -0.9225,2 -0.9569,2 -0.996,2 -1.0393,2 -1.0849,2 -1.132,2 -1.1784,2 -1.2228,2 -1.2633,2 -1.2979,2 -1.3251,2 -1.3432,2 -1.3505,2 -1.3458,2 -1.3279,2 -1.296,2 -1.2494,2 -1.1881,2 -1.1123,2 -1.0227,2 -0.9205,2 -0.8077,2 -0.6865,2 -0.5599,2 -0.4319,2 -0.3069,2 -0.1901,2 -0.088,2 -0.007,2 0.0458,2 0.1098,2 0.2199,2 0.3652,2 0.5344,2 0.7177,2 0.9064,2 1.0935,2 1.2731,2 1.4405,2 1.592,2 1.7249,2 1.8376,2 1.9291,2 1.9993,2 2.0484,2 2.078,2 2.0891,2 2.0841,2 2.0651,2 2.0346,2 1.9956,2 1.9504,2 1.9022,2 1.8536,2 1.8069,2 1.7645,2 1.7283,2 1.6999,2 1.68,2 1.6692,2 1.6672,2 1.6597,2 1.628,2 1.5816,2 1.531,2 1.4846,2 1.4483,2"
         inkscape:connector-curvature="0"
         style="fill:none;stroke:#000000;stroke-width:0.2" />
      <path
         id="path14309"
         d="m 199.6626,0 -1.9843,2 -2.0075,2 -2.0418,2 -2.0767,2 -2.1033,2 -2.1156,2 -2.1087,2 -2.0801,2 -2.0283,2 -1.9537,2 -1.8575,2 -1.7423,2 -1.6112,2 -1.468,2 -1.3175,2 -1.1641,2 -1.0128,2 -0.8685,2 -0.7357,2 -0.6188,2 -0.5214,2 -0.4465,2 -0.396,2 -0.3709,2 -0.3708,2 -0.3939,2 -0.4368,2 -0.4943,2 -0.5589,2 -0.6215,2 -0.6703,2 -0.6943,2 -0.711,2 -0.7342,2 -0.765,2 -0.8032,2 -0.8488,2 -0.9006,2 -0.9573,2 -1.0173,2 -1.0785,2 -1.1386,2 -1.1954,2 -1.2464,2 -1.2892,2 -1.3213,2 -1.3408,2 -1.3457,2 -1.3344,2 -1.3054,2 -1.2583,2 -1.1928,2 -1.1091,2 -1.0085,2 -0.8927,2 -0.7643,2 -0.6273,2 -0.4857,2 -0.3456,2 -0.2135,2 -0.0976,2 -0.007,2 0.0495,2 0.1098,2 0.2114,2 0.3446,2 0.4997,2 0.6677,2 0.8416,2 1.0146,2 1.1819,2 1.3393,2 1.4834,2 1.6119,2 1.7236,2 1.8171,2 1.8928,2 1.9506,2 1.9917,2 2.0172,2 2.029,2 2.0288,2 2.0186,2 2.0009,2 1.9777,2 1.9515,2 1.924,2 1.8976,2 1.8735,2 1.8533,2 1.838,2 1.8276,2 1.8224,2 1.8213,2 1.8093,2 1.7669,2 1.7051,2 1.6356,2 1.5676,2 1.5087,2"
         inkscape:connector-curvature="0"
         style="fill:none;stroke:#000000;stroke-width:0.2" />
      <path
         id="path14311"
         d="m 203.5775,0 -2.0281,2 -2.0574,2 -2.1023,2 -2.1501,2 -2.1906,2 -2.2163,2 -2.2214,2 -2.2027,2 -2.1579,2 -2.0872,2 -1.9913,2 -1.8729,2 -1.7352,2 -1.5821,2 -1.4186,2 -1.2497,2 -1.0808,2 -0.917,2 -0.7636,2 -0.6256,2 -0.5068,2 -0.411,2 -0.3405,2 -0.2967,2 -0.2794,2 -0.2873,2 -0.3169,2 -0.3631,2 -0.4184,2 -0.473,2 -0.515,2 -0.5324,2 -0.5418,2 -0.5578,2 -0.5825,2 -0.6167,2 -0.6612,2 -0.7152,2 -0.7774,2 -0.8464,2 -0.9197,2 -0.995,2 -1.0694,2 -1.1399,2 -1.2036,2 -1.2572,2 -1.2982,2 -1.3238,2 -1.3316,2 -1.32,2 -1.2874,2 -1.2333,2 -1.1578,2 -1.0614,2 -0.9463,2 -0.8152,2 -0.6719,2 -0.5218,2 -0.3713,2 -0.2283,2 -0.1025,2 -0.005,2 0.0544,2 0.1114,2 0.205,2 0.3275,2 0.4699,2 0.6245,2 0.7849,2 0.9456,2 1.102,2 1.2504,2 1.3882,2 1.513,2 1.6238,2 1.7195,2 1.8002,2 1.866,2 1.9178,2 1.9564,2 1.9834,2 2.0002,2 2.0084,2 2.0101,2 2.0068,2 2.0002,2 1.9921,2 1.9836,2 1.9762,2 1.9702,2 1.9664,2 1.9645,2 1.9638,2 1.9632,2 1.9465,2 1.8939,2 1.8169,2 1.729,2 1.6404,2 1.5596,2"
         inkscape:connector-curvature="0"
         style="fill:none;stroke:#000000;stroke-width:0.2" />
      <path
         id="path14313"
         d="m 207.383,0 -2.0868,2 -2.1205,2 -2.1728,2 -2.2296,2 -2.2796,2 -2.3141,2 -2.3269,2 -2.3137,2 -2.2724,2 -2.2022,2 -2.1046,2 -1.9813,2 -1.8363,2 -1.6734,2 -1.4979,2 -1.3151,2 -1.1306,2 -0.9504,2 -0.7799,2 -0.6242,2 -0.4882,2 -0.3755,2 -0.2891,2 -0.2304,2 -0.1997,2 -0.1957,2 -0.2149,2 -0.2521,2 -0.2996,2 -0.3474,2 -0.3828,2 -0.3933,2 -0.3945,2 -0.4018,2 -0.4181,2 -0.4459,2 -0.4859,2 -0.538,2 -0.6013,2 -0.6744,2 -0.7548,2 -0.8398,2 -0.9266,2 -1.0114,2 -1.091,2 -1.1618,2 -1.2202,2 -1.2633,2 -1.2881,2 -1.2922,2 -1.2738,2 -1.2317,2 -1.1657,2 -1.0764,2 -0.9654,2 -0.8356,2 -0.6912,2 -0.5376,2 -0.3821,2 -0.2333,2 -0.1016,2 4e-4,2 0.0607,2 0.115,2 0.2027,2 0.3169,2 0.45,2 0.5948,2 0.7457,2 0.8975,2 1.0465,2 1.1891,2 1.3229,2 1.446,2 1.5573,2 1.6557,2 1.7415,2 1.8144,2 1.8754,2 1.925,2 1.9645,2 1.995,2 2.0181,2 2.035,2 2.0473,2 2.056,2 2.0626,2 2.068,2 2.0727,2 2.0774,2 2.0819,2 2.0857,2 2.0878,2 2.0866,2 2.0654,2 2.0031,2 1.9126,2 1.8082,2 1.7013,2 1.6007,2"
         inkscape:connector-curvature="0"
         style="fill:none;stroke:#000000;stroke-width:0.2" />
      <path
         id="path14315"
         d="m 211.1943,0 -2.1602,2 -2.1969,2 -2.2536,2 -2.3157,2 -2.3709,2 -2.4101,2 -2.4264,2 -2.4153,2 -2.3741,2 -2.3025,2 -2.2011,2 -2.0724,2 -1.9199,2 -1.7481,2 -1.5621,2 -1.3675,2 -1.1705,2 -0.977,2 -0.7929,2 -0.6237,2 -0.4742,2 -0.3487,2 -0.2502,2 -0.1803,2 -0.1394,2 -0.1263,2 -0.1374,2 -0.1673,2 -0.2082,2 -0.2498,2 -0.2786,2 -0.2819,2 -0.2743,2 -0.2716,2 -0.2784,2 -0.2973,2 -0.3298,2 -0.3766,2 -0.4369,2 -0.5094,2 -0.5917,2 -0.6812,2 -0.7745,2 -0.8682,2 -0.9583,2 -1.041,2 -1.1125,2 -1.1691,2 -1.2077,2 -1.2254,2 -1.2199,2 -1.1897,2 -1.1343,2 -1.054,2 -0.9502,2 -0.8257,2 -0.6848,2 -0.5329,2 -0.3777,2 -0.228,2 -0.0949,2 0.008,2 0.0685,2 0.1209,2 0.2053,2 0.3153,2 0.4437,2 0.5839,2 0.7307,2 0.879,2 1.0256,2 1.1668,2 1.3005,2 1.4249,2 1.5387,2 1.6412,2 1.732,2 1.8113,2 1.8796,2 1.9374,2 1.9858,2 2.0258,2 2.0584,2 2.0851,2 2.1068,2 2.1246,2 2.1397,2 2.1525,2 2.1637,2 2.1734,2 2.1814,2 2.1872,2 2.1895,2 2.1865,2 2.1608,2 2.0902,2 1.9885,2 1.8706,2 1.7487,2 1.6322,2"
         inkscape:connector-curvature="0"
         style="fill:none;stroke:#000000;stroke-width:0.2" />
    </g>
    <rect
       y="171.14761"
       x="31.317646"
       height="50"
       width="200"
       id="rect14379"
       style="opacity:1;fill:none;fill-opacity:1;fill-rule:evenodd;stroke:none;stroke-width:0.18000001;stroke-linecap:butt;stroke-miterlimit:4;stroke-dasharray:none;stroke-dashoffset:0;stroke-opacity:1;paint-order:normal" />
    <flowRoot
       xml:space="preserve"
       id="flowRoot14381"
       style="font-style:normal;font-variant:normal;font-weight:normal;font-stretch:normal;font-size:10.66666698px;line-height:140.99999666%;font-family:B612;-inkscape-font-specification:B612;text-align:start;letter-spacing:0px;word-spacing:0px;text-anchor:start;fill:#000000;fill-opacity:1;stroke:none;stroke-width:1px;stroke-linecap:butt;stroke-linejoin:miter;stroke-opacity:1"
       transform="matrix(0.26458333,0,0,0.26458333,12.233027,76.939438)"><flowRegion
         id="flowRegion14383"
         style="font-size:10.66666698px;text-align:start;text-anchor:start"><rect
           id="rect14385"
           width="417.85715"
           height="185.71431"
           x="107.14286"
           y="599.4151"
           style="font-size:10.66666698px;text-align:start;text-anchor:start" /></flowRegion><flowPara
         id="flowPara14389">Justin Humm</flowPara><flowPara
         id="flowPara14391">mail@erictapen.name</flowPara><flowPara
         id="flowPara14393" /><flowPara
         id="flowPara14395">Die Bilder dieser Ausstellung sind das</flowPara><flowPara
         id="flowPara14399">reproduzierbare Ergebnis eines Computerprogramms.</flowPara><flowPara
         id="flowPara14401">Der Quellcode steht unter freier Lizenz und ist auf</flowPara><flowPara
         id="flowPara14403">https://github.com/erictapen/geve zu finden.</flowPara></flowRoot>    <path
       style="opacity:1;fill:none;fill-opacity:1;fill-rule:evenodd;stroke:none;stroke-width:0.17999999;stroke-linecap:butt;stroke-miterlimit:4;stroke-dasharray:none;stroke-dashoffset:0;stroke-opacity:1;paint-order:normal"
       d="M -39.41931,23.885878 V 320.97523 H 393.74131 V 23.885878 Z M 31.317456,221.14774 H 231.31765 v 50.00004 H 31.317456 Z"
       id="rect4518"
       inkscape:connector-curvature="0" />
    <path
       style="fill:none;fill-rule:evenodd;stroke:#000000;stroke-width:0.26458332px;stroke-linecap:butt;stroke-linejoin:miter;stroke-opacity:1"
       d="m 30.875,276.03869 v 15"
       id="path14418"
       inkscape:connector-curvature="0" />
    <path
       style="fill:none;fill-rule:evenodd;stroke:#000000;stroke-width:0.26458332px;stroke-linecap:butt;stroke-linejoin:miter;stroke-opacity:1"
       d="m 25.875,271.03869 h -15"
       id="path14420"
       inkscape:connector-curvature="0" />
    <path
       style="fill:none;fill-rule:evenodd;stroke:#000000;stroke-width:0.26458332px;stroke-linecap:butt;stroke-linejoin:miter;stroke-opacity:1"
       d="m 235.875,271.03869 h 10"
       id="path14422"
       inkscape:connector-curvature="0" />
    <path
       style="fill:none;fill-rule:evenodd;stroke:#000000;stroke-width:0.26458332px;stroke-linecap:butt;stroke-linejoin:miter;stroke-opacity:1"
       d="M 30.875,166.03869 V 151.0387"
       id="path14424"
       inkscape:connector-curvature="0" />
    <path
       inkscape:connector-curvature="0"
       id="path14426"
       d="m 230.875,276.03869 v 15"
       style="fill:none;fill-rule:evenodd;stroke:#000000;stroke-width:0.26458332px;stroke-linecap:butt;stroke-linejoin:miter;stroke-opacity:1" />
    <path
       inkscape:connector-curvature="0"
       id="path14428"
       d="M 230.875,166.03869 V 151.0387"
       style="fill:none;fill-rule:evenodd;stroke:#000000;stroke-width:0.26458332px;stroke-linecap:butt;stroke-linejoin:miter;stroke-opacity:1" />
    <path
       inkscape:connector-curvature="0"
       id="path14430"
       d="m 25.875,221.03869 h -15"
       style="fill:none;fill-rule:evenodd;stroke:#000000;stroke-width:0.26458332px;stroke-linecap:butt;stroke-linejoin:miter;stroke-opacity:1" />
    <path
       inkscape:connector-curvature="0"
       id="path14432"
       d="m 235.875,221.03869 h 10"
       style="fill:none;fill-rule:evenodd;stroke:#000000;stroke-width:0.26458332px;stroke-linecap:butt;stroke-linejoin:miter;stroke-opacity:1" />
    <path
       style="fill:none;fill-rule:evenodd;stroke:#000000;stroke-width:0.26458332px;stroke-linecap:butt;stroke-linejoin:miter;stroke-opacity:1"
       d="m 25.875,171.03869 h -15"
       id="path14434"
       inkscape:connector-curvature="0" />
    <path
       style="fill:none;fill-rule:evenodd;stroke:#000000;stroke-width:0.26458332px;stroke-linecap:butt;stroke-linejoin:miter;stroke-opacity:1"
       d="m 235.875,171.03869 h 10"
       id="path14436"
       inkscape:connector-curvature="0" />
  </g>
</svg>
