<?xml version="1.0" encoding="UTF-8" standalone="no"?>
<svg
   xmlns:dc="http://purl.org/dc/elements/1.1/"
   xmlns:cc="http://creativecommons.org/ns#"
   xmlns:rdf="http://www.w3.org/1999/02/22-rdf-syntax-ns#"
   xmlns:svg="http://www.w3.org/2000/svg"
   xmlns="http://www.w3.org/2000/svg"
   xmlns:sodipodi="http://sodipodi.sourceforge.net/DTD/sodipodi-0.dtd"
   xmlns:inkscape="http://www.inkscape.org/namespaces/inkscape"
   height="200"
   width="200"
   version="1.11.1"
   id="svg138"
   sodipodi:docname="11.svg"
   inkscape:version="0.92.4 (5da689c313, 2019-01-14)">
  <metadata
     id="metadata144">
    <rdf:RDF>
      <cc:Work
         rdf:about="">
        <dc:format>image/svg+xml</dc:format>
        <dc:type
           rdf:resource="http://purl.org/dc/dcmitype/StillImage" />
        <dc:title></dc:title>
      </cc:Work>
    </rdf:RDF>
  </metadata>
  <defs
     id="defs142" />
  <sodipodi:namedview
     pagecolor="#ffffff"
     bordercolor="#666666"
     borderopacity="1"
     objecttolerance="10"
     gridtolerance="10"
     guidetolerance="10"
     inkscape:pageopacity="0"
     inkscape:pageshadow="2"
     inkscape:window-width="1600"
     inkscape:window-height="900"
     id="namedview140"
     showgrid="false"
     inkscape:zoom="2.36"
     inkscape:cx="106.48499"
     inkscape:cy="89.334231"
     inkscape:window-x="0"
     inkscape:window-y="0"
     inkscape:window-maximized="1"
     inkscape:current-layer="svg138" />
  <g
     id="g136">
    <path
       d="M 1.0000,0.0000 L 1.0000,200.0000 L 76.4931,150.0000 L 54.4150,100.0000 L 33.5795,50.0000 Z"
       stroke="black"
       stroke-width="1px"
       fill="none"
       id="path2" />
    <path
       d="M 4.0000,0.0000 L 4.0000,200.0000 L 82.6811,150.0000 L 57.3734,100.0000 L 38.3933,50.0000 Z"
       stroke="black"
       stroke-width="1px"
       fill="none"
       id="path4" />
    <path
       d="M 7.0000,0.0000 L 7.0000,200.0000 L 87.3306,150.0000 L 61.9806,100.0000 L 42.3288,50.0000 Z"
       stroke="black"
       stroke-width="1px"
       fill="none"
       id="path6" />
    <path
       d="M 10.0000,0.0000 L 10.0000,200.0000 L 90.6110,150.0000 L 66.7340,100.0000 L 46.8238,50.0000 Z"
       stroke="black"
       stroke-width="1px"
       fill="none"
       id="path8" />
    <path
       d="M 13.0000,0.0000 L 13.0000,200.0000 L 93.6870,150.0000 L 69.1991,100.0000 L 50.7384,50.0000 Z"
       stroke="black"
       stroke-width="1px"
       fill="none"
       id="path10" />
    <path
       d="M 16.0000,0.0000 L 16.0000,200.0000 L 97.7269,150.0000 L 73.4654,100.0000 L 55.4515,50.0000 Z"
       stroke="black"
       stroke-width="1px"
       fill="none"
       id="path12" />
    <path
       d="M 19.0000,0.0000 L 19.0000,200.0000 L 100.6911,150.0000 L 77.2330,100.0000 L 60.0725,50.0000 Z"
       stroke="black"
       stroke-width="1px"
       fill="none"
       id="path14" />
    <path
       d="M 22.0000,0.0000 L 22.0000,200.0000 L 103.6812,150.0000 L 80.0086,100.0000 L 63.4807,50.0000 Z"
       stroke="black"
       stroke-width="1px"
       fill="none"
       id="path16" />
    <path
       d="M 25.0000,0.0000 L 25.0000,200.0000 L 108.7735,150.0000 L 83.1162,100.0000 L 68.7356,50.0000 Z"
       stroke="black"
       stroke-width="1px"
       fill="none"
       id="path18" />
    <path
       d="M 28.0000,0.0000 L 28.0000,200.0000 L 114.7200,150.0000 L 88.1576,100.0000 L 71.4988,50.0000 Z"
       stroke="black"
       stroke-width="1px"
       fill="none"
       id="path20" />
    <path
       d="M 31.0000,0.0000 L 31.0000,200.0000 L 119.2171,150.0000 L 91.7546,100.0000 L 74.0619,50.0000 Z"
       stroke="black"
       stroke-width="1px"
       fill="none"
       id="path22" />
    <path
       d="M 34.0000,0.0000 L 34.0000,200.0000 L 123.1422,150.0000 L 95.7029,100.0000 L 76.8930,50.0000 Z"
       stroke="black"
       stroke-width="1px"
       fill="none"
       id="path24" />
    <path
       d="M 37.0000,0.0000 L 37.0000,200.0000 L 126.5243,150.0000 L 99.1173,100.0000 L 80.7165,50.0000 Z"
       stroke="black"
       stroke-width="1px"
       fill="none"
       id="path26" />
    <path
       d="M 40.0000,0.0000 L 40.0000,200.0000 L 128.6403,150.0000 L 103.4229,100.0000 L 85.6255,50.0000 Z"
       stroke="black"
       stroke-width="1px"
       fill="none"
       id="path28" />
    <path
       d="M 43.0000,0.0000 L 43.0000,200.0000 L 130.2036,150.0000 L 104.8584,100.0000 L 89.7141,50.0000 Z"
       stroke="black"
       stroke-width="1px"
       fill="none"
       id="path30" />
    <path
       d="M 46.0000,0.0000 L 46.0000,200.0000 L 134.8975,150.0000 L 109.1694,100.0000 L 93.2521,50.0000 Z"
       stroke="black"
       stroke-width="1px"
       fill="none"
       id="path32" />
    <path
       d="M 49.0000,0.0000 L 49.0000,200.0000 L 138.6775,150.0000 L 113.9572,100.0000 L 97.1394,50.0000 Z"
       stroke="black"
       stroke-width="1px"
       fill="none"
       id="path34" />
    <path
       d="M 52.0000,0.0000 L 52.0000,200.0000 L 141.1783,150.0000 L 117.5905,100.0000 L 102.2626,50.0000 Z"
       stroke="black"
       stroke-width="1px"
       fill="none"
       id="path36" />
    <path
       d="M 55.0000,0.0000 L 55.0000,200.0000 L 141.1824,150.0000 L 119.1242,100.0000 L 107.2062,50.0000 Z"
       stroke="black"
       stroke-width="1px"
       fill="none"
       id="path38" />
    <path
       d="M 58.0000,0.0000 L 58.0000,200.0000 L 142.0521,150.0000 L 120.8830,100.0000 L 112.9808,50.0000 Z"
       stroke="black"
       stroke-width="1px"
       fill="none"
       id="path40" />
    <path
       d="M 61.0000,0.0000 L 61.0000,200.0000 L 142.4077,150.0000 L 122.8146,100.0000 L 117.0254,50.0000 Z"
       stroke="black"
       stroke-width="1px"
       fill="none"
       id="path42" />
    <path
       d="M 64.0000,0.0000 L 64.0000,200.0000 L 145.4737,150.0000 L 124.8303,100.0000 L 121.0211,50.0000 Z"
       stroke="black"
       stroke-width="1px"
       fill="none"
       id="path44" />
    <path
       d="M 67.0000,0.0000 L 67.0000,200.0000 L 148.5181,150.0000 L 127.2534,100.0000 L 124.1417,50.0000 Z"
       stroke="black"
       stroke-width="1px"
       fill="none"
       id="path46" />
    <path
       d="M 70.0000,0.0000 L 70.0000,200.0000 L 152.7092,150.0000 L 129.5770,100.0000 L 128.1708,50.0000 Z"
       stroke="black"
       stroke-width="1px"
       fill="none"
       id="path48" />
    <path
       d="M 73.0000,0.0000 L 73.0000,200.0000 L 156.3927,150.0000 L 133.1331,100.0000 L 132.4506,50.0000 Z"
       stroke="black"
       stroke-width="1px"
       fill="none"
       id="path50" />
    <path
       d="M 76.0000,0.0000 L 76.0000,200.0000 L 159.0789,150.0000 L 136.3101,100.0000 L 136.8051,50.0000 Z"
       stroke="black"
       stroke-width="1px"
       fill="none"
       id="path52" />
    <path
       d="M 79.0000,0.0000 L 79.0000,200.0000 L 161.8804,150.0000 L 140.7263,100.0000 L 140.7607,50.0000 Z"
       stroke="black"
       stroke-width="1px"
       fill="none"
       id="path54" />
    <path
       d="M 82.0000,0.0000 L 82.0000,200.0000 L 164.3689,150.0000 L 145.7467,100.0000 L 144.3383,50.0000 Z"
       stroke="black"
       stroke-width="1px"
       fill="none"
       id="path56" />
    <path
       d="M 85.0000,0.0000 L 85.0000,200.0000 L 168.2023,150.0000 L 148.8047,100.0000 L 147.0150,50.0000 Z"
       stroke="black"
       stroke-width="1px"
       fill="none"
       id="path58" />
    <path
       d="M 88.0000,0.0000 L 88.0000,200.0000 L 170.9760,150.0000 L 151.4065,100.0000 L 150.4592,50.0000 Z"
       stroke="black"
       stroke-width="1px"
       fill="none"
       id="path60" />
    <path
       d="M 91.0000,0.0000 L 91.0000,200.0000 L 173.5483,150.0000 L 154.7528,100.0000 L 152.1610,50.0000 Z"
       stroke="black"
       stroke-width="1px"
       fill="none"
       id="path62" />
    <path
       d="M 94.0000,0.0000 L 94.0000,200.0000 L 175.1358,150.0000 L 157.6223,100.0000 L 155.2316,50.0000 Z"
       stroke="black"
       stroke-width="1px"
       fill="none"
       id="path64" />
    <path
       d="M 97.0000,0.0000 L 97.0000,200.0000 L 176.2915,150.0000 L 160.8928,100.0000 L 156.9519,50.0000 Z"
       stroke="black"
       stroke-width="1px"
       fill="none"
       id="path66" />
    <path
       d="M 100.0000,0.0000 L 100.0000,200.0000 L 177.9275,150.0000 L 165.6956,100.0000 L 157.2568,50.0000 Z"
       stroke="black"
       stroke-width="1px"
       fill="none"
       id="path68" />
    <path
       d="M 103.0000,0.0000 L 103.0000,200.0000 L 180.3850,150.0000 L 169.0585,100.0000 L 159.7896,50.0000 Z"
       stroke="black"
       stroke-width="1px"
       fill="none"
       id="path70" />
    <path
       d="M 106.0000,0.0000 L 106.0000,200.0000 L 183.2196,150.0000 L 174.5560,100.0000 L 162.4904,50.0000 Z"
       stroke="black"
       stroke-width="1px"
       fill="none"
       id="path72" />
    <path
       d="M 109.0000,0.0000 L 109.0000,200.0000 L 186.7115,150.0000 L 178.2271,100.0000 L 163.4878,50.0000 Z"
       stroke="black"
       stroke-width="1px"
       fill="none"
       id="path74" />
    <path
       d="M 112.0000,0.0000 L 112.0000,200.0000 L 191.3909,150.0000 L 182.0740,100.0000 L 165.8255,50.0000 Z"
       stroke="black"
       stroke-width="1px"
       fill="none"
       id="path76" />
    <path
       d="M 115.0000,0.0000 L 115.0000,200.0000 L 194.7892,150.0000 L 187.9205,100.0000 L 167.7918,50.0000 Z"
       stroke="black"
       stroke-width="1px"
       fill="none"
       id="path78" />
    <path
       d="M 118.0000,0.0000 L 118.0000,200.0000 L 195.5358,150.0000 L 192.2632,100.0000 L 171.5598,50.0000 Z"
       stroke="black"
       stroke-width="1px"
       fill="none"
       id="path80" />
    <path
       d="M 121.0000,0.0000 L 121.0000,200.0000 L 196.1046,150.0000 L 195.2746,100.0000 L 175.7402,50.0000 Z"
       stroke="black"
       stroke-width="1px"
       fill="none"
       id="path82" />
    <path
       d="M 124.0000,0.0000 L 124.0000,200.0000 L 199.2172,150.0000 L 198.1982,100.0000 L 180.1753,50.0000 Z"
       stroke="black"
       stroke-width="1px"
       fill="none"
       id="path84" />
    <path
       d="M 127.0000,0.0000 L 127.0000,200.0000 L 202.1430,150.0000 L 201.7742,100.0000 L 184.6445,50.0000 Z"
       stroke="black"
       stroke-width="1px"
       fill="none"
       id="path86" />
    <path
       d="M 130.0000,0.0000 L 130.0000,200.0000 L 203.4706,150.0000 L 204.9842,100.0000 L 190.4907,50.0000 Z"
       stroke="black"
       stroke-width="1px"
       fill="none"
       id="path88" />
    <path
       d="M 133.0000,0.0000 L 133.0000,200.0000 L 205.9472,150.0000 L 207.5275,100.0000 L 193.6901,50.0000 Z"
       stroke="black"
       stroke-width="1px"
       fill="none"
       id="path90" />
    <path
       d="M 136.0000,0.0000 L 136.0000,200.0000 L 207.9099,150.0000 L 209.1474,100.0000 L 194.9931,50.0000 Z"
       stroke="black"
       stroke-width="1px"
       fill="none"
       id="path92" />
    <path
       d="M 139.0000,0.0000 L 139.0000,200.0000 L 210.1983,150.0000 L 213.8148,100.0000 L 197.6966,50.0000 Z"
       stroke="black"
       stroke-width="1px"
       fill="none"
       id="path94" />
    <path
       d="M 142.0000,0.0000 L 142.0000,200.0000 L 215.1087,150.0000 L 216.8896,100.0000 L 200.3700,50.0000 Z"
       stroke="black"
       stroke-width="1px"
       fill="none"
       id="path96" />
    <path
       d="M 145.0000,0.0000 L 145.0000,200.0000 L 218.7260,150.0000 L 221.0178,100.0000 L 204.0141,50.0000 Z"
       stroke="black"
       stroke-width="1px"
       fill="none"
       id="path98" />
    <path
       d="M 148.0000,0.0000 L 148.0000,200.0000 L 221.9977,150.0000 L 224.0821,100.0000 L 206.4221,50.0000 Z"
       stroke="black"
       stroke-width="1px"
       fill="none"
       id="path100" />
    <path
       d="M 151.0000,0.0000 L 151.0000,200.0000 L 225.2434,150.0000 L 227.7259,100.0000 L 209.7408,50.0000 Z"
       stroke="black"
       stroke-width="1px"
       fill="none"
       id="path102" />
    <path
       d="M 154.0000,0.0000 L 154.0000,200.0000 L 229.6946,150.0000 L 232.8358,100.0000 L 214.2139,50.0000 Z"
       stroke="black"
       stroke-width="1px"
       fill="none"
       id="path104" />
    <path
       d="M 157.0000,0.0000 L 157.0000,200.0000 L 231.5458,150.0000 L 235.3161,100.0000 L 218.1145,50.0000 Z"
       stroke="black"
       stroke-width="1px"
       fill="none"
       id="path106" />
    <path
       d="M 160.0000,0.0000 L 160.0000,200.0000 L 233.8005,150.0000 L 237.8012,100.0000 L 222.1491,50.0000 Z"
       stroke="black"
       stroke-width="1px"
       fill="none"
       id="path108" />
    <path
       d="M 163.0000,0.0000 L 163.0000,200.0000 L 237.4713,150.0000 L 241.0268,100.0000 L 224.2218,50.0000 Z"
       stroke="black"
       stroke-width="1px"
       fill="none"
       id="path110" />
    <path
       d="M 166.0000,0.0000 L 166.0000,200.0000 L 240.0648,150.0000 L 244.2397,100.0000 L 229.0380,50.0000 Z"
       stroke="black"
       stroke-width="1px"
       fill="none"
       id="path112" />
    <path
       d="M 169.0000,0.0000 L 169.0000,200.0000 L 243.3812,150.0000 L 245.1928,100.0000 L 234.0485,50.0000 Z"
       stroke="black"
       stroke-width="1px"
       fill="none"
       id="path114" />
    <path
       d="M 172.0000,0.0000 L 172.0000,200.0000 L 245.5668,150.0000 L 248.3643,100.0000 L 240.6013,50.0000 Z"
       stroke="black"
       stroke-width="1px"
       fill="none"
       id="path116" />
    <path
       d="M 175.0000,0.0000 L 175.0000,200.0000 L 248.7424,150.0000 L 251.0443,100.0000 L 245.7502,50.0000 Z"
       stroke="black"
       stroke-width="1px"
       fill="none"
       id="path118" />
    <path
       d="M 178.0000,0.0000 L 178.0000,200.0000 L 251.6405,150.0000 L 252.3315,100.0000 L 250.5886,50.0000 Z"
       stroke="black"
       stroke-width="1px"
       fill="none"
       id="path120" />
    <path
       d="M 181.0000,0.0000 L 181.0000,200.0000 L 253.8123,150.0000 L 253.2550,100.0000 L 254.3862,50.0000 Z"
       stroke="black"
       stroke-width="1px"
       fill="none"
       id="path122" />
    <path
       d="M 184.0000,0.0000 L 184.0000,200.0000 L 253.2586,150.0000 L 254.9611,100.0000 L 259.4373,50.0000 Z"
       stroke="black"
       stroke-width="1px"
       fill="none"
       id="path124" />
    <path
       d="M 187.0000,0.0000 L 187.0000,200.0000 L 254.0648,150.0000 L 257.5551,100.0000 L 264.0982,50.0000 Z"
       stroke="black"
       stroke-width="1px"
       fill="none"
       id="path126" />
    <path
       d="M 190.0000,0.0000 L 190.0000,200.0000 L 255.6188,150.0000 L 259.6782,100.0000 L 268.1376,50.0000 Z"
       stroke="black"
       stroke-width="1px"
       fill="none"
       id="path128" />
    <path
       d="M 193.0000,0.0000 L 193.0000,200.0000 L 256.8985,150.0000 L 260.7010,100.0000 L 271.0627,50.0000 Z"
       stroke="black"
       stroke-width="1px"
       fill="none"
       id="path130" />
    <path
       d="M 196.0000,0.0000 L 196.0000,200.0000 L 257.7231,150.0000 L 260.3341,100.0000 L 275.7621,50.0000 Z"
       stroke="black"
       stroke-width="1px"
       fill="none"
       id="path132" />
    <path
       d="M 199.0000,0.0000 L 199.0000,200.0000 L 258.3021,150.0000 L 259.6178,100.0000 L 280.1112,50.0000 Z"
       stroke="black"
       stroke-width="1px"
       fill="none"
       id="path134" />
  </g>
</svg>
