<?xml version="1.0" encoding="UTF-8"?>
<!DOCTYPE svg PUBLIC "-//W3C//DTD SVG 1.1//EN"
    "http://www.w3.org/Graphics/SVG/1.1/DTD/svg11.dtd"><svg xmlns="http://www.w3.org/2000/svg" height="200" width="200" xmlns:xlink="http://www.w3.org/1999/xlink" version="1.11.1"><g><path d="M 0.0000,0.0000 L 2.1474,2.0000 L 4.2601,4.0000 L 6.3069,6.0000 L 8.2609,8.0000 L 10.0985,10.0000 L 11.8000,12.0000 L 13.3486,14.0000 L 14.7308,16.0000 L 15.9358,18.0000 L 16.9557,20.0000 L 17.7848,22.0000 L 18.4199,24.0000 L 18.8598,26.0000 L 19.1053,28.0000 L 19.1588,30.0000 L 19.0246,32.0000 L 18.7083,34.0000 L 18.2166,36.0000 L 17.5577,38.0000 L 16.7405,40.0000 L 15.7750,42.0000 L 14.6717,44.0000 L 13.4418,46.0000 L 12.0971,48.0000 L 10.6496,50.0000 L 9.1116,52.0000 L 7.4956,54.0000 L 5.8141,56.0000 L 4.0796,58.0000 L 2.3044,60.0000 L 0.5006,62.0000 L -1.3201,64.0000 L -3.1460,66.0000 L -4.9664,68.0000 L -6.7707,70.0000 L -8.5489,72.0000 L -10.2919,74.0000 L -11.9909,76.0000 L -13.6381,78.0000 L -15.2263,80.0000 L -16.7490,82.0000 L -18.2008,84.0000 L -19.5767,86.0000 L -20.8730,88.0000 L -22.0865,90.0000 L -23.2150,92.0000 L -24.2571,94.0000 L -25.2124,96.0000 L -26.0811,98.0000 L -26.8644,100.0000 L -27.5643,102.0000 L -28.1835,104.0000 L -28.7254,106.0000 L -29.1943,108.0000 L -29.5950,110.0000 L -29.9330,112.0000 L -30.2143,114.0000 L -30.4454,116.0000 L -30.6333,118.0000 L -30.7855,120.0000 L -30.9094,122.0000 L -31.0131,124.0000 L -31.1037,126.0000 L -31.1727,128.0000 L -31.1988,130.0000 L -31.1650,132.0000 L -31.0591,134.0000 L -30.8730,136.0000 L -30.6025,138.0000 L -30.2468,140.0000 L -29.8080,142.0000 L -29.2911,144.0000 L -28.7032,146.0000 L -28.0535,148.0000 L -27.3528,150.0000 L -26.6131,152.0000 L -25.8477,154.0000 L -25.0704,156.0000 L -24.2957,158.0000 L -23.5382,160.0000 L -22.8127,162.0000 L -22.1337,164.0000 L -21.5152,166.0000 L -20.9709,168.0000 L -20.5134,170.0000 L -20.1548,172.0000 L -19.9058,174.0000 L -19.7761,176.0000 L -19.7743,178.0000 L -19.9073,180.0000 L -20.1807,182.0000 L -20.5989,184.0000 L -21.1642,186.0000 L -21.8778,188.0000 L -22.7390,190.0000 L -23.7459,192.0000 L -24.8946,194.0000 L -26.1798,196.0000 L -27.5950,198.0000 L -29.1319,200.0000 " stroke="black" stroke-width="5.0" fill="none"/><path d="M 72.0472,0.0000 L 74.1140,2.0000 L 76.1401,4.0000 L 78.0892,6.0000 L 79.9291,8.0000 L 81.6324,10.0000 L 83.1752,12.0000 L 84.5376,14.0000 L 85.7031,16.0000 L 86.6585,18.0000 L 87.3939,20.0000 L 87.9020,22.0000 L 88.1784,24.0000 L 88.2210,26.0000 L 88.0301,28.0000 L 87.6079,30.0000 L 86.9588,32.0000 L 86.0888,34.0000 L 85.0053,36.0000 L 83.7174,38.0000 L 82.2351,40.0000 L 80.5697,42.0000 L 78.7334,44.0000 L 76.7390,46.0000 L 74.6003,48.0000 L 72.3312,50.0000 L 69.9463,52.0000 L 67.4602,54.0000 L 64.8879,56.0000 L 62.2441,58.0000 L 59.5438,60.0000 L 56.8014,62.0000 L 54.0315,64.0000 L 51.2479,66.0000 L 48.4642,68.0000 L 45.6933,70.0000 L 42.9477,72.0000 L 40.2391,74.0000 L 37.5785,76.0000 L 34.9760,78.0000 L 32.4410,80.0000 L 29.9819,82.0000 L 27.6063,84.0000 L 25.3208,86.0000 L 23.1308,88.0000 L 21.0409,90.0000 L 19.0546,92.0000 L 17.1743,94.0000 L 15.4014,96.0000 L 13.7363,98.0000 L 12.1781,100.0000 L 10.7251,102.0000 L 9.3744,104.0000 L 8.1221,106.0000 L 6.9634,108.0000 L 5.8925,110.0000 L 4.9025,112.0000 L 3.9858,114.0000 L 3.1340,116.0000 L 2.3378,118.0000 L 1.5870,120.0000 L 0.8711,122.0000 L 0.1787,124.0000 L -0.5011,126.0000 L -1.1619,128.0000 L -1.7829,130.0000 L -2.3472,132.0000 L -2.8427,134.0000 L -3.2614,136.0000 L -3.5989,138.0000 L -3.8544,140.0000 L -4.0300,142.0000 L -4.1301,144.0000 L -4.1619,146.0000 L -4.1340,148.0000 L -4.0568,150.0000 L -3.9421,152.0000 L -3.8025,154.0000 L -3.6515,156.0000 L -3.5030,158.0000 L -3.3710,160.0000 L -3.2698,162.0000 L -3.2132,164.0000 L -3.2148,166.0000 L -3.2874,168.0000 L -3.4433,170.0000 L -3.6937,172.0000 L -4.0489,174.0000 L -4.5179,176.0000 L -5.1085,178.0000 L -5.8273,180.0000 L -6.6793,182.0000 L -7.6679,184.0000 L -8.7954,186.0000 L -10.0621,188.0000 L -11.4670,190.0000 L -13.0076,192.0000 L -14.6795,194.0000 L -16.4773,196.0000 L -18.3937,198.0000 L -20.4203,200.0000 " stroke="black" stroke-width="5.0" fill="none"/><path d="M 121.7904,0.0000 L 123.4479,2.0000 L 125.0681,4.0000 L 126.6178,6.0000 L 128.0683,8.0000 L 129.3946,10.0000 L 130.5756,12.0000 L 131.5939,14.0000 L 132.4352,16.0000 L 133.0883,18.0000 L 133.5449,20.0000 L 133.7994,22.0000 L 133.8485,24.0000 L 133.6912,26.0000 L 133.3286,28.0000 L 132.7635,30.0000 L 132.0006,32.0000 L 131.0459,34.0000 L 129.9067,36.0000 L 128.5917,38.0000 L 127.1104,40.0000 L 125.4731,42.0000 L 123.6910,44.0000 L 121.7758,46.0000 L 119.7396,48.0000 L 117.5949,50.0000 L 115.3543,52.0000 L 113.0305,54.0000 L 110.6363,56.0000 L 108.1842,58.0000 L 105.6867,60.0000 L 103.1557,62.0000 L 100.6030,64.0000 L 98.0399,66.0000 L 95.4770,68.0000 L 92.9246,70.0000 L 90.3920,72.0000 L 87.8882,74.0000 L 85.4211,76.0000 L 82.9982,78.0000 L 80.6259,80.0000 L 78.3099,82.0000 L 76.0551,84.0000 L 73.8655,86.0000 L 71.7443,88.0000 L 69.6937,90.0000 L 67.7153,92.0000 L 65.8097,94.0000 L 63.9767,96.0000 L 62.2154,98.0000 L 60.5241,100.0000 L 58.9003,102.0000 L 57.3411,104.0000 L 55.8428,106.0000 L 54.4012,108.0000 L 53.0115,110.0000 L 51.6687,112.0000 L 50.3673,114.0000 L 49.1016,116.0000 L 47.8659,118.0000 L 46.6542,120.0000 L 45.4606,122.0000 L 44.2794,124.0000 L 43.1059,126.0000 L 41.9493,128.0000 L 40.8297,130.0000 L 39.7632,132.0000 L 38.7613,134.0000 L 37.8315,136.0000 L 36.9779,138.0000 L 36.2011,140.0000 L 35.4992,142.0000 L 34.8675,144.0000 L 34.2993,146.0000 L 33.7860,148.0000 L 33.3178,150.0000 L 32.8831,152.0000 L 32.4700,154.0000 L 32.0654,156.0000 L 31.6561,158.0000 L 31.2285,160.0000 L 30.7693,162.0000 L 30.2651,164.0000 L 29.7032,166.0000 L 29.0713,168.0000 L 28.3580,170.0000 L 27.5528,172.0000 L 26.6459,174.0000 L 25.6292,176.0000 L 24.4953,178.0000 L 23.2386,180.0000 L 21.8545,182.0000 L 20.3400,184.0000 L 18.6937,186.0000 L 16.9155,188.0000 L 15.0069,190.0000 L 12.9711,192.0000 L 10.8124,194.0000 L 8.5368,196.0000 L 6.1517,198.0000 L 3.6659,200.0000 " stroke="black" stroke-width="5.0" fill="none"/><path d="M 146.9666,0.0000 L 147.8849,2.0000 L 148.7770,4.0000 L 149.6199,6.0000 L 150.3943,8.0000 L 151.0841,10.0000 L 151.6763,12.0000 L 152.1604,14.0000 L 152.5288,16.0000 L 152.7759,18.0000 L 152.8985,20.0000 L 152.8950,22.0000 L 152.7658,24.0000 L 152.5125,26.0000 L 152.1384,28.0000 L 151.6477,30.0000 L 151.0456,32.0000 L 150.3383,34.0000 L 149.5325,36.0000 L 148.6355,38.0000 L 147.6550,40.0000 L 146.5992,42.0000 L 145.4761,44.0000 L 144.2939,46.0000 L 143.0609,48.0000 L 141.7850,50.0000 L 140.4741,52.0000 L 139.1355,54.0000 L 137.7763,56.0000 L 136.4032,58.0000 L 135.0223,60.0000 L 133.6391,62.0000 L 132.2585,64.0000 L 130.8850,66.0000 L 129.5220,68.0000 L 128.1727,70.0000 L 126.8393,72.0000 L 125.5234,74.0000 L 124.2260,76.0000 L 122.9473,78.0000 L 121.6870,80.0000 L 120.4441,82.0000 L 119.2169,84.0000 L 118.0035,86.0000 L 116.8012,88.0000 L 115.6071,90.0000 L 114.4178,92.0000 L 113.2297,94.0000 L 112.0390,96.0000 L 110.8419,98.0000 L 109.6345,100.0000 L 108.4130,102.0000 L 107.1739,104.0000 L 105.9140,106.0000 L 104.6306,108.0000 L 103.3217,110.0000 L 101.9861,112.0000 L 100.6233,114.0000 L 99.2341,116.0000 L 97.8204,118.0000 L 96.3859,120.0000 L 94.9355,122.0000 L 93.4761,124.0000 L 92.0169,126.0000 L 90.5748,128.0000 L 89.1697,130.0000 L 87.8175,132.0000 L 86.5296,134.0000 L 85.3133,136.0000 L 84.1729,138.0000 L 83.1092,140.0000 L 82.1203,142.0000 L 81.2020,144.0000 L 80.3478,146.0000 L 79.5496,148.0000 L 78.7976,150.0000 L 78.0811,152.0000 L 77.3882,154.0000 L 76.7063,156.0000 L 76.0227,158.0000 L 75.3242,160.0000 L 74.5975,162.0000 L 73.8299,164.0000 L 73.0087,166.0000 L 72.1220,168.0000 L 71.1584,170.0000 L 70.1077,172.0000 L 68.9602,174.0000 L 67.7076,176.0000 L 66.3427,178.0000 L 64.8597,180.0000 L 63.2538,182.0000 L 61.5219,184.0000 L 59.6622,186.0000 L 57.6744,188.0000 L 55.5595,190.0000 L 53.3203,192.0000 L 50.9606,194.0000 L 48.4859,196.0000 L 45.9030,198.0000 L 43.2199,200.0000 " stroke="black" stroke-width="5.0" fill="none"/><path d="M 158.2621,0.0000 L 158.3162,2.0000 L 158.3551,4.0000 L 158.3666,6.0000 L 158.3409,8.0000 L 158.2711,10.0000 L 158.1524,12.0000 L 157.9818,14.0000 L 157.7586,16.0000 L 157.4833,18.0000 L 157.1578,20.0000 L 156.7854,22.0000 L 156.3702,24.0000 L 155.9171,26.0000 L 155.4318,28.0000 L 154.9202,30.0000 L 154.3889,32.0000 L 153.8442,34.0000 L 153.2929,36.0000 L 152.7414,38.0000 L 152.1960,40.0000 L 151.6628,42.0000 L 151.1473,44.0000 L 150.6547,46.0000 L 150.1895,48.0000 L 149.7556,50.0000 L 149.3563,52.0000 L 148.9941,54.0000 L 148.6706,56.0000 L 148.3869,58.0000 L 148.1428,60.0000 L 147.9378,62.0000 L 147.7701,64.0000 L 147.6373,66.0000 L 147.5362,68.0000 L 147.4626,70.0000 L 147.4119,72.0000 L 147.3784,74.0000 L 147.3559,76.0000 L 147.3377,78.0000 L 147.3165,80.0000 L 147.2845,82.0000 L 147.2337,84.0000 L 147.1557,86.0000 L 147.0420,88.0000 L 146.8843,90.0000 L 146.6742,92.0000 L 146.4035,94.0000 L 146.0646,96.0000 L 145.6504,98.0000 L 145.1544,100.0000 L 144.5713,102.0000 L 143.8967,104.0000 L 143.1274,106.0000 L 142.2619,108.0000 L 141.3002,110.0000 L 140.2446,112.0000 L 139.0992,114.0000 L 137.8706,116.0000 L 136.5682,118.0000 L 135.2043,120.0000 L 133.7942,122.0000 L 132.3569,124.0000 L 130.9152,126.0000 L 129.4937,128.0000 L 128.1141,130.0000 L 126.7932,132.0000 L 125.5435,134.0000 L 124.3735,136.0000 L 123.2883,138.0000 L 122.2894,140.0000 L 121.3759,142.0000 L 120.5441,144.0000 L 119.7880,146.0000 L 119.1001,148.0000 L 118.4709,150.0000 L 117.8898,152.0000 L 117.3451,154.0000 L 116.8243,156.0000 L 116.3143,158.0000 L 115.8017,160.0000 L 115.2732,162.0000 L 114.7151,164.0000 L 114.1145,166.0000 L 113.4586,168.0000 L 112.7353,170.0000 L 111.9331,172.0000 L 111.0418,174.0000 L 110.0516,176.0000 L 108.9542,178.0000 L 107.7424,180.0000 L 106.4101,182.0000 L 104.9527,184.0000 L 103.3668,186.0000 L 101.6505,188.0000 L 99.8033,190.0000 L 97.8261,192.0000 L 95.7212,194.0000 L 93.4922,196.0000 L 91.1443,198.0000 L 88.6836,200.0000 " stroke="black" stroke-width="5.0" fill="none"/><path d="M 169.5925,0.0000 L 168.9004,2.0000 L 168.1973,4.0000 L 167.4750,6.0000 L 166.7280,8.0000 L 165.9530,10.0000 L 165.1487,12.0000 L 164.3160,14.0000 L 163.4571,16.0000 L 162.5757,18.0000 L 161.6767,20.0000 L 160.7659,22.0000 L 159.8498,24.0000 L 158.9357,26.0000 L 158.0310,28.0000 L 157.1435,30.0000 L 156.2809,32.0000 L 155.4511,34.0000 L 154.6615,36.0000 L 153.9192,38.0000 L 153.2311,40.0000 L 152.6032,42.0000 L 152.0411,44.0000 L 151.5496,46.0000 L 151.1324,48.0000 L 150.7929,50.0000 L 150.5330,52.0000 L 150.3541,54.0000 L 150.2562,56.0000 L 150.2386,58.0000 L 150.2994,60.0000 L 150.4358,62.0000 L 150.6438,64.0000 L 150.9187,66.0000 L 151.2545,68.0000 L 151.6445,70.0000 L 152.0811,72.0000 L 152.5559,74.0000 L 153.0597,76.0000 L 153.5828,78.0000 L 154.1149,80.0000 L 154.6452,82.0000 L 155.1626,84.0000 L 155.6559,86.0000 L 156.1137,88.0000 L 156.5247,90.0000 L 156.8781,92.0000 L 157.1632,94.0000 L 157.3700,96.0000 L 157.4894,98.0000 L 157.5131,100.0000 L 157.4342,102.0000 L 157.2471,104.0000 L 156.9478,106.0000 L 156.5343,108.0000 L 156.0067,110.0000 L 155.3676,112.0000 L 154.6221,114.0000 L 153.7785,116.0000 L 152.8481,118.0000 L 151.8460,120.0000 L 150.7910,122.0000 L 149.7063,124.0000 L 148.6195,126.0000 L 147.5593,128.0000 L 146.5498,130.0000 L 145.6101,132.0000 L 144.7546,134.0000 L 143.9936,136.0000 L 143.3333,138.0000 L 142.7768,140.0000 L 142.3240,142.0000 L 141.9719,144.0000 L 141.7152,146.0000 L 141.5465,148.0000 L 141.4564,150.0000 L 141.4343,152.0000 L 141.4679,154.0000 L 141.5444,156.0000 L 141.6498,158.0000 L 141.7700,160.0000 L 141.8902,162.0000 L 141.9959,164.0000 L 142.0724,166.0000 L 142.1056,168.0000 L 142.0814,170.0000 L 141.9869,172.0000 L 141.8094,174.0000 L 141.5374,176.0000 L 141.1603,178.0000 L 140.6687,180.0000 L 140.0541,182.0000 L 139.3096,184.0000 L 138.4294,186.0000 L 137.4090,188.0000 L 136.2456,190.0000 L 134.9375,192.0000 L 133.4845,194.0000 L 131.8879,196.0000 L 130.1504,198.0000 L 128.2759,200.0000 " stroke="black" stroke-width="5.0" fill="none"/><path d="M 188.4761,0.0000 L 187.2699,2.0000 L 186.0481,4.0000 L 184.7981,6.0000 L 183.5109,8.0000 L 182.1801,10.0000 L 180.8021,12.0000 L 179.3758,14.0000 L 177.9019,16.0000 L 176.3832,18.0000 L 174.8240,20.0000 L 173.2300,22.0000 L 171.6081,24.0000 L 169.9659,26.0000 L 168.3120,28.0000 L 166.6555,30.0000 L 165.0056,32.0000 L 163.3720,34.0000 L 161.7641,36.0000 L 160.1916,38.0000 L 158.6635,40.0000 L 157.1887,42.0000 L 155.7755,44.0000 L 154.4316,46.0000 L 153.1640,48.0000 L 151.9788,50.0000 L 150.8814,52.0000 L 149.8763,54.0000 L 148.9668,56.0000 L 148.1554,58.0000 L 147.4435,60.0000 L 146.8315,62.0000 L 146.3185,64.0000 L 145.9029,66.0000 L 145.5816,68.0000 L 145.3509,70.0000 L 145.2059,72.0000 L 145.1408,74.0000 L 145.1489,76.0000 L 145.2226,78.0000 L 145.3537,80.0000 L 145.5334,82.0000 L 145.7521,84.0000 L 146.0000,86.0000 L 146.2668,88.0000 L 146.5423,90.0000 L 146.8160,92.0000 L 147.0775,94.0000 L 147.3170,96.0000 L 147.5248,98.0000 L 147.6920,100.0000 L 147.8107,102.0000 L 147.8738,104.0000 L 147.8755,106.0000 L 147.8118,108.0000 L 147.6802,110.0000 L 147.4801,112.0000 L 147.2134,114.0000 L 146.8845,116.0000 L 146.5006,118.0000 L 146.0720,120.0000 L 145.6123,122.0000 L 145.1391,124.0000 L 144.6740,126.0000 L 144.2441,128.0000 L 143.8755,130.0000 L 143.5896,132.0000 L 143.4025,134.0000 L 143.3259,136.0000 L 143.3675,138.0000 L 143.5312,140.0000 L 143.8174,142.0000 L 144.2237,144.0000 L 144.7448,146.0000 L 145.3731,148.0000 L 146.0990,150.0000 L 146.9112,152.0000 L 147.7969,154.0000 L 148.7419,156.0000 L 149.7314,158.0000 L 150.7497,160.0000 L 151.7807,162.0000 L 152.8081,164.0000 L 153.8155,166.0000 L 154.7868,168.0000 L 155.7060,170.0000 L 156.5578,172.0000 L 157.3275,174.0000 L 158.0014,176.0000 L 158.5663,178.0000 L 159.0105,180.0000 L 159.3232,182.0000 L 159.4949,184.0000 L 159.5173,186.0000 L 159.3835,188.0000 L 159.0883,190.0000 L 158.6275,192.0000 L 157.9987,194.0000 L 157.2009,196.0000 L 156.2344,198.0000 L 155.1012,200.0000 " stroke="black" stroke-width="5.0" fill="none"/><path d="M 210.5968,0.0000 L 208.9900,2.0000 L 207.3583,4.0000 L 205.6812,6.0000 L 203.9421,8.0000 L 202.1285,10.0000 L 200.2313,12.0000 L 198.2447,14.0000 L 196.1660,16.0000 L 193.9947,18.0000 L 191.7331,20.0000 L 189.3854,22.0000 L 186.9577,24.0000 L 184.4575,26.0000 L 181.8938,28.0000 L 179.2767,30.0000 L 176.6173,32.0000 L 173.9272,34.0000 L 171.2186,36.0000 L 168.5041,38.0000 L 165.7962,40.0000 L 163.1077,42.0000 L 160.4511,44.0000 L 157.8384,46.0000 L 155.2815,48.0000 L 152.7916,50.0000 L 150.3792,52.0000 L 148.0542,54.0000 L 145.8254,56.0000 L 143.7009,58.0000 L 141.6878,60.0000 L 139.7921,62.0000 L 138.0188,64.0000 L 136.3718,66.0000 L 134.8538,68.0000 L 133.4664,70.0000 L 132.2100,72.0000 L 131.0842,74.0000 L 130.0871,76.0000 L 129.2160,78.0000 L 128.4671,80.0000 L 127.8356,82.0000 L 127.3158,84.0000 L 126.9015,86.0000 L 126.5853,88.0000 L 126.3595,90.0000 L 126.2157,92.0000 L 126.1454,94.0000 L 126.1394,96.0000 L 126.1887,98.0000 L 126.2844,100.0000 L 126.4175,102.0000 L 126.5795,104.0000 L 126.7627,106.0000 L 126.9599,108.0000 L 127.1648,110.0000 L 127.3726,112.0000 L 127.5797,114.0000 L 127.7841,116.0000 L 127.9860,118.0000 L 128.1875,120.0000 L 128.3933,122.0000 L 128.6107,124.0000 L 128.8505,126.0000 L 129.1348,128.0000 L 129.4910,130.0000 L 129.9416,132.0000 L 130.5039,134.0000 L 131.1905,136.0000 L 132.0096,138.0000 L 132.9655,140.0000 L 134.0587,142.0000 L 135.2867,144.0000 L 136.6442,146.0000 L 138.1231,148.0000 L 139.7132,150.0000 L 141.4024,152.0000 L 143.1771,154.0000 L 145.0221,156.0000 L 146.9213,158.0000 L 148.8579,160.0000 L 150.8143,162.0000 L 152.7727,164.0000 L 154.7152,166.0000 L 156.6238,168.0000 L 158.4811,170.0000 L 160.2698,172.0000 L 161.9734,174.0000 L 163.5762,176.0000 L 165.0633,178.0000 L 166.4209,180.0000 L 167.6362,182.0000 L 168.6978,184.0000 L 169.5956,186.0000 L 170.3207,188.0000 L 170.8658,190.0000 L 171.2252,192.0000 L 171.3946,194.0000 L 171.3711,196.0000 L 171.1536,198.0000 L 170.7424,200.0000 " stroke="black" stroke-width="5.0" fill="none"/><path d="M 238.1425,0.0000 L 236.2890,2.0000 L 234.3976,4.0000 L 232.4357,6.0000 L 230.3766,8.0000 L 228.1983,10.0000 L 225.8840,12.0000 L 223.4209,14.0000 L 220.8006,16.0000 L 218.0183,18.0000 L 215.0727,20.0000 L 211.9655,22.0000 L 208.7012,24.0000 L 205.2868,26.0000 L 201.7315,28.0000 L 198.0465,30.0000 L 194.2445,32.0000 L 190.3398,34.0000 L 186.3477,36.0000 L 182.2846,38.0000 L 178.1675,40.0000 L 174.0140,42.0000 L 169.8421,44.0000 L 165.6696,46.0000 L 161.5146,48.0000 L 157.3950,50.0000 L 153.3280,52.0000 L 149.3306,54.0000 L 145.4191,56.0000 L 141.6090,58.0000 L 137.9150,60.0000 L 134.3507,62.0000 L 130.9287,64.0000 L 127.6607,66.0000 L 124.5569,68.0000 L 121.6263,70.0000 L 118.8768,72.0000 L 116.3147,74.0000 L 113.9452,76.0000 L 111.7719,78.0000 L 109.7973,80.0000 L 108.0223,82.0000 L 106.4466,84.0000 L 105.0686,86.0000 L 103.8855,88.0000 L 102.8930,90.0000 L 102.0860,92.0000 L 101.4582,94.0000 L 101.0023,96.0000 L 100.7103,98.0000 L 100.5732,100.0000 L 100.5813,102.0000 L 100.7248,104.0000 L 100.9931,106.0000 L 101.3754,108.0000 L 101.8612,110.0000 L 102.4397,112.0000 L 103.1007,114.0000 L 103.8342,116.0000 L 104.6312,118.0000 L 105.4834,120.0000 L 106.3837,122.0000 L 107.3265,124.0000 L 108.3084,126.0000 L 109.3420,128.0000 L 110.4517,130.0000 L 111.6572,132.0000 L 112.9734,134.0000 L 114.4104,136.0000 L 115.9746,138.0000 L 117.6683,140.0000 L 119.4906,142.0000 L 121.4377,144.0000 L 123.5027,146.0000 L 125.6768,148.0000 L 127.9488,150.0000 L 130.3060,152.0000 L 132.7340,154.0000 L 135.2172,156.0000 L 137.7394,158.0000 L 140.2832,160.0000 L 142.8312,162.0000 L 145.3655,164.0000 L 147.8683,166.0000 L 150.3217,168.0000 L 152.7085,170.0000 L 155.0119,172.0000 L 157.2155,174.0000 L 159.3042,176.0000 L 161.2635,178.0000 L 163.0799,180.0000 L 164.7415,182.0000 L 166.2372,184.0000 L 167.5574,186.0000 L 168.6941,188.0000 L 169.6404,190.0000 L 170.3912,192.0000 L 170.9428,194.0000 L 171.2930,196.0000 L 171.4413,198.0000 L 171.3887,200.0000 " stroke="black" stroke-width="5.0" fill="none"/><path d="M 261.2055,0.0000 L 259.3147,2.0000 L 257.3743,4.0000 L 255.3411,6.0000 L 253.1786,8.0000 L 250.8569,10.0000 L 248.3517,12.0000 L 245.6442,14.0000 L 242.7208,16.0000 L 239.5727,18.0000 L 236.1952,20.0000 L 232.5877,22.0000 L 228.7532,24.0000 L 224.6982,26.0000 L 220.4318,28.0000 L 215.9660,30.0000 L 211.3152,32.0000 L 206.4956,34.0000 L 201.5254,36.0000 L 196.4242,38.0000 L 191.2129,40.0000 L 185.9132,42.0000 L 180.5479,44.0000 L 175.1399,46.0000 L 169.7128,48.0000 L 164.2900,50.0000 L 158.8951,52.0000 L 153.5510,54.0000 L 148.2806,56.0000 L 143.1059,58.0000 L 138.0482,60.0000 L 133.1280,62.0000 L 128.3646,64.0000 L 123.7763,66.0000 L 119.3800,68.0000 L 115.1914,70.0000 L 111.2247,72.0000 L 107.4925,74.0000 L 104.0060,76.0000 L 100.7746,78.0000 L 97.8062,80.0000 L 95.1068,82.0000 L 92.6809,84.0000 L 90.5311,86.0000 L 88.6585,88.0000 L 87.0622,90.0000 L 85.7399,92.0000 L 84.6875,94.0000 L 83.8993,96.0000 L 83.3681,98.0000 L 83.0853,100.0000 L 83.0408,102.0000 L 83.2233,104.0000 L 83.6202,106.0000 L 84.2179,108.0000 L 85.0018,110.0000 L 85.9564,112.0000 L 87.0658,114.0000 L 88.3134,116.0000 L 89.6820,118.0000 L 91.1548,120.0000 L 92.7144,122.0000 L 94.3442,124.0000 L 96.0283,126.0000 L 97.7684,128.0000 L 99.5805,130.0000 L 101.4767,132.0000 L 103.4653,134.0000 L 105.5507,136.0000 L 107.7341,138.0000 L 110.0136,140.0000 L 112.3847,142.0000 L 114.8405,144.0000 L 117.3721,146.0000 L 119.9687,148.0000 L 122.6181,150.0000 L 125.3068,152.0000 L 128.0205,154.0000 L 130.7438,156.0000 L 133.4613,158.0000 L 136.1567,160.0000 L 138.8142,162.0000 L 141.4176,164.0000 L 143.9512,166.0000 L 146.3998,168.0000 L 148.7487,170.0000 L 150.9839,172.0000 L 153.0923,174.0000 L 155.0618,176.0000 L 156.8812,178.0000 L 158.5409,180.0000 L 160.0321,182.0000 L 161.3474,184.0000 L 162.4811,186.0000 L 163.4285,188.0000 L 164.1866,190.0000 L 164.7537,192.0000 L 165.1297,194.0000 L 165.3159,196.0000 L 165.3150,198.0000 L 165.1312,200.0000 " stroke="black" stroke-width="5.0" fill="none"/><path d="M 267.2964,0.0000 L 265.4871,2.0000 L 263.6246,4.0000 L 261.6626,6.0000 L 259.5617,8.0000 L 257.2894,10.0000 L 254.8194,12.0000 L 252.1311,14.0000 L 249.2095,16.0000 L 246.0445,18.0000 L 242.6307,20.0000 L 238.9667,22.0000 L 235.0555,24.0000 L 230.9031,26.0000 L 226.5191,28.0000 L 221.9158,30.0000 L 217.1081,32.0000 L 212.1131,34.0000 L 206.9499,36.0000 L 201.6392,38.0000 L 196.2032,40.0000 L 190.6652,42.0000 L 185.0494,44.0000 L 179.3805,46.0000 L 173.6836,48.0000 L 167.9844,50.0000 L 162.3080,52.0000 L 156.6796,54.0000 L 151.1241,56.0000 L 145.6655,58.0000 L 140.3274,60.0000 L 135.1322,62.0000 L 130.1016,64.0000 L 125.2558,66.0000 L 120.6139,68.0000 L 116.1937,70.0000 L 112.0113,72.0000 L 108.0814,74.0000 L 104.4170,76.0000 L 101.0292,78.0000 L 97.9278,80.0000 L 95.1203,82.0000 L 92.6126,84.0000 L 90.4088,86.0000 L 88.5110,88.0000 L 86.9196,90.0000 L 85.6329,92.0000 L 84.6477,94.0000 L 83.9588,96.0000 L 83.5594,98.0000 L 83.4407,100.0000 L 83.5928,102.0000 L 84.0039,104.0000 L 84.6609,106.0000 L 85.5492,108.0000 L 86.6533,110.0000 L 87.9564,112.0000 L 89.4406,114.0000 L 91.0875,116.0000 L 92.8778,118.0000 L 94.7919,120.0000 L 96.8097,122.0000 L 98.9112,124.0000 L 101.0768,126.0000 L 103.3010,128.0000 L 105.5898,130.0000 L 107.9464,132.0000 L 110.3710,134.0000 L 112.8614,136.0000 L 115.4127,138.0000 L 118.0182,140.0000 L 120.6691,142.0000 L 123.3554,144.0000 L 126.0657,146.0000 L 128.7874,148.0000 L 131.5073,150.0000 L 134.2117,152.0000 L 136.8864,154.0000 L 139.5170,156.0000 L 142.0891,158.0000 L 144.5888,160.0000 L 147.0021,162.0000 L 149.3159,164.0000 L 151.5176,166.0000 L 153.5952,168.0000 L 155.5379,170.0000 L 157.3358,172.0000 L 158.9798,174.0000 L 160.4625,176.0000 L 161.7772,178.0000 L 162.9189,180.0000 L 163.8837,182.0000 L 164.6692,184.0000 L 165.2743,186.0000 L 165.6994,188.0000 L 165.9462,190.0000 L 166.0179,192.0000 L 165.9190,194.0000 L 165.6554,196.0000 L 165.2341,198.0000 L 164.6635,200.0000 " stroke="black" stroke-width="5.0" fill="none"/></g></svg>