<?xml version="1.0" encoding="UTF-8"?>
<!DOCTYPE svg PUBLIC "-//W3C//DTD SVG 1.1//EN"
    "http://www.w3.org/Graphics/SVG/1.1/DTD/svg11.dtd"><svg xmlns="http://www.w3.org/2000/svg" height="200" width="200" xmlns:xlink="http://www.w3.org/1999/xlink" version="1.11.1"><g><circle cy="0.0" r="1.0" cx="0.0"/><circle cy="11.864716613718755" r="1.0" cx="4.864716613718756"/><circle cy="22.89906180224166" r="1.0" cx="8.899061802241663"/><circle cy="32.596238784489316" r="1.0" cx="11.596238784489318"/><circle cy="40.736838125010074" r="1.0" cx="12.736838125010074"/><circle cy="47.32259886330837" r="1.0" cx="12.322598863308375"/><circle cy="52.51665645566685" r="1.0" cx="10.516656455666851"/><circle cy="56.59027752946207" r="1.0" cx="7.590277529462068"/><circle cy="59.876081449974045" r="1.0" cx="3.8760814499740435"/><circle cy="62.72774869968934" r="1.0" cx="-0.27225130031065664"/><circle cy="65.48621607009807" r="1.0" cx="-4.5137839299019324"/><circle cy="68.45235866598435" r="1.0" cx="-8.547641334015644"/><circle cy="71.86615872221078" r="1.0" cx="-12.133841277789221"/><circle cy="75.89236123299627" r="1.0" cx="-15.107638767003737"/><circle cy="80.61261639368769" r="1.0" cx="-17.387383606312312"/><circle cy="86.02410885502576" r="1.0" cx="-18.97589114497425"/><circle cy="92.04467378990336" r="1.0" cx="-19.95532621009664"/><circle cy="98.52439977261916" r="1.0" cx="-20.475600227380834"/><circle cy="105.26420343883231" r="1.0" cx="-20.73579656116768"/><circle cy="112.25219494433766" r="1.0" cx="-20.74780505566234"/><circle cy="119.83548077616086" r="1.0" cx="-20.164519223839143"/><circle cy="128.07636427773528" r="1.0" cx="-18.923635722264727"/><circle cy="136.76822286066698" r="1.0" cx="-17.23177713933302"/><circle cy="145.5529467457461" r="1.0" cx="-15.447053254253873"/><circle cy="154.01941525333663" r="1.0" cx="-13.980584746663366"/><circle cy="161.78301064314556" r="1.0" cx="-13.216989356854453"/><circle cy="168.54616950337055" r="1.0" cx="-13.453830496629438"/><circle cy="174.13997168922697" r="1.0" cx="-14.860028310773032"/><circle cy="178.5467668108536" r="1.0" cx="-17.453233189146406"/><circle cy="181.90383827059662" r="1.0" cx="-21.09616172940339"/><circle cy="13.18601253270278" r="1.0" cx="20.18601253270278"/><circle cy="25.02846780366396" r="1.0" cx="25.02846780366396"/><circle cy="35.971137146129955" r="1.0" cx="28.971137146129955"/><circle cy="45.4592423470652" r="1.0" cx="31.459242347065196"/><circle cy="53.24611875455312" r="1.0" cx="32.24611875455312"/><circle cy="59.32406546997321" r="1.0" cx="31.324065469973213"/><circle cy="63.86169320459166" r="1.0" cx="28.86169320459166"/><circle cy="67.14776980056574" r="1.0" cx="25.14776980056574"/><circle cy="69.54156341636177" r="1.0" cx="20.541563416361775"/><circle cy="71.42968337658667" r="1.0" cx="15.429683376586672"/><circle cy="73.18941868623321" r="1.0" cx="10.18941868623321"/><circle cy="75.15857420933882" r="1.0" cx="5.158574209338825"/><circle cy="77.61180451205823" r="1.0" cx="0.6118045120582245"/><circle cy="80.74344537014932" r="1.0" cx="-3.256554629850676"/><circle cy="84.65684294087298" r="1.0" cx="-6.343157059127023"/><circle cy="89.36018059930683" r="1.0" cx="-8.639819400693177"/><circle cy="94.76880343907146" r="1.0" cx="-10.231196560928542"/><circle cy="100.71404043747194" r="1.0" cx="-11.285959562528067"/><circle cy="106.95904231279654" r="1.0" cx="-12.04095768720346"/><circle cy="113.45081306163661" r="1.0" cx="-12.549186938363388"/><circle cy="120.53055050696273" r="1.0" cx="-12.469449493037274"/><circle cy="128.2627141282597" r="1.0" cx="-11.737285871740301"/><circle cy="136.44411364280825" r="1.0" cx="-10.555886357191746"/><circle cy="144.72102767814891" r="1.0" cx="-9.2789723218511"/><circle cy="152.68736433713505" r="1.0" cx="-8.312635662864938"/><circle cy="159.96386365557788" r="1.0" cx="-8.036136344422124"/><circle cy="166.25834195247992" r="1.0" cx="-8.74165804752008"/><circle cy="171.40697807285989" r="1.0" cx="-10.59302192714011"/><circle cy="175.3966415231679" r="1.0" cx="-13.603358476832128"/><circle cy="178.36826249928944" r="1.0" cx="-17.631737500710553"/><circle cy="25.442807390719867" r="1.0" cx="39.442807390719864"/><circle cy="37.21612048141675" r="1.0" cx="44.21612048141675"/><circle cy="48.036906189627025" r="1.0" cx="48.036906189627025"/><circle cy="57.31436984617967" r="1.0" cx="50.31436984617967"/><circle cy="64.78177106994818" r="1.0" cx="50.78177106994817"/><circle cy="70.42480138737128" r="1.0" cx="49.42480138737128"/><circle cy="74.41652808407332" r="1.0" cx="46.41652808407332"/><circle cy="77.0589042885834" r="1.0" cx="42.058904288583406"/><circle cy="78.73084528815413" r="1.0" cx="36.73084528815413"/><circle cy="79.84287107667933" r="1.0" cx="30.842871076679334"/><circle cy="80.7983151347113" r="1.0" cx="24.798315134711302"/><circle cy="81.96109944157696" r="1.0" cx="18.961099441576962"/><circle cy="83.63007571959366" r="1.0" cx="13.630075719593659"/><circle cy="86.01993291038382" r="1.0" cx="9.019932910383817"/><circle cy="89.2486708832889" r="1.0" cx="5.248670883288902"/><circle cy="93.33164037588328" r="1.0" cx="2.3316403758832767"/><circle cy="98.1821491665859" r="1.0" cx="0.1821491665859032"/><circle cy="103.61863447937296" r="1.0" cx="-1.3813655206270443"/><circle cy="109.37893978875181" r="1.0" cx="-2.6210602112481993"/><circle cy="115.38220656292845" r="1.0" cx="-3.6177934370715477"/><circle cy="121.96402440786045" r="1.0" cx="-4.0359755921395575"/><circle cy="129.18972162477718" r="1.0" cx="-3.8102783752228255"/><circle cy="136.8590353454945" r="1.0" cx="-3.140964654505485"/><circle cy="144.62270810175409" r="1.0" cx="-2.3772918982459146"/><circle cy="152.08015373881784" r="1.0" cx="-1.919846261182169"/><circle cy="158.85819267332084" r="1.0" cx="-2.141807326679171"/><circle cy="164.6708564953789" r="1.0" cx="-3.3291435046210935"/><circle cy="169.3602619149541" r="1.0" cx="-5.6397380850459164"/><circle cy="172.91855405247642" r="1.0" cx="-9.081445947523587"/><circle cy="175.49091907372116" r="1.0" cx="-13.509080926278845"/><circle cy="36.10583391597558" r="1.0" cx="57.10583391597558"/><circle cy="47.73048203132866" r="1.0" cx="61.73048203132866"/><circle cy="58.37709529640984" r="1.0" cx="65.37709529640983"/><circle cy="67.43845478756091" r="1.0" cx="67.43845478756091"/><circle cy="74.63955698072853" r="1.0" cx="67.63955698072853"/><circle cy="79.96421930844733" r="1.0" cx="65.96421930844733"/><circle cy="83.58841680735739" r="1.0" cx="62.58841680735739"/><circle cy="85.82034985625555" r="1.0" cx="57.820349856255554"/><circle cy="87.0472430046809" r="1.0" cx="52.04724300468089"/><circle cy="87.68887489203425" r="1.0" cx="45.68887489203425"/><circle cy="88.15783925723193" r="1.0" cx="39.157839257231934"/><circle cy="88.82653703889329" r="1.0" cx="32.82653703889329"/><circle cy="90.00089956606257" r="1.0" cx="27.000899566062575"/><circle cy="91.90084283946476" r="1.0" cx="21.900842839464755"/><circle cy="94.64745290329518" r="1.0" cx="17.647452903295168"/><circle cy="98.25690230754421" r="1.0" cx="14.256902307544213"/><circle cy="102.64109766085434" r="1.0" cx="11.641097660854339"/><circle cy="107.6150582739132" r="1.0" cx="9.615058273913212"/><circle cy="112.9115636114848" r="1.0" cx="7.911563611484798"/><circle cy="118.44367132177794" r="1.0" cx="6.443671321777936"/><circle cy="124.54250737300511" r="1.0" cx="5.54250737300511"/><circle cy="131.27263907258174" r="1.0" cx="5.272639072581725"/><circle cy="138.43611443068335" r="1.0" cx="5.436114430683332"/><circle cy="145.68824397432658" r="1.0" cx="5.68824397432658"/><circle cy="152.63451793659505" r="1.0" cx="5.63451793659504"/><circle cy="158.9086588210113" r="1.0" cx="4.908658821011311"/><circle cy="164.2318093410537" r="1.0" cx="3.231809341053701"/><circle cy="168.45285573481894" r="1.0" cx="0.45285573481894303"/><circle cy="171.56988645483054" r="1.0" cx="-3.4301135451694584"/><circle cy="173.7327862329915" r="1.0" cx="-8.267213767008528"/><circle cy="44.76775416526305" r="1.0" cx="72.76775416526306"/><circle cy="56.14541602413415" r="1.0" cx="77.14541602413415"/><circle cy="66.55165461464688" r="1.0" cx="80.55165461464688"/><circle cy="75.38600770481537" r="1.0" cx="82.38600770481537"/><circle cy="82.3792723189959" r="1.0" cx="82.3792723189959"/><circle cy="87.51914129206867" r="1.0" cx="80.51914129206867"/><circle cy="90.98285217674243" r="1.0" cx="76.98285217674243"/><circle cy="93.07684850398252" r="1.0" cx="72.07684850398252"/><circle cy="94.18345339656187" r="1.0" cx="66.18345339656187"/><circle cy="94.714555535735" r="1.0" cx="59.714555535735"/><circle cy="95.07230748103552" r="1.0" cx="53.072307481035516"/><circle cy="95.61683634319608" r="1.0" cx="46.616836343196084"/><circle cy="96.64096681019217" r="1.0" cx="40.64096681019217"/><circle cy="98.35195652640842" r="1.0" cx="35.351956526408415"/><circle cy="100.86024382492818" r="1.0" cx="30.860243824928176"/><circle cy="104.17520781294675" r="1.0" cx="27.17520781294676"/><circle cy="108.2079408103064" r="1.0" cx="24.207940810306393"/><circle cy="112.78103314115619" r="1.0" cx="21.781033141156193"/><circle cy="117.64588402620895" r="1.0" cx="19.645884026208954"/><circle cy="122.73532720333301" r="1.0" cx="17.735327203333018"/><circle cy="128.37830615258252" r="1.0" cx="16.37830615258253"/><circle cy="134.63737644187282" r="1.0" cx="15.637376441872817"/><circle cy="141.31645629758705" r="1.0" cx="15.316456297587063"/><circle cy="148.07550334252193" r="1.0" cx="15.07550334252194"/><circle cy="154.52643942156936" r="1.0" cx="14.526439421569378"/><circle cy="160.3103235151367" r="1.0" cx="13.310323515136687"/><circle cy="165.15577274030306" r="1.0" cx="11.155772740303064"/><circle cy="168.91863143971372" r="1.0" cx="7.918631439713728"/><circle cy="171.60288835821174" r="1.0" cx="3.6028883582117466"/><circle cy="173.3628419072055" r="1.0" cx="-1.6371580927944898"/><circle cy="51.243880448940246" r="1.0" cx="86.24388044894025"/><circle cy="62.269411547169334" r="1.0" cx="90.26941154716934"/><circle cy="72.36250043218826" r="1.0" cx="93.36250043218826"/><circle cy="80.95290243198855" r="1.0" cx="94.95290243198855"/><circle cy="87.79156602523383" r="1.0" cx="94.79156602523383"/><circle cy="92.87608001493447" r="1.0" cx="92.87608001493447"/><circle cy="96.38353503501696" r="1.0" cx="89.38353503501696"/><circle cy="98.61079938978872" r="1.0" cx="84.61079938978872"/><circle cy="99.92220922629738" r="1.0" cx="78.92220922629738"/><circle cy="100.70467303958534" r="1.0" cx="72.70467303958534"/><circle cy="101.33019051083924" r="1.0" cx="66.33019051083924"/><circle cy="102.12578567843431" r="1.0" cx="60.12578567843432"/><circle cy="103.35085444187382" r="1.0" cx="54.35085444187382"/><circle cy="105.18192639862329" r="1.0" cx="49.18192639862328"/><circle cy="107.70484101383987" r="1.0" cx="44.70484101383987"/><circle cy="110.91433812299688" r="1.0" cx="40.91433812299688"/><circle cy="114.72106276740237" r="1.0" cx="37.72106276740238"/><circle cy="118.96598436261414" r="1.0" cx="34.965984362614144"/><circle cy="123.44269725602784" r="1.0" cx="32.44269725602784"/><circle cy="128.13003111525722" r="1.0" cx="30.130031115257218"/><circle cy="133.35817857686789" r="1.0" cx="28.358178576867882"/><circle cy="139.18723618148485" r="1.0" cx="27.18723618148484"/><circle cy="145.42288065666668" r="1.0" cx="26.42288065666669"/><circle cy="151.72971727404882" r="1.0" cx="25.72971727404883"/><circle cy="157.7260374828189" r="1.0" cx="24.7260374828189"/><circle cy="163.05998581952696" r="1.0" cx="23.05998581952695"/><circle cy="167.4671360942277" r="1.0" cx="20.467136094227683"/><circle cy="170.80947685295726" r="1.0" cx="16.809476852957257"/><circle cy="173.095806116543" r="1.0" cx="12.095806116542992"/><circle cy="174.4835353957457" r="1.0" cx="6.483535395745701"/><circle cy="55.53772670788035" r="1.0" cx="97.53772670788035"/><circle cy="66.10925611238298" r="1.0" cx="101.10925611238298"/><circle cy="75.81629627897948" r="1.0" cx="103.81629627897948"/><circle cy="84.13994525012797" r="1.0" cx="105.13994525012797"/><circle cy="90.86437627507635" r="1.0" cx="104.86437627507635"/><circle cy="96.00275689361081" r="1.0" cx="103.00275689361081"/><circle cy="99.73109622350805" r="1.0" cx="99.73109622350805"/><circle cy="102.33002045169187" r="1.0" cx="95.33002045169187"/><circle cy="104.13447652909394" r="1.0" cx="90.13447652909394"/><circle cy="105.4913640692184" r="1.0" cx="84.4913640692184"/><circle cy="106.72509545041089" r="1.0" cx="78.72509545041089"/><circle cy="108.1110841218315" r="1.0" cx="73.1110841218315"/><circle cy="109.85716111313198" r="1.0" cx="67.85716111313198"/><circle cy="112.0929197478371" r="1.0" cx="63.092919747837094"/><circle cy="114.8669885604297" r="1.0" cx="58.866988560429704"/><circle cy="118.15223241714088" r="1.0" cx="55.15223241714089"/><circle cy="121.85888184044279" r="1.0" cx="51.8588818404428"/><circle cy="125.85559053724722" r="1.0" cx="48.85559053724722"/><circle cy="129.99882237175055" r="1.0" cx="45.998822371750535"/><circle cy="134.33697390648376" r="1.0" cx="43.33697390648377"/><circle cy="139.20586166854594" r="1.0" cx="41.20586166854594"/><circle cy="144.66365347804896" r="1.0" cx="39.66365347804895"/><circle cy="150.5180436109698" r="1.0" cx="38.51804361096982"/><circle cy="156.4381564039815" r="1.0" cx="37.43815640398152"/><circle cy="162.0480653464481" r="1.0" cx="36.04806534644812"/><circle cy="167.00192765958633" r="1.0" cx="34.00192765958633"/><circle cy="171.04073436279117" r="1.0" cx="31.040734362791184"/><circle cy="174.03067582712782" r="1.0" cx="27.03067582712783"/><circle cy="175.98312281598874" r="1.0" cx="21.98312281598872"/><circle cy="177.0562230129147" r="1.0" cx="16.056223012914696"/><circle cy="57.80667372867663" r="1.0" cx="106.80667372867663"/><circle cy="67.83381214213995" r="1.0" cx="109.83381214213995"/><circle cy="77.08727277669914" r="1.0" cx="112.08727277669914"/><circle cy="85.11632690784815" r="1.0" cx="113.11632690784815"/><circle cy="91.74898354703211" r="1.0" cx="112.74898354703211"/><circle cy="97.01885707669184" r="1.0" cx="111.01885707669184"/><circle cy="101.10056954674117" r="1.0" cx="108.10056954674117"/><circle cy="104.25368763247747" r="1.0" cx="104.25368763247747"/><circle cy="106.77519425392515" r="1.0" cx="99.77519425392515"/><circle cy="108.96049485661233" r="1.0" cx="94.96049485661233"/><circle cy="111.0729583537803" r="1.0" cx="90.0729583537803"/><circle cy="113.3219927300264" r="1.0" cx="85.3219927300264"/><circle cy="115.84965530637976" r="1.0" cx="80.84965530637976"/><circle cy="118.72579766681008" r="1.0" cx="76.72579766681008"/><circle cy="121.9517452461694" r="1.0" cx="72.9517452461694"/><circle cy="125.47251157956741" r="1.0" cx="69.47251157956741"/><circle cy="129.19754721317895" r="1.0" cx="66.19754721317894"/><circle cy="133.03002327648545" r="1.0" cx="63.030023276485444"/><circle cy="136.90497155405933" r="1.0" cx="59.90497155405932"/><circle cy="140.9589611137912" r="1.0" cx="56.95896111379118"/><circle cy="145.5383786432968" r="1.0" cx="54.53837864329678"/><circle cy="150.7009419605867" r="1.0" cx="52.70094196058671"/><circle cy="156.25694644481345" r="1.0" cx="51.25694644481345"/><circle cy="161.879733095223" r="1.0" cx="49.879733095222996"/><circle cy="167.19801566860792" r="1.0" cx="48.19801566860792"/><circle cy="171.87006689526464" r="1.0" cx="45.870066895264635"/><circle cy="175.639763773452" r="1.0" cx="42.63976377345198"/><circle cy="178.37449194235367" r="1.0" cx="38.37449194235367"/><circle cy="180.08490913354302" r="1.0" cx="33.08490913354302"/><circle cy="180.9265677009498" r="1.0" cx="26.926567700949796"/><circle cy="58.32774819710163" r="1.0" cx="114.32774819710163"/><circle cy="67.73789703281682" r="1.0" cx="116.73789703281682"/><circle cy="76.48008623562023" r="1.0" cx="118.48008623562023"/><circle cy="84.18295751589795" r="1.0" cx="119.18295751589795"/><circle cy="90.72568063116384" r="1.0" cx="118.72568063116384"/><circle cy="96.16602130708671" r="1.0" cx="117.16602130708671"/><circle cy="100.67761574371207" r="1.0" cx="114.67761574371207"/><circle cy="104.49645170687846" r="1.0" cx="111.49645170687846"/><circle cy="107.87655620482803" r="1.0" cx="107.87655620482803"/><circle cy="111.05488975001168" r="1.0" cx="104.05488975001168"/><circle cy="114.22544720608872" r="1.0" cx="100.22544720608872"/><circle cy="117.52256522012078" r="1.0" cx="96.52256522012078"/><circle cy="121.01343623996053" r="1.0" cx="93.01343623996053"/><circle cy="124.69982911683456" r="1.0" cx="89.69982911683456"/><circle cy="128.52901629312072" r="1.0" cx="86.52901629312072"/><circle cy="132.41390757532037" r="1.0" cx="83.41390757532037"/><circle cy="136.26239049222428" r="1.0" cx="80.26239049222428"/><circle cy="140.01587723827384" r="1.0" cx="77.01587723827383"/><circle cy="143.6972937480297" r="1.0" cx="73.6972937480297"/><circle cy="147.5433775562008" r="1.0" cx="70.54337755620081"/><circle cy="151.91612479864727" r="1.0" cx="67.91612479864729"/><circle cy="156.87504485053603" r="1.0" cx="65.87504485053604"/><circle cy="162.23383111981167" r="1.0" cx="64.23383111981167"/><circle cy="167.6695292131184" r="1.0" cx="62.669529213118416"/><circle cy="172.81383438248406" r="1.0" cx="60.81383438248405"/><circle cy="177.3265182527673" r="1.0" cx="58.326518252767286"/><circle cy="180.9509848298667" r="1.0" cx="54.95098482986672"/><circle cy="183.55195578969358" r="1.0" cx="50.55195578969358"/><circle cy="185.1352850479065" r="1.0" cx="45.13528504790649"/><circle cy="185.84990261040818" r="1.0" cx="38.849902610408186"/><circle cy="57.46351558982072" r="1.0" cx="120.46351558982073"/><circle cy="66.20626679618991" r="1.0" cx="122.20626679618991"/><circle cy="74.39271599869528" r="1.0" cx="123.39271599869528"/><circle cy="81.73568431572986" r="1.0" cx="123.73568431572986"/><circle cy="88.16905957872288" r="1.0" cx="123.16905957872288"/><circle cy="93.77707465443214" r="1.0" cx="121.77707465443214"/><circle cy="98.73349746576943" r="1.0" cx="119.73349746576943"/><circle cy="103.25073271115988" r="1.0" cx="117.25073271115988"/><circle cy="107.53883528243426" r="1.0" cx="114.53883528243426"/><circle cy="111.77443538125513" r="1.0" cx="111.77443538125513"/><circle cy="116.07957533407588" r="1.0" cx="109.07957533407588"/><circle cy="120.51045810563387" r="1.0" cx="106.51045810563387"/><circle cy="125.05610751097646" r="1.0" cx="104.05610751097646"/><circle cy="129.64694012602064" r="1.0" cx="101.64694012602064"/><circle cy="134.17324889664616" r="1.0" cx="99.17324889664616"/><circle cy="138.51359844632208" r="1.0" cx="96.51359844632208"/><circle cy="142.57313208226654" r="1.0" cx="93.57313208226654"/><circle cy="146.33179050014024" r="1.0" cx="90.33179050014024"/><circle cy="149.9025917100023" r="1.0" cx="86.9025917100023"/><circle cy="153.62683577719545" r="1.0" cx="83.62683577719545"/><circle cy="157.88673229108798" r="1.0" cx="80.88673229108798"/><circle cy="162.74629155720936" r="1.0" cx="78.74629155720935"/><circle cy="168.02346247824755" r="1.0" cx="77.02346247824754"/><circle cy="173.39824951421878" r="1.0" cx="75.39824951421878"/><circle cy="178.50324289925425" r="1.0" cx="73.50324289925423"/><circle cy="182.9965621150051" r="1.0" cx="70.9965621150051"/><circle cy="186.61721262066467" r="1.0" cx="67.61721262066467"/><circle cy="189.22285583960834" r="1.0" cx="63.22285583960835"/><circle cy="190.80999240265143" r="1.0" cx="57.809992402651424"/><circle cy="191.51655864792366" r="1.0" cx="51.516558647923674"/><circle cy="55.62808690436012" r="1.0" cx="125.62808690436012"/><circle cy="63.677703278615525" r="1.0" cx="126.67770327861552"/><circle cy="71.27940053286554" r="1.0" cx="127.27940053286554"/><circle cy="78.22839232207168" r="1.0" cx="127.22839232207168"/><circle cy="84.51291559273947" r="1.0" cx="126.51291559273947"/><circle cy="90.24449211763144" r="1.0" cx="125.24449211763144"/><circle cy="95.59880526110979" r="1.0" cx="123.59880526110979"/><circle cy="100.76719197510891" r="1.0" cx="121.76719197510891"/><circle cy="105.91875002573721" r="1.0" cx="119.91875002573721"/><circle cy="111.17306045050881" r="1.0" cx="118.17306045050881"/><circle cy="116.58352524620476" r="1.0" cx="116.58352524620476"/><circle cy="122.13132028736376" r="1.0" cx="115.13132028736376"/><circle cy="127.72996347540303" r="1.0" cx="113.72996347540303"/><circle cy="133.240498118368" r="1.0" cx="112.24049811836801"/><circle cy="138.49729154131242" r="1.0" cx="110.49729154131242"/><circle cy="143.3444489273075" r="1.0" cx="108.3444489273075"/><circle cy="147.68284238908112" r="1.0" cx="105.68284238908112"/><circle cy="151.52775527128634" r="1.0" cx="102.52775527128634"/><circle cy="155.07721244680747" r="1.0" cx="99.07721244680748"/><circle cy="158.77350833476032" r="1.0" cx="95.77350833476032"/><circle cy="163.0227138014558" r="1.0" cx="93.02271380145581"/><circle cy="167.89615971868366" r="1.0" cx="90.89615971868366"/><circle cy="173.21679715379014" r="1.0" cx="89.21679715379015"/><circle cy="178.66660064919526" r="1.0" cx="87.66660064919526"/><circle cy="183.87666866301407" r="1.0" cx="85.87666866301409"/><circle cy="188.50002117078367" r="1.0" cx="83.50002117078367"/><circle cy="192.2670944282936" r="1.0" cx="80.2670944282936"/><circle cy="195.02393289552185" r="1.0" cx="76.02393289552187"/><circle cy="196.7530783216754" r="1.0" cx="70.7530783216754"/><circle cy="197.57715599133445" r="1.0" cx="64.57715599133445"/><circle cy="53.25323922732925" r="1.0" cx="130.25323922732926"/><circle cy="60.60920495800253" r="1.0" cx="130.60920495800252"/><circle cy="67.61361226759342" r="1.0" cx="130.61361226759342"/><circle cy="74.13598783950022" r="1.0" cx="130.13598783950022"/><circle cy="80.2147678595678" r="1.0" cx="129.21476785956781"/><circle cy="85.9881010975187" r="1.0" cx="127.9881010975187"/><circle cy="91.6359345658833" r="1.0" cx="126.6359345658833"/><circle cy="97.33338175642984" r="1.0" cx="125.33338175642984"/><circle cy="103.21537345409367" r="1.0" cx="124.21537345409367"/><circle cy="109.35259112840637" r="1.0" cx="123.35259112840637"/><circle cy="115.73868290242416" r="1.0" cx="122.73868290242416"/><circle cy="122.28876209915587" r="1.0" cx="122.28876209915587"/><circle cy="128.8491883654905" r="1.0" cx="121.8491883654905"/><circle cy="135.21863137362425" r="1.0" cx="121.21863137362426"/><circle cy="141.18041709998712" r="1.0" cx="120.18041709998712"/><circle cy="146.54615668166886" r="1.0" cx="118.54615668166886"/><circle cy="151.210657850345" r="1.0" cx="116.210657850345"/><circle cy="155.2181189437014" r="1.0" cx="113.2181189437014"/><circle cy="158.83961104734166" r="1.0" cx="109.83961104734166"/><circle cy="162.60714393924508" r="1.0" cx="106.60714393924508"/><circle cy="166.95288508858215" r="1.0" cx="103.95288508858214"/><circle cy="171.9580426881229" r="1.0" cx="101.95804268812292"/><circle cy="177.4510391895558" r="1.0" cx="100.45103918955579"/><circle cy="183.11459577990348" r="1.0" cx="99.11459577990347"/><circle cy="188.57578405967143" r="1.0" cx="97.57578405967142"/><circle cy="193.4790449227313" r="1.0" cx="95.4790449227313"/><circle cy="197.5421746379367" r="1.0" cx="92.54217463793671"/><circle cy="200.59527813247345" r="1.0" cx="88.59527813247345"/><circle cy="202.60268947694362" r="1.0" cx="83.60268947694361"/><circle cy="203.66785957218192" r="1.0" cx="77.66785957218192"/><circle cy="50.754650140897596" r="1.0" cx="134.75465014089758"/><circle cy="57.44028131857746" r="1.0" cx="134.44028131857746"/><circle cy="63.85107118061952" r="1.0" cx="133.85107118061953"/><circle cy="69.91726485301731" r="1.0" cx="132.91726485301731"/><circle cy="75.71999732138698" r="1.0" cx="131.71999732138698"/><circle cy="81.42202073964962" r="1.0" cx="130.4220207396496"/><circle cy="87.21031370191167" r="1.0" cx="129.21031370191167"/><circle cy="93.25057247754438" r="1.0" cx="128.25057247754438"/><circle cy="99.65358420946121" r="1.0" cx="127.65358420946121"/><circle cy="106.45348207559432" r="1.0" cx="127.45348207559432"/><circle cy="113.59788241356918" r="1.0" cx="127.59788241356918"/><circle cy="120.94990380857797" r="1.0" cx="127.94990380857797"/><circle cy="128.3020681444514" r="1.0" cx="128.3020681444514"/><circle cy="135.40208361792895" r="1.0" cx="128.40208361792895"/><circle cy="141.99050971612803" r="1.0" cx="127.99050971612805"/><circle cy="147.85030415721099" r="1.0" cx="126.85030415721097"/><circle cy="152.8682517942516" r="1.0" cx="124.86825179425159"/><circle cy="157.1082754822989" r="1.0" cx="122.1082754822989"/><circle cy="160.89658790649634" r="1.0" cx="118.89658790649634"/><circle cy="164.8367674390478" r="1.0" cx="115.8367674390478"/><circle cy="169.3875664312067" r="1.0" cx="113.3875664312067"/><circle cy="174.6420224655323" r="1.0" cx="111.6420224655323"/><circle cy="180.43408236351428" r="1.0" cx="110.43408236351429"/><circle cy="186.44578481059872" r="1.0" cx="109.44578481059872"/><circle cy="192.29765367980963" r="1.0" cx="108.29765367980964"/><circle cy="197.62230205396713" r="1.0" cx="106.62230205396712"/><circle cy="202.12124694650075" r="1.0" cx="104.12124694650075"/><circle cy="205.60493472085977" r="1.0" cx="100.60493472085977"/><circle cy="208.01597720851922" r="1.0" cx="96.01597720851923"/><circle cy="209.43559852558104" r="1.0" cx="90.43559852558106"/><circle cy="48.49824596752581" r="1.0" cx="139.4982459675258"/><circle cy="54.557350803441466" r="1.0" cx="138.55735080344147"/><circle cy="60.39279713094246" r="1.0" cx="137.39279713094245"/><circle cy="65.97765429262779" r="1.0" cx="135.9776542926278"/><circle cy="71.4256013896568" r="1.0" cx="134.4256013896568"/><circle cy="76.9208381472174" r="1.0" cx="132.9208381472174"/><circle cy="82.66038288101697" r="1.0" cx="131.66038288101697"/><circle cy="88.80875756479703" r="1.0" cx="130.80875756479702"/><circle cy="95.4650599988708" r="1.0" cx="130.4650599988708"/><circle cy="102.64242307968411" r="1.0" cx="130.6424230796841"/><circle cy="110.25986117039926" r="1.0" cx="131.25986117039926"/><circle cy="118.14650357250255" r="1.0" cx="132.14650357250255"/><circle cy="126.05821509843472" r="1.0" cx="133.05821509843472"/><circle cy="133.70660374524445" r="1.0" cx="133.70660374524445"/><circle cy="140.80041546926572" r="1.0" cx="133.80041546926572"/><circle cy="147.0993160618172" r="1.0" cx="133.0993160618172"/><circle cy="152.48006012592668" r="1.0" cx="131.48006012592668"/><circle cy="157.0150471540765" r="1.0" cx="129.0150471540765"/><circle cy="161.06319934143886" r="1.0" cx="126.06319934143885"/><circle cy="165.27606365412043" r="1.0" cx="123.27606365412045"/><circle cy="170.1375629581568" r="1.0" cx="121.13756295815678"/><circle cy="175.753648074945" r="1.0" cx="119.753648074945"/><circle cy="181.96333922123952" r="1.0" cx="118.96333922123952"/><circle cy="188.4464102333011" r="1.0" cx="118.4464102333011"/><circle cy="194.8144899355192" r="1.0" cx="117.81448993551918"/><circle cy="200.685580653508" r="1.0" cx="116.68558065350798"/><circle cy="205.74199387167573" r="1.0" cx="114.74199387167575"/><circle cy="209.77170303526765" r="1.0" cx="111.77170303526765"/><circle cy="212.69311349688243" r="1.0" cx="107.69311349688243"/><circle cy="214.56324960746167" r="1.0" cx="102.56324960746166"/><circle cy="46.766663852951076" r="1.0" cx="144.76666385295107"/><circle cy="52.2582423449199" r="1.0" cx="143.2582423449199"/><circle cy="57.5482009390232" r="1.0" cx="141.5482009390232"/><circle cy="62.631856171919715" r="1.0" cx="139.6318561719197"/><circle cy="67.64356559952907" r="1.0" cx="137.64356559952907"/><circle cy="72.78502146409511" r="1.0" cx="135.7850214640951"/><circle cy="78.26632421596213" r="1.0" cx="134.26632421596213"/><circle cy="84.25983589006542" r="1.0" cx="133.2598358900654"/><circle cy="90.86681333713433" r="1.0" cx="132.86681333713432"/><circle cy="98.09682130960968" r="1.0" cx="133.09682130960968"/><circle cy="105.85992540227397" r="1.0" cx="133.85992540227397"/><circle cy="113.97166484759566" r="1.0" cx="134.97166484759566"/><circle cy="122.1708051657865" r="1.0" cx="136.1708051657865"/><circle cy="130.14987066957252" r="1.0" cx="137.14987066957252"/><circle cy="137.59845682367865" r="1.0" cx="137.59845682367865"/><circle cy="144.25932245902632" r="1.0" cx="137.25932245902632"/><circle cy="149.9972618416454" r="1.0" cx="135.9972618416454"/><circle cy="154.88075659629862" r="1.0" cx="133.88075659629862"/><circle cy="159.27634160024598" r="1.0" cx="131.27634160024598"/><circle cy="163.85644505729613" r="1.0" cx="128.85644505729613"/><circle cy="169.12692386679248" r="1.0" cx="127.12692386679248"/><circle cy="175.20671938704095" r="1.0" cx="126.20671938704095"/><circle cy="181.93895681600515" r="1.0" cx="125.93895681600515"/><circle cy="188.99948858731125" r="1.0" cx="125.99948858731123"/><circle cy="195.98901703119816" r="1.0" cx="125.98901703119814"/><circle cy="202.5087963004152" r="1.0" cx="125.50879630041521"/><circle cy="208.21991356106574" r="1.0" cx="124.21991356106574"/><circle cy="212.8861494483972" r="1.0" cx="121.88614944839718"/><circle cy="216.40041778753812" r="1.0" cx="118.40041778753812"/><circle cy="218.7947845791809" r="1.0" cx="113.7947845791809"/><circle cy="45.725827687427746" r="1.0" cx="150.72582768742774"/><circle cy="50.71680047270464" r="1.0" cx="148.71680047270465"/><circle cy="55.49821421421346" r="1.0" cx="146.49821421421348"/><circle cy="60.06635460064736" r="1.0" cx="144.06635460064734"/><circle cy="64.5638522052147" r="1.0" cx="141.5638522052147"/><circle cy="69.20556982800409" r="1.0" cx="139.2055698280041"/><circle cy="74.21754273800386" r="1.0" cx="137.21754273800386"/><circle cy="79.78897181477652" r="1.0" cx="135.78897181477652"/><circle cy="86.03726958978805" r="1.0" cx="135.03726958978805"/><circle cy="92.98615918739168" r="1.0" cx="134.98615918739168"/><circle cy="100.55682616546687" r="1.0" cx="135.55682616546687"/><circle cy="108.57212325571284" r="1.0" cx="136.57212325571282"/><circle cy="116.77382800359675" r="1.0" cx="137.77382800359675"/><circle cy="124.85295330795702" r="1.0" cx="138.85295330795702"/><circle cy="132.49311086026142" r="1.0" cx="139.49311086026142"/><circle cy="139.4269274835191" r="1.0" cx="139.4269274835191"/><circle cy="145.50551437084908" r="1.0" cx="138.50551437084908"/><circle cy="150.7809892237016" r="1.0" cx="136.7809892237016"/><circle cy="155.60200826288883" r="1.0" cx="134.60200826288883"/><circle cy="160.63380330343762" r="1.0" cx="132.63380330343762"/><circle cy="166.3994805297169" r="1.0" cx="131.3994805297169"/><circle cy="173.03007638719708" r="1.0" cx="131.03007638719708"/><circle cy="180.3714191562242" r="1.0" cx="131.3714191562242"/><circle cy="188.0938175328761" r="1.0" cx="132.0938175328761"/><circle cy="195.78544328832106" r="1.0" cx="132.78544328832106"/><circle cy="203.02940800667986" r="1.0" cx="133.02940800667986"/><circle cy="209.46453390139018" r="1.0" cx="132.46453390139018"/><circle cy="214.8298187100747" r="1.0" cx="130.8298187100747"/><circle cy="218.99259466791136" r="1.0" cx="127.99259466791138"/><circle cy="221.96038155950674" r="1.0" cx="123.96038155950673"/><circle cy="45.39163786522055" r="1.0" cx="157.39163786522056"/><circle cy="49.947593999787266" r="1.0" cx="154.94759399978727"/><circle cy="54.258457929406354" r="1.0" cx="152.25845792940635"/><circle cy="58.3018156713147" r="1.0" cx="149.3018156713147"/><circle cy="62.21700571630465" r="1.0" cx="146.21700571630464"/><circle cy="66.22790019380712" r="1.0" cx="143.2279001938071"/><circle cy="70.578898421055" r="1.0" cx="140.578898421055"/><circle cy="75.48413283632671" r="1.0" cx="138.4841328363267"/><circle cy="81.08988731627018" r="1.0" cx="137.08988731627016"/><circle cy="87.4502278773069" r="1.0" cx="136.4502278773069"/><circle cy="94.51584576111667" r="1.0" cx="136.51584576111668"/><circle cy="102.13611290420192" r="1.0" cx="137.13611290420192"/><circle cy="110.07434979153308" r="1.0" cx="138.07434979153308"/><circle cy="118.03630569427372" r="1.0" cx="139.03630569427372"/><circle cy="125.71185129158623" r="1.0" cx="139.71185129158624"/><circle cy="132.82988367651726" r="1.0" cx="139.82988367651726"/><circle cy="139.2264437459647" r="1.0" cx="139.2264437459647"/><circle cy="144.92604597472297" r="1.0" cx="137.92604597472297"/><circle cy="150.23622103457132" r="1.0" cx="136.23622103457132"/><circle cy="155.78894460640842" r="1.0" cx="134.78894460640842"/><circle cy="162.1191634897527" r="1.0" cx="134.1191634897527"/><circle cy="169.36839388897104" r="1.0" cx="134.36839388897104"/><circle cy="177.38353636023427" r="1.0" cx="135.38353636023427"/><circle cy="185.82790853900602" r="1.0" cx="136.82790853900602"/><circle cy="194.27604182417724" r="1.0" cx="138.27604182417724"/><circle cy="202.29224201884853" r="1.0" cx="139.29224201884853"/><circle cy="209.4929139277581" r="1.0" cx="139.4929139277581"/><circle cy="215.59264991135728" r="1.0" cx="138.59264991135728"/><circle cy="220.43408239653252" r="1.0" cx="136.43408239653252"/><circle cy="224.00150034397345" r="1.0" cx="133.00150034397345"/><circle cy="45.596774882354666" r="1.0" cx="164.59677488235468"/><circle cy="49.77072828618668" r="1.0" cx="161.77072828618668"/><circle cy="53.64244974291316" r="1.0" cx="158.64244974291316"/><circle cy="57.155368219763595" r="1.0" cx="155.1553682197636"/><circle cy="60.43637537504849" r="1.0" cx="151.4363753750485"/><circle cy="63.71497102692926" r="1.0" cx="147.71497102692925"/><circle cy="67.25568921246105" r="1.0" cx="144.25568921246105"/><circle cy="71.30380483690861" r="1.0" cx="141.30380483690863"/><circle cy="76.04432091333534" r="1.0" cx="139.04432091333535"/><circle cy="81.57423639246493" r="1.0" cx="137.5742363924649"/><circle cy="87.88809458281658" r="1.0" cx="136.88809458281656"/><circle cy="94.87681216111282" r="1.0" cx="136.8768121611128"/><circle cy="102.3397887729605" r="1.0" cx="137.3397887729605"/><circle cy="110.01029722380483" r="1.0" cx="138.01029722380483"/><circle cy="117.59415426015639" r="1.0" cx="138.5941542601564"/><circle cy="124.82167194109107" r="1.0" cx="138.82167194109107"/><circle cy="131.51288960002336" r="1.0" cx="138.51288960002336"/><circle cy="137.6560863967521" r="1.0" cx="137.6560863967521"/><circle cy="143.49963393141914" r="1.0" cx="136.49963393141914"/><circle cy="149.62170896386394" r="1.0" cx="135.62170896386394"/><circle cy="156.56409834318362" r="1.0" cx="135.56409834318362"/><circle cy="164.47698169301566" r="1.0" cx="136.47698169301566"/><circle cy="173.20682051842653" r="1.0" cx="138.20682051842653"/><circle cy="182.4088451854407" r="1.0" cx="140.4088451854407"/><circle cy="191.64333958457632" r="1.0" cx="142.64333958457632"/><circle cy="200.45572347838726" r="1.0" cx="144.45572347838726"/><circle cy="208.44043253301152" r="1.0" cx="145.44043253301152"/><circle cy="215.28859603372618" r="1.0" cx="145.28859603372618"/><circle cy="220.81951228450916" r="1.0" cx="143.81951228450916"/><circle cy="224.99592169160684" r="1.0" cx="140.99592169160684"/><circle cy="45.958518837928395" r="1.0" cx="171.9585188379284"/><circle cy="49.777702174492575" r="1.0" cx="168.77770217449256"/><circle cy="53.22581385290803" r="1.0" cx="165.22581385290803"/><circle cy="56.20372628126115" r="1.0" cx="161.20372628126114"/><circle cy="58.82087443773326" r="1.0" cx="156.82087443773327"/><circle cy="61.31048783854396" r="1.0" cx="152.31048783854396"/><circle cy="63.958121068289074" r="1.0" cx="147.95812106828907"/><circle cy="67.04348287267354" r="1.0" cx="144.04348287267354"/><circle cy="70.79556381363898" r="1.0" cx="140.79556381363898"/><circle cy="75.36106248688648" r="1.0" cx="138.36106248688648"/><circle cy="80.7861103017936" r="1.0" cx="136.7861103017936"/><circle cy="87.01129482372701" r="1.0" cx="136.011294823727"/><circle cy="93.8799816787492" r="1.0" cx="135.8799816787492"/><circle cy="101.15993502072057" r="1.0" cx="136.15993502072058"/><circle cy="108.5782365607962" r="1.0" cx="136.5782365607962"/><circle cy="115.86950315931709" r="1.0" cx="136.86950315931708"/><circle cy="122.83740298009718" r="1.0" cx="136.83740298009718"/><circle cy="129.429470207104" r="1.0" cx="136.429470207104"/><circle cy="135.8253448640214" r="1.0" cx="135.8253448640214"/><circle cy="142.53833338436993" r="1.0" cx="135.53833338436993"/><circle cy="150.1140591645422" r="1.0" cx="136.1140591645422"/><circle cy="158.7101754410887" r="1.0" cx="137.7101754410887"/><circle cy="168.1718260983359" r="1.0" cx="140.1718260983359"/><circle cy="178.14562321377718" r="1.0" cx="143.14562321377718"/><circle cy="188.17743612101057" r="1.0" cx="146.17743612101057"/><circle cy="197.7939919902226" r="1.0" cx="148.7939919902226"/><circle cy="206.56828792621837" r="1.0" cx="150.56828792621837"/><circle cy="214.1688145839975" r="1.0" cx="151.1688145839975"/><circle cy="220.39259130187705" r="1.0" cx="150.39259130187705"/><circle cy="225.18201275215986" r="1.0" cx="148.18201275215986"/><circle cy="46.27651374113865" r="1.0" cx="179.27651374113864"/><circle cy="49.74749889643039" r="1.0" cx="175.7474988964304"/><circle cy="52.77313789893382" r="1.0" cx="171.7731378989338"/><circle cy="55.20801013006871" r="1.0" cx="167.20801013006871"/><circle cy="57.142024209447605" r="1.0" cx="162.1420242094476"/><circle cy="58.81152622971189" r="1.0" cx="156.8115262297119"/><circle cy="60.52371826203286" r="1.0" cx="151.52371826203287"/><circle cy="62.59438713227742" r="1.0" cx="146.5943871322774"/><circle cy="65.2989434678387" r="1.0" cx="142.29894346783868"/><circle cy="68.83677101513125" r="1.0" cx="138.83677101513123"/><circle cy="73.30888622775143" r="1.0" cx="136.30888622775143"/><circle cy="78.70890812530224" r="1.0" cx="134.70890812530223"/><circle cy="84.92733842288298" r="1.0" cx="133.927338422883"/><circle cy="91.76915193124398" r="1.0" cx="133.76915193124398"/><circle cy="98.98469722760592" r="1.0" cx="133.98469722760592"/><circle cy="106.31390759714367" r="1.0" cx="134.31390759714367"/><circle cy="113.54382224513574" r="1.0" cx="134.54382224513574"/><circle cy="120.57941777977749" r="1.0" cx="134.5794177797775"/><circle cy="127.5279452524154" r="1.0" cx="134.5279452524154"/><circle cy="134.8331191048175" r="1.0" cx="134.8331191048175"/><circle cy="143.04158388187588" r="1.0" cx="136.04158388187588"/><circle cy="152.31696301213663" r="1.0" cx="138.31696301213663"/><circle cy="162.50246957949824" r="1.0" cx="141.50246957949824"/><circle cy="173.23622367340695" r="1.0" cx="145.23622367340695"/><circle cy="184.05039838007414" r="1.0" cx="149.05039838007414"/><circle cy="194.45419441471398" r="1.0" cx="152.45419441471398"/><circle cy="204.00064339480303" r="1.0" cx="155.00064339480303"/><circle cy="212.33723975436047" r="1.0" cx="156.33723975436047"/><circle cy="219.24040129924947" r="1.0" cx="156.24040129924947"/><circle cy="224.6337584035001" r="1.0" cx="154.6337584035001"/><circle cy="47.064548875736065" r="1.0" cx="187.06454887573608"/><circle cy="50.213482550379624" r="1.0" cx="183.21348255037964"/><circle cy="52.829824582683635" r="1.0" cx="178.82982458268364"/><circle cy="54.713141240690476" r="1.0" cx="173.71314124069048"/><circle cy="55.929190698024726" r="1.0" cx="167.92919069802474"/><circle cy="56.71631427242978" r="1.0" cx="161.71631427242977"/><circle cy="57.40515208202715" r="1.0" cx="155.40515208202714"/><circle cy="58.351683119299224" r="1.0" cx="149.35168311929922"/><circle cy="59.883589742795024" r="1.0" cx="143.883589742795"/><circle cy="62.25994658655938" r="1.0" cx="139.25994658655938"/><circle cy="65.64423388728473" r="1.0" cx="135.6442338872847"/><circle cy="70.09067522918687" r="1.0" cx="133.09067522918687"/><circle cy="75.54389970660309" r="1.0" cx="131.54389970660307"/><circle cy="81.85192850431424" r="1.0" cx="130.85192850431423"/><circle cy="88.7924858955891" r="1.0" cx="130.7924858955891"/><circle cy="96.11263465795273" r="1.0" cx="131.11263465795273"/><circle cy="103.58173590667752" r="1.0" cx="131.58173590667752"/><circle cy="111.05773334599758" r="1.0" cx="132.05773334599758"/><circle cy="118.56702712236904" r="1.0" cx="132.56702712236904"/><circle cy="126.47192637450044" r="1.0" cx="133.47192637450044"/><circle cy="135.31030396524824" r="1.0" cx="135.31030396524824"/><circle cy="145.2460164731302" r="1.0" cx="138.2460164731302"/><circle cy="156.1180340350879" r="1.0" cx="142.1180340350879"/><circle cy="167.55648067628255" r="1.0" cx="146.55648067628255"/><circle cy="179.08254470233535" r="1.0" cx="151.08254470233535"/><circle cy="190.19225915401293" r="1.0" cx="155.19225915401293"/><circle cy="200.42415232435752" r="1.0" cx="158.42415232435752"/><circle cy="209.41076833826182" r="1.0" cx="160.41076833826182"/><circle cy="216.91405779448888" r="1.0" cx="160.91405779448888"/><circle cy="222.84463847013683" r="1.0" cx="159.84463847013683"/><circle cy="48.5024589424236" r="1.0" cx="195.5024589424236"/><circle cy="51.3751778239742" r="1.0" cx="191.37517782397418"/><circle cy="53.61271253521574" r="1.0" cx="186.61271253521573"/><circle cy="54.94926888250527" r="1.0" cx="180.94926888250527"/><circle cy="55.42092327778475" r="1.0" cx="174.42092327778474"/><circle cy="55.26659840369222" r="1.0" cx="167.26659840369223"/><circle cy="54.84238118265118" r="1.0" cx="159.8423811826512"/><circle cy="54.5491830499385" r="1.0" cx="152.5491830499385"/><circle cy="54.77374253073069" r="1.0" cx="145.7737425307307"/><circle cy="55.84297012112848" r="1.0" cx="139.84297012112847"/><circle cy="57.99163547315976" r="1.0" cx="134.99163547315976"/><circle cy="61.343396883761045" r="1.0" cx="131.34339688376105"/><circle cy="65.90517308773732" r="1.0" cx="128.90517308773732"/><circle cy="71.57485735470001" r="1.0" cx="127.57485735470001"/><circle cy="78.16237388998364" r="1.0" cx="127.16237388998364"/><circle cy="85.42407653954069" r="1.0" cx="127.42407653954069"/><circle cy="93.110489798815" r="1.0" cx="128.110489798815"/><circle cy="101.0273921255933" r="1.0" cx="129.02739212559328"/><circle cy="109.11057546522495" r="1.0" cx="130.11057546522494"/><circle cy="117.62614502438151" r="1.0" cx="131.62614502438151"/><circle cy="127.08843540167418" r="1.0" cx="134.0884354016742"/><circle cy="137.65252695983295" r="1.0" cx="137.65252695983295"/><circle cy="149.14949989190643" r="1.0" cx="142.14949989190643"/><circle cy="161.20223455409442" r="1.0" cx="147.20223455409442"/><circle cy="173.32516099675672" r="1.0" cx="152.32516099675672"/><circle cy="185.0079576935986" r="1.0" cx="157.0079576935986"/><circle cy="195.7831994690323" r="1.0" cx="160.7831994690323"/><circle cy="205.27795462371546" r="1.0" cx="163.27795462371546"/><circle cy="213.24933125826476" r="1.0" cx="164.24933125826476"/><circle cy="219.60397279514757" r="1.0" cx="163.60397279514757"/><circle cy="50.40235554824562" r="1.0" cx="204.40235554824562"/><circle cy="53.05694162927795" r="1.0" cx="200.05694162927796"/><circle cy="54.962164075615796" r="1.0" cx="194.9621640756158"/><circle cy="55.77898484029717" r="1.0" cx="188.77898484029717"/><circle cy="55.50948193123902" r="1.0" cx="181.50948193123904"/><circle cy="54.39189261666733" r="1.0" cx="173.39189261666732"/><circle cy="52.80902113822049" r="1.0" cx="164.8090211382205"/><circle cy="51.210010931727055" r="1.0" cx="156.21001093172706"/><circle cy="50.045481355656605" r="1.0" cx="148.04548135565662"/><circle cy="49.71602892724475" r="1.0" cx="140.71602892724474"/><circle cy="50.53409306629156" r="1.0" cx="134.53409306629155"/><circle cy="52.69918634663405" r="1.0" cx="129.69918634663404"/><circle cy="56.28648925529215" r="1.0" cx="126.28648925529215"/><circle cy="61.2488094592885" r="1.0" cx="124.24880945928851"/><circle cy="67.43190558014189" r="1.0" cx="123.43190558014189"/><circle cy="74.60317547603461" r="1.0" cx="123.60317547603461"/><circle cy="82.49370903165324" r="1.0" cx="124.49370903165324"/><circle cy="90.85370545570359" r="1.0" cx="125.85370545570359"/><circle cy="99.52165227572317" r="1.0" cx="127.52165227572317"/><circle cy="108.65505571902347" r="1.0" cx="129.65505571902347"/><circle cy="118.72808872205923" r="1.0" cx="132.72808872205923"/><circle cy="129.8764457811899" r="1.0" cx="136.8764457811899"/><circle cy="141.91905803047314" r="1.0" cx="141.91905803047314"/><circle cy="154.4725133189319" r="1.0" cx="147.4725133189319"/><circle cy="167.0495488852408" r="1.0" cx="153.0495488852408"/><circle cy="179.1416166298306" r="1.0" cx="158.1416166298306"/><circle cy="190.28552098441236" r="1.0" cx="162.28552098441236"/><circle cy="200.11412937891993" r="1.0" cx="165.11412937891993"/><circle cy="208.391155305871" r="1.0" cx="166.391155305871"/><circle cy="215.0300139821479" r="1.0" cx="166.0300139821479"/><circle cy="52.359706379921775" r="1.0" cx="213.35970637992176"/><circle cy="54.85977571269767" r="1.0" cx="208.85977571269768"/><circle cy="56.492196838061695" r="1.0" cx="203.4921968380617"/><circle cy="56.84175012785707" r="1.0" cx="196.84175012785707"/><circle cy="55.87470132792532" r="1.0" cx="188.87470132792532"/><circle cy="53.82775161624637" r="1.0" cx="179.82775161624636"/><circle cy="51.11037865580349" r="1.0" cx="170.1103786558035"/><circle cy="48.22056864217244" r="1.0" cx="160.22056864217242"/><circle cy="45.673939345835564" r="1.0" cx="150.67393934583555"/><circle cy="43.94625414921985" r="1.0" cx="141.94625414921984"/><circle cy="43.42932707846002" r="1.0" cx="134.42932707846"/><circle cy="44.400318829885855" r="1.0" cx="128.40031882988586"/><circle cy="47.004423791234295" r="1.0" cx="124.0044237912343"/><circle cy="51.25094805758561" r="1.0" cx="121.25094805758562"/><circle cy="57.02277844202465" r="1.0" cx="120.02277844202465"/><circle cy="64.09924248102632" r="1.0" cx="120.09924248102632"/><circle cy="72.19235943456553" r="1.0" cx="121.19235943456553"/><circle cy="80.9964822809517" r="1.0" cx="122.9964822809517"/><circle cy="90.2517807443603" r="1.0" cx="125.2517807443603"/><circle cy="100.00062093738359" r="1.0" cx="128.0006209373836"/><circle cy="110.66103194822489" r="1.0" cx="131.6610319482249"/><circle cy="122.3385533361573" r="1.0" cx="136.3385533361573"/><circle cy="134.83571720370995" r="1.0" cx="141.83571720370995"/><circle cy="147.76391607987657" r="1.0" cx="147.76391607987657"/><circle cy="160.63951176095895" r="1.0" cx="153.63951176095895"/><circle cy="172.9641851090434" r="1.0" cx="158.9641851090434"/><circle cy="184.28952680811247" r="1.0" cx="163.28952680811247"/><circle cy="194.26586907778966" r="1.0" cx="166.26586907778966"/><circle cy="202.67535834471863" r="1.0" cx="167.67535834471863"/><circle cy="209.44926887157692" r="1.0" cx="167.44926887157692"/><circle cy="53.88061585528936" r="1.0" cx="221.88061585528936"/><circle cy="56.28940911858702" r="1.0" cx="217.289409118587"/><circle cy="57.7173171720283" r="1.0" cx="211.7173171720283"/><circle cy="57.676061602917244" r="1.0" cx="204.67606160291723"/><circle cy="56.09736523632182" r="1.0" cx="196.09736523632182"/><circle cy="53.216083395434985" r="1.0" cx="186.216083395435"/><circle cy="49.466756390491824" r="1.0" cx="175.4667563904918"/><circle cy="45.39358323624124" r="1.0" cx="164.39358323624126"/><circle cy="41.573816597973725" r="1.0" cx="153.57381659797372"/><circle cy="38.554578966103314" r="1.0" cx="143.55457896610332"/><circle cy="36.80310005930613" r="1.0" cx="134.80310005930613"/><circle cy="36.67037545621316" r="1.0" cx="127.67037545621315"/><circle cy="38.36824645565898" r="1.0" cx="122.36824645565898"/><circle cy="41.95990116548543" r="1.0" cx="118.95990116548543"/><circle cy="47.363796819900685" r="1.0" cx="117.36379681990068"/><circle cy="54.37100332539366" r="1.0" cx="117.37100332539366"/><circle cy="62.675968035203574" r="1.0" cx="118.67596803520357"/><circle cy="71.92070175234511" r="1.0" cx="120.92070175234511"/><circle cy="81.75287370308783" r="1.0" cx="123.75287370308783"/><circle cy="92.10080757127594" r="1.0" cx="127.10080757127594"/><circle cy="103.31296389658968" r="1.0" cx="131.31296389658968"/><circle cy="115.45500376858902" r="1.0" cx="136.45500376858902"/><circle cy="128.3093369445669" r="1.0" cx="142.3093369445669"/><circle cy="141.4833558896406" r="1.0" cx="148.4833558896406"/><circle cy="154.5021199568013" r="1.0" cx="154.5021199568013"/><circle cy="166.88548970692028" r="1.0" cx="159.88548970692028"/><circle cy="178.2097113687132" r="1.0" cx="164.2097113687132"/><circle cy="188.15345143866168" r="1.0" cx="167.15345143866168"/><circle cy="196.5282814208918" r="1.0" cx="168.5282814208918"/><circle cy="203.29361270701108" r="1.0" cx="168.29361270701108"/><circle cy="54.48530725285735" r="1.0" cx="229.48530725285735"/><circle cy="56.86065050654347" r="1.0" cx="224.86065050654346"/><circle cy="58.15605531563494" r="1.0" cx="219.15605531563494"/><circle cy="57.81935848342125" r="1.0" cx="211.81935848342124"/><circle cy="55.75209126884304" r="1.0" cx="202.75209126884303"/><circle cy="52.187501232588545" r="1.0" cx="192.18750123258855"/><circle cy="47.58202836312817" r="1.0" cx="180.58202836312816"/><circle cy="42.520235482685116" r="1.0" cx="168.5202354826851"/><circle cy="37.633192933143576" r="1.0" cx="156.63319293314356"/><circle cy="33.53031754189328" r="1.0" cx="145.53031754189328"/><circle cy="30.744665867611346" r="1.0" cx="135.74466586761133"/><circle cy="29.691681725981134" r="1.0" cx="127.69168172598114"/><circle cy="30.641397995347766" r="1.0" cx="121.64139799534777"/><circle cy="33.704092702310724" r="1.0" cx="117.70409270231073"/><circle cy="38.82939938725318" r="1.0" cx="115.82939938725318"/><circle cy="45.81887174980895" r="1.0" cx="115.81887174980895"/><circle cy="54.3520025742651" r="1.0" cx="117.3520025742651"/><circle cy="64.0256969349031" r="1.0" cx="120.0256969349031"/><circle cy="74.40770632434908" r="1.0" cx="123.40770632434908"/><circle cy="85.32144114150051" r="1.0" cx="127.32144114150051"/><circle cy="97.03629783850573" r="1.0" cx="132.03629783850573"/><circle cy="109.57034536017902" r="1.0" cx="137.57034536017903"/><circle cy="122.68308596258774" r="1.0" cx="143.68308596258774"/><circle cy="135.97916202125023" r="1.0" cx="149.97916202125023"/><circle cy="148.99675502394743" r="1.0" cx="155.99675502394743"/><circle cy="161.280676748146" r="1.0" cx="161.280676748146"/><circle cy="172.44015262303535" r="1.0" cx="165.44015262303535"/><circle cy="182.19129727617678" r="1.0" cx="168.19129727617678"/><circle cy="190.38428226476512" r="1.0" cx="169.38428226476512"/><circle cy="197.01519599150424" r="1.0" cx="169.01519599150424"/><circle cy="53.78780631946854" r="1.0" cx="235.78780631946853"/><circle cy="56.1780103223959" r="1.0" cx="231.1780103223959"/><circle cy="57.41120234213265" r="1.0" cx="225.41120234213264"/><circle cy="56.88566876512633" r="1.0" cx="217.88566876512633"/><circle cy="54.47972595991424" r="1.0" cx="208.47972595991425"/><circle cy="50.425715109488934" r="1.0" cx="197.42571510948892"/><circle cy="45.19748598048772" r="1.0" cx="185.19748598048773"/><circle cy="39.41136962920614" r="1.0" cx="172.41136962920615"/><circle cy="33.74064004443515" r="1.0" cx="159.74064004443514"/><circle cy="28.843464727122345" r="1.0" cx="147.84346472712235"/><circle cy="25.304344206856968" r="1.0" cx="137.30434420685697"/><circle cy="23.589040495179134" r="1.0" cx="128.58904049517912"/><circle cy="24.012994475712603" r="1.0" cx="122.0129944757126"/><circle cy="26.723232231121685" r="1.0" cx="117.72323223112168"/><circle cy="31.69376030689186" r="1.0" cx="115.69376030689186"/><circle cy="38.73444991193483" r="1.0" cx="115.73444991193483"/><circle cy="47.513410056016454" r="1.0" cx="117.51341005601645"/><circle cy="57.59284962401001" r="1.0" cx="120.59284962401"/><circle cy="68.47893307345612" r="1.0" cx="124.47893307345612"/><circle cy="79.90659163164052" r="1.0" cx="128.90659163164054"/><circle cy="92.06145551725132" r="1.0" cx="134.06145551725132"/><circle cy="104.90901666146029" r="1.0" cx="139.90901666146027"/><circle cy="118.1843260294159" r="1.0" cx="146.1843260294159"/><circle cy="131.49054167477453" r="1.0" cx="152.49054167477453"/><circle cy="144.38243312055835" r="1.0" cx="158.38243312055835"/><circle cy="156.43484206634002" r="1.0" cx="163.43484206634002"/><circle cy="167.2960994217543" r="1.0" cx="167.2960994217543"/><circle cy="176.726398666336" r="1.0" cx="169.726398666336"/><circle cy="184.62112553568457" r="1.0" cx="170.62112553568457"/><circle cy="191.01914403395665" r="1.0" cx="170.01914403395665"/><circle cy="51.551826356073185" r="1.0" cx="240.55182635607318"/><circle cy="53.99259282288465" r="1.0" cx="235.99259282288466"/><circle cy="55.226748879534" r="1.0" cx="230.226748879534"/><circle cy="54.620995540541045" r="1.0" cx="222.62099554054106"/><circle cy="52.03925017712753" r="1.0" cx="213.0392501771275"/><circle cy="47.71396255026531" r="1.0" cx="201.7139625502653"/><circle cy="42.13095465791656" r="1.0" cx="189.13095465791656"/><circle cy="35.9277843964648" r="1.0" cx="175.9277843964648"/><circle cy="29.80563303633783" r="1.0" cx="162.80563303633784"/><circle cy="24.454716511821708" r="1.0" cx="150.45471651182172"/><circle cy="20.49322052506625" r="1.0" cx="139.49322052506625"/><circle cy="18.419759464282116" r="1.0" cx="130.41975946428212"/><circle cy="18.57935913612917" r="1.0" cx="123.57935913612917"/><circle cy="21.142963312296118" r="1.0" cx="119.14296331229612"/><circle cy="26.100464090271714" r="1.0" cx="117.10046409027171"/><circle cy="33.267256068307745" r="1.0" cx="117.26725606830774"/><circle cy="42.304314334572254" r="1.0" cx="119.30431433457225"/><circle cy="52.75179627049589" r="1.0" cx="122.75179627049589"/><circle cy="64.07664891430515" r="1.0" cx="127.07664891430515"/><circle cy="75.94749093952647" r="1.0" cx="131.94749093952646"/><circle cy="88.4666715216792" r="1.0" cx="137.4666715216792"/><circle cy="101.54531836086022" r="1.0" cx="143.54531836086022"/><circle cy="114.89392135324118" r="1.0" cx="149.89392135324118"/><circle cy="128.11540111409857" r="1.0" cx="156.11540111409857"/><circle cy="140.7834075105892" r="1.0" cx="161.7834075105892"/><circle cy="152.50584820426835" r="1.0" cx="166.50584820426835"/><circle cy="162.9736472033536" r="1.0" cx="169.9736472033536"/><circle cy="171.99473342473166" r="1.0" cx="171.99473342473166"/><circle cy="179.5132592657095" r="1.0" cx="172.5132592657095"/><circle cy="185.61404918551057" r="1.0" cx="171.61404918551057"/><circle cy="47.72285478161218" r="1.0" cx="243.72285478161217"/><circle cy="50.235257954034026" r="1.0" cx="239.235257954034"/><circle cy="51.52152560338393" r="1.0" cx="233.52152560338394"/><circle cy="50.93644321919704" r="1.0" cx="225.93644321919703"/><circle cy="48.33919486547792" r="1.0" cx="216.3391948654779"/><circle cy="43.96347888115787" r="1.0" cx="204.96347888115787"/><circle cy="38.30118104442544" r="1.0" cx="192.30118104442545"/><circle cy="31.999605200928983" r="1.0" cx="178.99960520092898"/><circle cy="25.772261355852233" r="1.0" cx="165.77226135585224"/><circle cy="20.32321122986186" r="1.0" cx="153.32321122986187"/><circle cy="16.284971278928047" r="1.0" cx="142.28497127892805"/><circle cy="14.169973178017358" r="1.0" cx="133.16997317801736"/><circle cy="14.335581768658287" r="1.0" cx="126.33558176865829"/><circle cy="16.962670470379138" r="1.0" cx="121.96267047037914"/><circle cy="22.047754156018456" r="1.0" cx="120.04775415601846"/><circle cy="29.408679490908696" r="1.0" cx="120.4086794909087"/><circle cy="38.703872735930844" r="1.0" cx="122.70387273593084"/><circle cy="49.46514501444368" r="1.0" cx="126.46514501444368"/><circle cy="61.14449476843188" r="1.0" cx="131.14449476843188"/><circle cy="73.36998194636848" r="1.0" cx="136.36998194636848"/><circle cy="86.16630801652072" r="1.0" cx="142.1663080165207"/><circle cy="99.39186089181253" r="1.0" cx="148.39186089181254"/><circle cy="112.73397344218628" r="1.0" cx="154.73397344218628"/><circle cy="125.79652623374257" r="1.0" cx="160.79652623374255"/><circle cy="138.17305017272307" r="1.0" cx="166.17305017272307"/><circle cy="149.5053290543348" r="1.0" cx="170.5053290543348"/><circle cy="159.5275020164177" r="1.0" cx="173.5275020164177"/><circle cy="168.0956658979537" r="1.0" cx="175.0956658979537"/><circle cy="175.2029775024179" r="1.0" cx="175.2029775024179"/><circle cy="180.9802557659735" r="1.0" cx="173.9802557659735"/><circle cy="42.436441175008625" r="1.0" cx="245.4364411750086"/><circle cy="45.026053083214244" r="1.0" cx="241.02605308321424"/><circle cy="46.399545502670165" r="1.0" cx="235.39954550267015"/><circle cy="45.91908364925267" r="1.0" cx="227.91908364925268"/><circle cy="43.448567124677936" r="1.0" cx="218.44856712467794"/><circle cy="39.224006911122096" r="1.0" cx="207.2240069111221"/><circle cy="33.73749085023713" r="1.0" cx="194.73749085023712"/><circle cy="27.634737606561977" r="1.0" cx="181.63473760656197"/><circle cy="21.62623911532954" r="1.0" cx="168.62623911532955"/><circle cy="16.411991514668237" r="1.0" cx="156.41199151466824"/><circle cy="12.619814562200197" r="1.0" cx="145.6198145622002"/><circle cy="10.757259536034013" r="1.0" cx="136.757259536034"/><circle cy="11.17710562015337" r="1.0" cx="130.17710562015338"/><circle cy="14.056444774201083" r="1.0" cx="126.05644477420108"/><circle cy="19.389355087658387" r="1.0" cx="124.38935508765839"/><circle cy="26.993162618420314" r="1.0" cx="124.99316261842031"/><circle cy="36.52829171576528" r="1.0" cx="127.52829171576528"/><circle cy="47.531703827721884" r="1.0" cx="131.53170382772188"/><circle cy="59.46430722740493" r="1.0" cx="136.46430722740493"/><circle cy="71.9404992035548" r="1.0" cx="141.9404992035548"/><circle cy="84.91767982934542" r="1.0" cx="147.91767982934542"/><circle cy="98.20648777792503" r="1.0" cx="154.20648777792502"/><circle cy="111.47398145663436" r="1.0" cx="160.47398145663436"/><circle cy="124.32612255572519" r="1.0" cx="166.3261225557252"/><circle cy="136.37601251942607" r="1.0" cx="171.37601251942607"/><circle cy="147.29788193935258" r="1.0" cx="175.29788193935258"/><circle cy="156.86683287026506" r="1.0" cx="177.86683287026506"/><circle cy="164.9843340681711" r="1.0" cx="178.9843340681711"/><circle cy="171.68946915077427" r="1.0" cx="178.68946915077427"/><circle cy="177.15593768026986" r="1.0" cx="177.15593768026986"/></g></svg>