<?xml version="1.0" encoding="UTF-8"?>
<!DOCTYPE svg PUBLIC "-//W3C//DTD SVG 1.1//EN"
    "http://www.w3.org/Graphics/SVG/1.1/DTD/svg11.dtd"><svg xmlns="http://www.w3.org/2000/svg" height="200" width="200" xmlns:xlink="http://www.w3.org/1999/xlink" version="1.11.1"><g><path d="M 0.0000,0.0000 L 0.0000,60.0000 L 15.0000,30.0000 " stroke="none" fill="black"/><path d="M 15.0000,0.0000 L 15.0000,60.0000 L 30.0000,30.0000 " stroke="none" fill="black"/><path d="M 30.0000,0.0000 L 30.0000,60.0000 L 45.0000,30.0000 " stroke="none" fill="black"/><path d="M 45.0000,0.0000 L 45.0000,60.0000 L 60.0000,30.0000 " stroke="none" fill="black"/><path d="M 60.0000,0.0000 L 60.0000,60.0000 L 75.0000,30.0000 " stroke="none" fill="black"/><path d="M 75.0000,0.0000 L 75.0000,60.0000 L 90.0000,30.0000 " stroke="none" fill="black"/><path d="M 90.0000,0.0000 L 90.0000,60.0000 L 105.0000,30.0000 " stroke="none" fill="black"/><path d="M 105.0000,0.0000 L 105.0000,60.0000 L 120.0000,30.0000 " stroke="none" fill="black"/><path d="M 120.0000,0.0000 L 120.0000,60.0000 L 135.0000,30.0000 " stroke="none" fill="black"/><path d="M 135.0000,0.0000 L 135.0000,60.0000 L 150.0000,30.0000 " stroke="none" fill="black"/><path d="M 150.0000,0.0000 L 150.0000,60.0000 L 165.0000,30.0000 " stroke="none" fill="black"/><path d="M 165.0000,0.0000 L 165.0000,60.0000 L 180.0000,30.0000 " stroke="none" fill="black"/><path d="M 0.0000,30.0000 L 0.0000,90.0000 L 15.0000,60.0000 " stroke="none" fill="black"/><path d="M 15.0000,30.0000 L 15.0000,90.0000 L 30.0000,60.0000 " stroke="none" fill="black"/><path d="M 45.0000,30.0000 L 45.0000,90.0000 L 60.0000,60.0000 " stroke="none" fill="black"/><path d="M 90.0000,30.0000 L 90.0000,90.0000 L 105.0000,60.0000 " stroke="none" fill="black"/><path d="M 105.0000,30.0000 L 105.0000,90.0000 L 120.0000,60.0000 " stroke="none" fill="black"/><path d="M 135.0000,30.0000 L 135.0000,90.0000 L 150.0000,60.0000 " stroke="none" fill="black"/><path d="M 165.0000,30.0000 L 165.0000,90.0000 L 180.0000,60.0000 " stroke="none" fill="black"/><path d="M 0.0000,60.0000 L 0.0000,120.0000 L 15.0000,90.0000 " stroke="none" fill="black"/><path d="M 30.0000,60.0000 L 30.0000,120.0000 L 45.0000,90.0000 " stroke="none" fill="black"/><path d="M 60.0000,60.0000 L 60.0000,120.0000 L 75.0000,90.0000 " stroke="none" fill="black"/><path d="M 75.0000,60.0000 L 75.0000,120.0000 L 90.0000,90.0000 " stroke="none" fill="black"/><path d="M 120.0000,60.0000 L 120.0000,120.0000 L 135.0000,90.0000 " stroke="none" fill="black"/><path d="M 150.0000,60.0000 L 150.0000,120.0000 L 165.0000,90.0000 " stroke="none" fill="black"/><path d="M 165.0000,60.0000 L 165.0000,120.0000 L 180.0000,90.0000 " stroke="none" fill="black"/><path d="M 0.0000,90.0000 L 0.0000,150.0000 L 15.0000,120.0000 " stroke="none" fill="black"/><path d="M 15.0000,90.0000 L 15.0000,150.0000 L 30.0000,120.0000 " stroke="none" fill="black"/><path d="M 45.0000,90.0000 L 45.0000,150.0000 L 60.0000,120.0000 " stroke="none" fill="black"/><path d="M 90.0000,90.0000 L 90.0000,150.0000 L 105.0000,120.0000 " stroke="none" fill="black"/><path d="M 105.0000,90.0000 L 105.0000,150.0000 L 120.0000,120.0000 " stroke="none" fill="black"/><path d="M 135.0000,90.0000 L 135.0000,150.0000 L 150.0000,120.0000 " stroke="none" fill="black"/><path d="M 165.0000,90.0000 L 165.0000,150.0000 L 180.0000,120.0000 " stroke="none" fill="black"/><path d="M 0.0000,120.0000 L 0.0000,180.0000 L 15.0000,150.0000 " stroke="none" fill="black"/><path d="M 15.0000,120.0000 L 15.0000,180.0000 L 30.0000,150.0000 " stroke="none" fill="black"/><path d="M 30.0000,120.0000 L 30.0000,180.0000 L 45.0000,150.0000 " stroke="none" fill="black"/><path d="M 45.0000,120.0000 L 45.0000,180.0000 L 60.0000,150.0000 " stroke="none" fill="black"/><path d="M 60.0000,120.0000 L 60.0000,180.0000 L 75.0000,150.0000 " stroke="none" fill="black"/><path d="M 75.0000,120.0000 L 75.0000,180.0000 L 90.0000,150.0000 " stroke="none" fill="black"/><path d="M 90.0000,120.0000 L 90.0000,180.0000 L 105.0000,150.0000 " stroke="none" fill="black"/><path d="M 105.0000,120.0000 L 105.0000,180.0000 L 120.0000,150.0000 " stroke="none" fill="black"/><path d="M 120.0000,120.0000 L 120.0000,180.0000 L 135.0000,150.0000 " stroke="none" fill="black"/><path d="M 135.0000,120.0000 L 135.0000,180.0000 L 150.0000,150.0000 " stroke="none" fill="black"/><path d="M 150.0000,120.0000 L 150.0000,180.0000 L 165.0000,150.0000 " stroke="none" fill="black"/><path d="M 165.0000,120.0000 L 165.0000,180.0000 L 180.0000,150.0000 " stroke="none" fill="black"/></g></svg>