<?xml version="1.0" encoding="UTF-8"?>
<!DOCTYPE svg PUBLIC "-//W3C//DTD SVG 1.1//EN"
    "http://www.w3.org/Graphics/SVG/1.1/DTD/svg11.dtd"><svg xmlns="http://www.w3.org/2000/svg" height="200" width="200" xmlns:xlink="http://www.w3.org/1999/xlink" version="1.11.1"><g><path d="M 0.0000,5.2920 L 0.0000,15.8750 L 15.8750,15.8750 L 15.8750,21.1670 L 26.4580,10.5830 L 15.8750,0.0000 L 15.8450,5.2920 " stroke="none" fill="black"/><path d="M 26.4580,5.2920 L 26.4580,15.8750 L 42.3330,15.8750 L 42.3330,21.1670 L 52.9160,10.5830 L 42.3330,0.0000 L 42.3030,5.2920 " stroke="none" fill="black"/><path d="M 52.9160,5.2920 L 52.9160,15.8750 L 68.7910,15.8750 L 68.7910,21.1670 L 79.3740,10.5830 L 68.7910,0.0000 L 68.7610,5.2920 " stroke="none" fill="black"/><path d="M 79.3740,5.2920 L 79.3740,15.8750 L 95.2490,15.8750 L 95.2490,21.1670 L 105.8320,10.5830 L 95.2490,0.0000 L 95.2190,5.2920 " stroke="none" fill="black"/><path d="M 105.8320,5.2920 L 105.8320,15.8750 L 121.7070,15.8750 L 121.7070,21.1670 L 132.2900,10.5830 L 121.7070,0.0000 L 121.6770,5.2920 " stroke="none" fill="black"/><path d="M 132.2900,5.2920 L 132.2900,15.8750 L 148.1650,15.8750 L 148.1650,21.1670 L 158.7480,10.5830 L 148.1650,0.0000 L 148.1350,5.2920 " stroke="none" fill="black"/><path d="M 0.0000,26.4590 L 0.0000,37.0420 L 15.8750,37.0420 L 15.8750,42.3340 L 26.4580,31.7500 L 15.8750,21.1670 L 15.8450,26.4590 " stroke="none" fill="black"/><path d="M 26.4580,26.4590 L 26.4580,37.0420 L 42.3330,37.0420 L 42.3330,42.3340 L 52.9160,31.7500 L 42.3330,21.1670 L 42.3030,26.4590 " stroke="none" fill="black"/><path d="M 52.9160,26.4590 L 52.9160,37.0420 L 68.7910,37.0420 L 68.7910,42.3340 L 79.3740,31.7500 L 68.7910,21.1670 L 68.7610,26.4590 " stroke="none" fill="black"/><path d="M 79.3740,26.4590 L 79.3740,37.0420 L 95.2490,37.0420 L 95.2490,42.3340 L 105.8320,31.7500 L 95.2490,21.1670 L 95.2190,26.4590 " stroke="none" fill="black"/><path d="M 105.8320,26.4590 L 105.8320,37.0420 L 121.7070,37.0420 L 121.7070,42.3340 L 132.2900,31.7500 L 121.7070,21.1670 L 121.6770,26.4590 " stroke="none" fill="black"/><path d="M 132.2900,26.4590 L 132.2900,37.0420 L 148.1650,37.0420 L 148.1650,42.3340 L 158.7480,31.7500 L 148.1650,21.1670 L 148.1350,26.4590 " stroke="none" fill="black"/><path d="M 0.0000,47.6260 L 0.0000,58.2090 L 15.8750,58.2090 L 15.8750,63.5010 L 26.4580,52.9170 L 15.8750,42.3340 L 15.8450,47.6260 " stroke="none" fill="black"/><path d="M 26.4580,47.6260 L 26.4580,58.2090 L 42.3330,58.2090 L 42.3330,63.5010 L 52.9160,52.9170 L 42.3330,42.3340 L 42.3030,47.6260 " stroke="none" fill="black"/><path d="M 52.9160,47.6260 L 52.9160,58.2090 L 68.7910,58.2090 L 68.7910,63.5010 L 79.3740,52.9170 L 68.7910,42.3340 L 68.7610,47.6260 " stroke="none" fill="black"/><path d="M 79.3740,47.6260 L 79.3740,58.2090 L 95.2490,58.2090 L 95.2490,63.5010 L 105.8320,52.9170 L 95.2490,42.3340 L 95.2190,47.6260 " stroke="none" fill="black"/><path d="M 105.8320,47.6260 L 105.8320,58.2090 L 121.7070,58.2090 L 121.7070,63.5010 L 132.2900,52.9170 L 121.7070,42.3340 L 121.6770,47.6260 " stroke="none" fill="black"/><path d="M 132.2900,47.6260 L 132.2900,58.2090 L 148.1650,58.2090 L 148.1650,63.5010 L 158.7480,52.9170 L 148.1650,42.3340 L 148.1350,47.6260 " stroke="none" fill="black"/><path d="M 0.0000,68.7930 L 0.0000,79.3760 L 15.8750,79.3760 L 15.8750,84.6680 L 26.4580,74.0840 L 15.8750,63.5010 L 15.8450,68.7930 " stroke="none" fill="black"/><path d="M 26.4580,68.7930 L 26.4580,79.3760 L 42.3330,79.3760 L 42.3330,84.6680 L 52.9160,74.0840 L 42.3330,63.5010 L 42.3030,68.7930 " stroke="none" fill="black"/><path d="M 52.9160,68.7930 L 52.9160,79.3760 L 68.7910,79.3760 L 68.7910,84.6680 L 79.3740,74.0840 L 68.7910,63.5010 L 68.7610,68.7930 " stroke="none" fill="black"/><path d="M 79.3740,68.7930 L 79.3740,79.3760 L 95.2490,79.3760 L 95.2490,84.6680 L 105.8320,74.0840 L 95.2490,63.5010 L 95.2190,68.7930 " stroke="none" fill="black"/><path d="M 105.8320,68.7930 L 105.8320,79.3760 L 121.7070,79.3760 L 121.7070,84.6680 L 132.2900,74.0840 L 121.7070,63.5010 L 121.6770,68.7930 " stroke="none" fill="black"/><path d="M 132.2900,68.7930 L 132.2900,79.3760 L 148.1650,79.3760 L 148.1650,84.6680 L 158.7480,74.0840 L 148.1650,63.5010 L 148.1350,68.7930 " stroke="none" fill="black"/><path d="M 0.0000,89.9600 L 0.0000,100.5430 L 15.8750,100.5430 L 15.8750,105.8350 L 26.4580,95.2510 L 15.8750,84.6680 L 15.8450,89.9600 " stroke="none" fill="black"/><path d="M 26.4580,89.9600 L 26.4580,100.5430 L 42.3330,100.5430 L 42.3330,105.8350 L 52.9160,95.2510 L 42.3330,84.6680 L 42.3030,89.9600 " stroke="none" fill="black"/><path d="M 52.9160,89.9600 L 52.9160,100.5430 L 68.7910,100.5430 L 68.7910,105.8350 L 79.3740,95.2510 L 68.7910,84.6680 L 68.7610,89.9600 " stroke="none" fill="black"/><path d="M 79.3740,89.9600 L 79.3740,100.5430 L 95.2490,100.5430 L 95.2490,105.8350 L 105.8320,95.2510 L 95.2490,84.6680 L 95.2190,89.9600 " stroke="none" fill="black"/><path d="M 105.8320,89.9600 L 105.8320,100.5430 L 121.7070,100.5430 L 121.7070,105.8350 L 132.2900,95.2510 L 121.7070,84.6680 L 121.6770,89.9600 " stroke="none" fill="black"/><path d="M 132.2900,89.9600 L 132.2900,100.5430 L 148.1650,100.5430 L 148.1650,105.8350 L 158.7480,95.2510 L 148.1650,84.6680 L 148.1350,89.9600 " stroke="none" fill="black"/><path d="M 0.0000,111.1270 L 0.0000,121.7100 L 15.8750,121.7100 L 15.8750,127.0020 L 26.4580,116.4180 L 15.8750,105.8350 L 15.8450,111.1270 " stroke="none" fill="black"/><path d="M 26.4580,111.1270 L 26.4580,121.7100 L 42.3330,121.7100 L 42.3330,127.0020 L 52.9160,116.4180 L 42.3330,105.8350 L 42.3030,111.1270 " stroke="none" fill="black"/><path d="M 52.9160,111.1270 L 52.9160,121.7100 L 68.7910,121.7100 L 68.7910,127.0020 L 79.3740,116.4180 L 68.7910,105.8350 L 68.7610,111.1270 " stroke="none" fill="black"/><path d="M 79.3740,111.1270 L 79.3740,121.7100 L 95.2490,121.7100 L 95.2490,127.0020 L 105.8320,116.4180 L 95.2490,105.8350 L 95.2190,111.1270 " stroke="none" fill="black"/><path d="M 105.8320,111.1270 L 105.8320,121.7100 L 121.7070,121.7100 L 121.7070,127.0020 L 132.2900,116.4180 L 121.7070,105.8350 L 121.6770,111.1270 " stroke="none" fill="black"/><path d="M 132.2900,111.1270 L 132.2900,121.7100 L 148.1650,121.7100 L 148.1650,127.0020 L 158.7480,116.4180 L 148.1650,105.8350 L 148.1350,111.1270 " stroke="none" fill="black"/><path d="M 0.0000,132.2940 L 0.0000,142.8770 L 15.8750,142.8770 L 15.8750,148.1690 L 26.4580,137.5850 L 15.8750,127.0020 L 15.8450,132.2940 " stroke="none" fill="black"/><path d="M 26.4580,132.2940 L 26.4580,142.8770 L 42.3330,142.8770 L 42.3330,148.1690 L 52.9160,137.5850 L 42.3330,127.0020 L 42.3030,132.2940 " stroke="none" fill="black"/><path d="M 52.9160,132.2940 L 52.9160,142.8770 L 68.7910,142.8770 L 68.7910,148.1690 L 79.3740,137.5850 L 68.7910,127.0020 L 68.7610,132.2940 " stroke="none" fill="black"/><path d="M 79.3740,132.2940 L 79.3740,142.8770 L 95.2490,142.8770 L 95.2490,148.1690 L 105.8320,137.5850 L 95.2490,127.0020 L 95.2190,132.2940 " stroke="none" fill="black"/><path d="M 105.8320,132.2940 L 105.8320,142.8770 L 121.7070,142.8770 L 121.7070,148.1690 L 132.2900,137.5850 L 121.7070,127.0020 L 121.6770,132.2940 " stroke="none" fill="black"/><path d="M 132.2900,132.2940 L 132.2900,142.8770 L 148.1650,142.8770 L 148.1650,148.1690 L 158.7480,137.5850 L 148.1650,127.0020 L 148.1350,132.2940 " stroke="none" fill="black"/><path d="M 0.0000,153.4610 L 0.0000,164.0440 L 15.8750,164.0440 L 15.8750,169.3360 L 26.4580,158.7520 L 15.8750,148.1690 L 15.8450,153.4610 " stroke="none" fill="black"/><path d="M 26.4580,153.4610 L 26.4580,164.0440 L 42.3330,164.0440 L 42.3330,169.3360 L 52.9160,158.7520 L 42.3330,148.1690 L 42.3030,153.4610 " stroke="none" fill="black"/><path d="M 52.9160,153.4610 L 52.9160,164.0440 L 68.7910,164.0440 L 68.7910,169.3360 L 79.3740,158.7520 L 68.7910,148.1690 L 68.7610,153.4610 " stroke="none" fill="black"/><path d="M 79.3740,153.4610 L 79.3740,164.0440 L 95.2490,164.0440 L 95.2490,169.3360 L 105.8320,158.7520 L 95.2490,148.1690 L 95.2190,153.4610 " stroke="none" fill="black"/><path d="M 105.8320,153.4610 L 105.8320,164.0440 L 121.7070,164.0440 L 121.7070,169.3360 L 132.2900,158.7520 L 121.7070,148.1690 L 121.6770,153.4610 " stroke="none" fill="black"/><path d="M 132.2900,153.4610 L 132.2900,164.0440 L 148.1650,164.0440 L 148.1650,169.3360 L 158.7480,158.7520 L 148.1650,148.1690 L 148.1350,153.4610 " stroke="none" fill="black"/></g></svg>