<?xml version="1.0" encoding="UTF-8"?>
<!DOCTYPE svg PUBLIC "-//W3C//DTD SVG 1.1//EN"
    "http://www.w3.org/Graphics/SVG/1.1/DTD/svg11.dtd"><svg xmlns="http://www.w3.org/2000/svg" height="200" width="200" xmlns:xlink="http://www.w3.org/1999/xlink" version="1.11.1"><g><path d="M 0.0000,0.0000 L 0.0000,5.2920 L 15.8750,5.2920 L 15.8750,10.5830 L 26.4580,0.0000 L 15.8750,-10.5830 L 15.8450,-5.2920 L 0.0000,-5.2920 " stroke="none" fill="black"/><path d="M 26.4580,0.0000 L 26.4580,5.2920 L 42.3330,5.2920 L 42.3330,10.5830 L 52.9160,0.0000 L 42.3330,-10.5830 L 42.3030,-5.2920 L 26.4580,-5.2920 " stroke="none" fill="black"/><path d="M 52.9160,0.0000 L 52.9160,5.2920 L 68.7910,5.2920 L 68.7910,10.5830 L 79.3740,0.0000 L 68.7910,-10.5830 L 68.7610,-5.2920 L 52.9160,-5.2920 " stroke="none" fill="black"/><path d="M 79.3740,0.0000 L 79.3740,5.2920 L 95.2490,5.2920 L 95.2490,10.5830 L 105.8320,0.0000 L 95.2490,-10.5830 L 95.2190,-5.2920 L 79.3740,-5.2920 " stroke="none" fill="black"/><path d="M 105.8320,0.0000 L 105.8320,5.2920 L 121.7070,5.2920 L 121.7070,10.5830 L 132.2900,0.0000 L 121.7070,-10.5830 L 121.6770,-5.2920 L 105.8320,-5.2920 " stroke="none" fill="black"/><path d="M 132.2900,0.0000 L 132.2900,5.2920 L 148.1650,5.2920 L 148.1650,10.5830 L 158.7480,0.0000 L 148.1650,-10.5830 L 148.1350,-5.2920 L 132.2900,-5.2920 " stroke="none" fill="black"/><path d="M 0.0000,21.1670 L 0.0000,26.4590 L 15.8750,26.4590 L 15.8750,31.7500 L 26.4580,21.1670 L 15.8750,10.5840 L 15.8450,15.8750 L 0.0000,15.8750 " stroke="none" fill="black"/><path d="M 26.4580,21.1670 L 26.4580,26.4590 L 42.3330,26.4590 L 42.3330,31.7500 L 52.9160,21.1670 L 42.3330,10.5840 L 42.3030,15.8750 L 26.4580,15.8750 " stroke="none" fill="black"/><path d="M 52.9160,21.1670 L 52.9160,26.4590 L 68.7910,26.4590 L 68.7910,31.7500 L 79.3740,21.1670 L 68.7910,10.5840 L 68.7610,15.8750 L 52.9160,15.8750 " stroke="none" fill="black"/><path d="M 79.3740,21.1670 L 79.3740,26.4590 L 95.2490,26.4590 L 95.2490,31.7500 L 105.8320,21.1670 L 95.2490,10.5840 L 95.2190,15.8750 L 79.3740,15.8750 " stroke="none" fill="black"/><path d="M 105.8320,21.1670 L 105.8320,26.4590 L 121.7070,26.4590 L 121.7070,31.7500 L 132.2900,21.1670 L 121.7070,10.5840 L 121.6770,15.8750 L 105.8320,15.8750 " stroke="none" fill="black"/><path d="M 132.2900,21.1670 L 132.2900,26.4590 L 148.1650,26.4590 L 148.1650,31.7500 L 158.7480,21.1670 L 148.1650,10.5840 L 148.1350,15.8750 L 132.2900,15.8750 " stroke="none" fill="black"/><path d="M 0.0000,42.3340 L 0.0000,47.6260 L 15.8750,47.6260 L 15.8750,52.9170 L 26.4580,42.3340 L 15.8750,31.7510 L 15.8450,37.0420 L 0.0000,37.0420 " stroke="none" fill="black"/><path d="M 26.4580,42.3340 L 26.4580,47.6260 L 42.3330,47.6260 L 42.3330,52.9170 L 52.9160,42.3340 L 42.3330,31.7510 L 42.3030,37.0420 L 26.4580,37.0420 " stroke="none" fill="black"/><path d="M 52.9160,42.3340 L 52.9160,47.6260 L 68.7910,47.6260 L 68.7910,52.9170 L 79.3740,42.3340 L 68.7910,31.7510 L 68.7610,37.0420 L 52.9160,37.0420 " stroke="none" fill="black"/><path d="M 79.3740,42.3340 L 79.3740,47.6260 L 95.2490,47.6260 L 95.2490,52.9170 L 105.8320,42.3340 L 95.2490,31.7510 L 95.2190,37.0420 L 79.3740,37.0420 " stroke="none" fill="black"/><path d="M 105.8320,42.3340 L 105.8320,47.6260 L 121.7070,47.6260 L 121.7070,52.9170 L 132.2900,42.3340 L 121.7070,31.7510 L 121.6770,37.0420 L 105.8320,37.0420 " stroke="none" fill="black"/><path d="M 132.2900,42.3340 L 132.2900,47.6260 L 148.1650,47.6260 L 148.1650,52.9170 L 158.7480,42.3340 L 148.1650,31.7510 L 148.1350,37.0420 L 132.2900,37.0420 " stroke="none" fill="black"/><path d="M 0.0000,63.5010 L 0.0000,68.7930 L 15.8750,68.7930 L 15.8750,74.0840 L 26.4580,63.5010 L 15.8750,52.9180 L 15.8450,58.2090 L 0.0000,58.2090 " stroke="none" fill="black"/><path d="M 26.4580,63.5010 L 26.4580,68.7930 L 42.3330,68.7930 L 42.3330,74.0840 L 52.9160,63.5010 L 42.3330,52.9180 L 42.3030,58.2090 L 26.4580,58.2090 " stroke="none" fill="black"/><path d="M 52.9160,63.5010 L 52.9160,68.7930 L 68.7910,68.7930 L 68.7910,74.0840 L 79.3740,63.5010 L 68.7910,52.9180 L 68.7610,58.2090 L 52.9160,58.2090 " stroke="none" fill="black"/><path d="M 79.3740,63.5010 L 79.3740,68.7930 L 95.2490,68.7930 L 95.2490,74.0840 L 105.8320,63.5010 L 95.2490,52.9180 L 95.2190,58.2090 L 79.3740,58.2090 " stroke="none" fill="black"/><path d="M 105.8320,63.5010 L 105.8320,68.7930 L 121.7070,68.7930 L 121.7070,74.0840 L 132.2900,63.5010 L 121.7070,52.9180 L 121.6770,58.2090 L 105.8320,58.2090 " stroke="none" fill="black"/><path d="M 132.2900,63.5010 L 132.2900,68.7930 L 148.1650,68.7930 L 148.1650,74.0840 L 158.7480,63.5010 L 148.1650,52.9180 L 148.1350,58.2090 L 132.2900,58.2090 " stroke="none" fill="black"/><path d="M 0.0000,84.6680 L 0.0000,89.9600 L 15.8750,89.9600 L 15.8750,95.2510 L 26.4580,84.6680 L 15.8750,74.0850 L 15.8450,79.3760 L 0.0000,79.3760 " stroke="none" fill="black"/><path d="M 26.4580,84.6680 L 26.4580,89.9600 L 42.3330,89.9600 L 42.3330,95.2510 L 52.9160,84.6680 L 42.3330,74.0850 L 42.3030,79.3760 L 26.4580,79.3760 " stroke="none" fill="black"/><path d="M 52.9160,84.6680 L 52.9160,89.9600 L 68.7910,89.9600 L 68.7910,95.2510 L 79.3740,84.6680 L 68.7910,74.0850 L 68.7610,79.3760 L 52.9160,79.3760 " stroke="none" fill="black"/><path d="M 79.3740,84.6680 L 79.3740,89.9600 L 95.2490,89.9600 L 95.2490,95.2510 L 105.8320,84.6680 L 95.2490,74.0850 L 95.2190,79.3760 L 79.3740,79.3760 " stroke="none" fill="black"/><path d="M 105.8320,84.6680 L 105.8320,89.9600 L 121.7070,89.9600 L 121.7070,95.2510 L 132.2900,84.6680 L 121.7070,74.0850 L 121.6770,79.3760 L 105.8320,79.3760 " stroke="none" fill="black"/><path d="M 132.2900,84.6680 L 132.2900,89.9600 L 148.1650,89.9600 L 148.1650,95.2510 L 158.7480,84.6680 L 148.1650,74.0850 L 148.1350,79.3760 L 132.2900,79.3760 " stroke="none" fill="black"/><path d="M 0.0000,105.8350 L 0.0000,111.1270 L 15.8750,111.1270 L 15.8750,116.4180 L 26.4580,105.8350 L 15.8750,95.2520 L 15.8450,100.5430 L 0.0000,100.5430 " stroke="none" fill="black"/><path d="M 26.4580,105.8350 L 26.4580,111.1270 L 42.3330,111.1270 L 42.3330,116.4180 L 52.9160,105.8350 L 42.3330,95.2520 L 42.3030,100.5430 L 26.4580,100.5430 " stroke="none" fill="black"/><path d="M 52.9160,105.8350 L 52.9160,111.1270 L 68.7910,111.1270 L 68.7910,116.4180 L 79.3740,105.8350 L 68.7910,95.2520 L 68.7610,100.5430 L 52.9160,100.5430 " stroke="none" fill="black"/><path d="M 79.3740,105.8350 L 79.3740,111.1270 L 95.2490,111.1270 L 95.2490,116.4180 L 105.8320,105.8350 L 95.2490,95.2520 L 95.2190,100.5430 L 79.3740,100.5430 " stroke="none" fill="black"/><path d="M 105.8320,105.8350 L 105.8320,111.1270 L 121.7070,111.1270 L 121.7070,116.4180 L 132.2900,105.8350 L 121.7070,95.2520 L 121.6770,100.5430 L 105.8320,100.5430 " stroke="none" fill="black"/><path d="M 132.2900,105.8350 L 132.2900,111.1270 L 148.1650,111.1270 L 148.1650,116.4180 L 158.7480,105.8350 L 148.1650,95.2520 L 148.1350,100.5430 L 132.2900,100.5430 " stroke="none" fill="black"/><path d="M 0.0000,127.0020 L 0.0000,132.2940 L 15.8750,132.2940 L 15.8750,137.5850 L 26.4580,127.0020 L 15.8750,116.4190 L 15.8450,121.7100 L 0.0000,121.7100 " stroke="none" fill="black"/><path d="M 26.4580,127.0020 L 26.4580,132.2940 L 42.3330,132.2940 L 42.3330,137.5850 L 52.9160,127.0020 L 42.3330,116.4190 L 42.3030,121.7100 L 26.4580,121.7100 " stroke="none" fill="black"/><path d="M 52.9160,127.0020 L 52.9160,132.2940 L 68.7910,132.2940 L 68.7910,137.5850 L 79.3740,127.0020 L 68.7910,116.4190 L 68.7610,121.7100 L 52.9160,121.7100 " stroke="none" fill="black"/><path d="M 79.3740,127.0020 L 79.3740,132.2940 L 95.2490,132.2940 L 95.2490,137.5850 L 105.8320,127.0020 L 95.2490,116.4190 L 95.2190,121.7100 L 79.3740,121.7100 " stroke="none" fill="black"/><path d="M 105.8320,127.0020 L 105.8320,132.2940 L 121.7070,132.2940 L 121.7070,137.5850 L 132.2900,127.0020 L 121.7070,116.4190 L 121.6770,121.7100 L 105.8320,121.7100 " stroke="none" fill="black"/><path d="M 132.2900,127.0020 L 132.2900,132.2940 L 148.1650,132.2940 L 148.1650,137.5850 L 158.7480,127.0020 L 148.1650,116.4190 L 148.1350,121.7100 L 132.2900,121.7100 " stroke="none" fill="black"/><path d="M 0.0000,148.1690 L 0.0000,153.4610 L 15.8750,153.4610 L 15.8750,158.7520 L 26.4580,148.1690 L 15.8750,137.5860 L 15.8450,142.8770 L 0.0000,142.8770 " stroke="none" fill="black"/><path d="M 26.4580,148.1690 L 26.4580,153.4610 L 42.3330,153.4610 L 42.3330,158.7520 L 52.9160,148.1690 L 42.3330,137.5860 L 42.3030,142.8770 L 26.4580,142.8770 " stroke="none" fill="black"/><path d="M 52.9160,148.1690 L 52.9160,153.4610 L 68.7910,153.4610 L 68.7910,158.7520 L 79.3740,148.1690 L 68.7910,137.5860 L 68.7610,142.8770 L 52.9160,142.8770 " stroke="none" fill="black"/><path d="M 79.3740,148.1690 L 79.3740,153.4610 L 95.2490,153.4610 L 95.2490,158.7520 L 105.8320,148.1690 L 95.2490,137.5860 L 95.2190,142.8770 L 79.3740,142.8770 " stroke="none" fill="black"/><path d="M 105.8320,148.1690 L 105.8320,153.4610 L 121.7070,153.4610 L 121.7070,158.7520 L 132.2900,148.1690 L 121.7070,137.5860 L 121.6770,142.8770 L 105.8320,142.8770 " stroke="none" fill="black"/><path d="M 132.2900,148.1690 L 132.2900,153.4610 L 148.1650,153.4610 L 148.1650,158.7520 L 158.7480,148.1690 L 148.1650,137.5860 L 148.1350,142.8770 L 132.2900,142.8770 " stroke="none" fill="black"/></g></svg>