<?xml version="1.0" encoding="UTF-8"?>
<!DOCTYPE svg PUBLIC "-//W3C//DTD SVG 1.1//EN"
    "http://www.w3.org/Graphics/SVG/1.1/DTD/svg11.dtd"><svg xmlns="http://www.w3.org/2000/svg" height="200" width="200" xmlns:xlink="http://www.w3.org/1999/xlink" version="1.11.1"><g><path d="M 0.0000,0.0000 L 0.0000,5.2920 L 21.8599,5.2920 L 21.8599,10.5830 L 36.4327,0.0000 L 21.8599,-10.5830 L 21.8186,-5.2920 L 0.0000,-5.2920 " stroke="none" fill="black"/><path d="M 36.4327,0.0000 L 36.4327,5.2920 L 46.9102,5.2920 L 46.9102,10.5830 L 53.8949,0.0000 L 46.9102,-10.5830 L 46.8904,-5.2920 L 36.4327,-5.2920 " stroke="none" fill="black"/><path d="M 53.8949,0.0000 L 53.8949,5.2920 L 75.7548,5.2920 L 75.7548,10.5830 L 90.3276,0.0000 L 75.7548,-10.5830 L 75.7135,-5.2920 L 53.8949,-5.2920 " stroke="none" fill="black"/><path d="M 90.3276,0.0000 L 90.3276,5.2920 L 100.8051,5.2920 L 100.8051,10.5830 L 107.7899,0.0000 L 100.8051,-10.5830 L 100.7853,-5.2920 L 90.3276,-5.2920 " stroke="none" fill="black"/><path d="M 107.7899,0.0000 L 107.7899,5.2920 L 123.6649,5.2920 L 123.6649,10.5830 L 134.2479,0.0000 L 123.6649,-10.5830 L 123.6349,-5.2920 L 107.7899,-5.2920 " stroke="none" fill="black"/><path d="M 134.2479,0.0000 L 134.2479,5.2920 L 150.1229,5.2920 L 150.1229,10.5830 L 160.7059,0.0000 L 150.1229,-10.5830 L 150.0929,-5.2920 L 134.2479,-5.2920 " stroke="none" fill="black"/><path d="M 0.0000,21.1670 L 0.0000,26.4590 L 21.8599,26.4590 L 21.8599,31.7500 L 36.4327,21.1670 L 21.8599,10.5840 L 21.8186,15.8750 L 0.0000,15.8750 " stroke="none" fill="black"/><path d="M 36.4327,21.1670 L 36.4327,26.4590 L 46.9102,26.4590 L 46.9102,31.7500 L 53.8949,21.1670 L 46.9102,10.5840 L 46.8904,15.8750 L 36.4327,15.8750 " stroke="none" fill="black"/><path d="M 53.8949,21.1670 L 53.8949,26.4590 L 75.7548,26.4590 L 75.7548,31.7500 L 90.3276,21.1670 L 75.7548,10.5840 L 75.7135,15.8750 L 53.8949,15.8750 " stroke="none" fill="black"/><path d="M 90.3276,21.1670 L 90.3276,26.4590 L 100.8051,26.4590 L 100.8051,31.7500 L 107.7899,21.1670 L 100.8051,10.5840 L 100.7853,15.8750 L 90.3276,15.8750 " stroke="none" fill="black"/><path d="M 107.7899,21.1670 L 107.7899,26.4590 L 123.6649,26.4590 L 123.6649,31.7500 L 134.2479,21.1670 L 123.6649,10.5840 L 123.6349,15.8750 L 107.7899,15.8750 " stroke="none" fill="black"/><path d="M 134.2479,21.1670 L 134.2479,26.4590 L 150.1229,26.4590 L 150.1229,31.7500 L 160.7059,21.1670 L 150.1229,10.5840 L 150.0929,15.8750 L 134.2479,15.8750 " stroke="none" fill="black"/><path d="M 0.0000,42.3340 L 0.0000,47.6260 L 21.8599,47.6260 L 21.8599,52.9170 L 36.4327,42.3340 L 21.8599,31.7510 L 21.8186,37.0420 L 0.0000,37.0420 " stroke="none" fill="black"/><path d="M 36.4327,42.3340 L 36.4327,47.6260 L 46.9102,47.6260 L 46.9102,52.9170 L 53.8949,42.3340 L 46.9102,31.7510 L 46.8904,37.0420 L 36.4327,37.0420 " stroke="none" fill="black"/><path d="M 53.8949,42.3340 L 53.8949,47.6260 L 75.7548,47.6260 L 75.7548,52.9170 L 90.3276,42.3340 L 75.7548,31.7510 L 75.7135,37.0420 L 53.8949,37.0420 " stroke="none" fill="black"/><path d="M 90.3276,42.3340 L 90.3276,47.6260 L 100.8051,47.6260 L 100.8051,52.9170 L 107.7899,42.3340 L 100.8051,31.7510 L 100.7853,37.0420 L 90.3276,37.0420 " stroke="none" fill="black"/><path d="M 107.7899,42.3340 L 107.7899,47.6260 L 123.6649,47.6260 L 123.6649,52.9170 L 134.2479,42.3340 L 123.6649,31.7510 L 123.6349,37.0420 L 107.7899,37.0420 " stroke="none" fill="black"/><path d="M 134.2479,42.3340 L 134.2479,47.6260 L 150.1229,47.6260 L 150.1229,52.9170 L 160.7059,42.3340 L 150.1229,31.7510 L 150.0929,37.0420 L 134.2479,37.0420 " stroke="none" fill="black"/><path d="M 0.0000,63.5010 L 0.0000,68.7930 L 21.8599,68.7930 L 21.8599,74.0840 L 36.4327,63.5010 L 21.8599,52.9180 L 21.8186,58.2090 L 0.0000,58.2090 " stroke="none" fill="black"/><path d="M 36.4327,63.5010 L 36.4327,68.7930 L 46.9102,68.7930 L 46.9102,74.0840 L 53.8949,63.5010 L 46.9102,52.9180 L 46.8904,58.2090 L 36.4327,58.2090 " stroke="none" fill="black"/><path d="M 53.8949,63.5010 L 53.8949,68.7930 L 75.7548,68.7930 L 75.7548,74.0840 L 90.3276,63.5010 L 75.7548,52.9180 L 75.7135,58.2090 L 53.8949,58.2090 " stroke="none" fill="black"/><path d="M 90.3276,63.5010 L 90.3276,68.7930 L 100.8051,68.7930 L 100.8051,74.0840 L 107.7899,63.5010 L 100.8051,52.9180 L 100.7853,58.2090 L 90.3276,58.2090 " stroke="none" fill="black"/><path d="M 107.7899,63.5010 L 107.7899,68.7930 L 123.6649,68.7930 L 123.6649,74.0840 L 134.2479,63.5010 L 123.6649,52.9180 L 123.6349,58.2090 L 107.7899,58.2090 " stroke="none" fill="black"/><path d="M 134.2479,63.5010 L 134.2479,68.7930 L 150.1229,68.7930 L 150.1229,74.0840 L 160.7059,63.5010 L 150.1229,52.9180 L 150.0929,58.2090 L 134.2479,58.2090 " stroke="none" fill="black"/><path d="M 0.0000,84.6680 L 0.0000,89.9600 L 21.8599,89.9600 L 21.8599,95.2510 L 36.4327,84.6680 L 21.8599,74.0850 L 21.8186,79.3760 L 0.0000,79.3760 " stroke="none" fill="black"/><path d="M 36.4327,84.6680 L 36.4327,89.9600 L 46.9102,89.9600 L 46.9102,95.2510 L 53.8949,84.6680 L 46.9102,74.0850 L 46.8904,79.3760 L 36.4327,79.3760 " stroke="none" fill="black"/><path d="M 53.8949,84.6680 L 53.8949,89.9600 L 75.7548,89.9600 L 75.7548,95.2510 L 90.3276,84.6680 L 75.7548,74.0850 L 75.7135,79.3760 L 53.8949,79.3760 " stroke="none" fill="black"/><path d="M 90.3276,84.6680 L 90.3276,89.9600 L 100.8051,89.9600 L 100.8051,95.2510 L 107.7899,84.6680 L 100.8051,74.0850 L 100.7853,79.3760 L 90.3276,79.3760 " stroke="none" fill="black"/><path d="M 107.7899,84.6680 L 107.7899,89.9600 L 123.6649,89.9600 L 123.6649,95.2510 L 134.2479,84.6680 L 123.6649,74.0850 L 123.6349,79.3760 L 107.7899,79.3760 " stroke="none" fill="black"/><path d="M 134.2479,84.6680 L 134.2479,89.9600 L 150.1229,89.9600 L 150.1229,95.2510 L 160.7059,84.6680 L 150.1229,74.0850 L 150.0929,79.3760 L 134.2479,79.3760 " stroke="none" fill="black"/><path d="M 0.0000,105.8350 L 0.0000,111.1270 L 21.8599,111.1270 L 21.8599,116.4180 L 36.4327,105.8350 L 21.8599,95.2520 L 21.8186,100.5430 L 0.0000,100.5430 " stroke="none" fill="black"/><path d="M 36.4327,105.8350 L 36.4327,111.1270 L 46.9102,111.1270 L 46.9102,116.4180 L 53.8949,105.8350 L 46.9102,95.2520 L 46.8904,100.5430 L 36.4327,100.5430 " stroke="none" fill="black"/><path d="M 53.8949,105.8350 L 53.8949,111.1270 L 75.7548,111.1270 L 75.7548,116.4180 L 90.3276,105.8350 L 75.7548,95.2520 L 75.7135,100.5430 L 53.8949,100.5430 " stroke="none" fill="black"/><path d="M 90.3276,105.8350 L 90.3276,111.1270 L 100.8051,111.1270 L 100.8051,116.4180 L 107.7899,105.8350 L 100.8051,95.2520 L 100.7853,100.5430 L 90.3276,100.5430 " stroke="none" fill="black"/><path d="M 107.7899,105.8350 L 107.7899,111.1270 L 123.6649,111.1270 L 123.6649,116.4180 L 134.2479,105.8350 L 123.6649,95.2520 L 123.6349,100.5430 L 107.7899,100.5430 " stroke="none" fill="black"/><path d="M 134.2479,105.8350 L 134.2479,111.1270 L 150.1229,111.1270 L 150.1229,116.4180 L 160.7059,105.8350 L 150.1229,95.2520 L 150.0929,100.5430 L 134.2479,100.5430 " stroke="none" fill="black"/><path d="M 0.0000,127.0020 L 0.0000,132.2940 L 21.8599,132.2940 L 21.8599,137.5850 L 36.4327,127.0020 L 21.8599,116.4190 L 21.8186,121.7100 L 0.0000,121.7100 " stroke="none" fill="black"/><path d="M 36.4327,127.0020 L 36.4327,132.2940 L 46.9102,132.2940 L 46.9102,137.5850 L 53.8949,127.0020 L 46.9102,116.4190 L 46.8904,121.7100 L 36.4327,121.7100 " stroke="none" fill="black"/><path d="M 53.8949,127.0020 L 53.8949,132.2940 L 75.7548,132.2940 L 75.7548,137.5850 L 90.3276,127.0020 L 75.7548,116.4190 L 75.7135,121.7100 L 53.8949,121.7100 " stroke="none" fill="black"/><path d="M 90.3276,127.0020 L 90.3276,132.2940 L 100.8051,132.2940 L 100.8051,137.5850 L 107.7899,127.0020 L 100.8051,116.4190 L 100.7853,121.7100 L 90.3276,121.7100 " stroke="none" fill="black"/><path d="M 107.7899,127.0020 L 107.7899,132.2940 L 123.6649,132.2940 L 123.6649,137.5850 L 134.2479,127.0020 L 123.6649,116.4190 L 123.6349,121.7100 L 107.7899,121.7100 " stroke="none" fill="black"/><path d="M 134.2479,127.0020 L 134.2479,132.2940 L 150.1229,132.2940 L 150.1229,137.5850 L 160.7059,127.0020 L 150.1229,116.4190 L 150.0929,121.7100 L 134.2479,121.7100 " stroke="none" fill="black"/><path d="M 0.0000,148.1690 L 0.0000,153.4610 L 21.8599,153.4610 L 21.8599,158.7520 L 36.4327,148.1690 L 21.8599,137.5860 L 21.8186,142.8770 L 0.0000,142.8770 " stroke="none" fill="black"/><path d="M 36.4327,148.1690 L 36.4327,153.4610 L 46.9102,153.4610 L 46.9102,158.7520 L 53.8949,148.1690 L 46.9102,137.5860 L 46.8904,142.8770 L 36.4327,142.8770 " stroke="none" fill="black"/><path d="M 53.8949,148.1690 L 53.8949,153.4610 L 75.7548,153.4610 L 75.7548,158.7520 L 90.3276,148.1690 L 75.7548,137.5860 L 75.7135,142.8770 L 53.8949,142.8770 " stroke="none" fill="black"/><path d="M 90.3276,148.1690 L 90.3276,153.4610 L 100.8051,153.4610 L 100.8051,158.7520 L 107.7899,148.1690 L 100.8051,137.5860 L 100.7853,142.8770 L 90.3276,142.8770 " stroke="none" fill="black"/><path d="M 107.7899,148.1690 L 107.7899,153.4610 L 123.6649,153.4610 L 123.6649,158.7520 L 134.2479,148.1690 L 123.6649,137.5860 L 123.6349,142.8770 L 107.7899,142.8770 " stroke="none" fill="black"/><path d="M 134.2479,148.1690 L 134.2479,153.4610 L 150.1229,153.4610 L 150.1229,158.7520 L 160.7059,148.1690 L 150.1229,137.5860 L 150.0929,142.8770 L 134.2479,142.8770 " stroke="none" fill="black"/></g></svg>