<?xml version="1.0" encoding="UTF-8"?>
<!DOCTYPE svg PUBLIC "-//W3C//DTD SVG 1.1//EN"
    "http://www.w3.org/Graphics/SVG/1.1/DTD/svg11.dtd"><svg xmlns="http://www.w3.org/2000/svg" height="200" width="200" xmlns:xlink="http://www.w3.org/1999/xlink" version="1.11.1"><g><path d="M 0.0000,0.0000 L 0.0000,1.0000 L 6.0000,1.0000 L 6.0000,2.0000 L 10.0000,0.0000 L 6.0000,-2.0000 L 6.0000,-1.0000 L 0.0000,-1.0000 " stroke="none" fill="black"/><path d="M 10.0000,0.0000 L 10.0000,1.0000 L 16.0000,1.0000 L 16.0000,2.0000 L 20.0000,0.0000 L 16.0000,-2.0000 L 16.0000,-1.0000 L 10.0000,-1.0000 " stroke="none" fill="black"/><path d="M 20.0000,0.0000 L 20.0000,1.0000 L 26.0000,1.0000 L 26.0000,2.0000 L 30.0000,0.0000 L 26.0000,-2.0000 L 26.0000,-1.0000 L 20.0000,-1.0000 " stroke="none" fill="black"/><path d="M 30.0000,0.0000 L 30.0000,1.0000 L 36.0000,1.0000 L 36.0000,2.0000 L 40.0000,0.0000 L 36.0000,-2.0000 L 36.0000,-1.0000 L 30.0000,-1.0000 " stroke="none" fill="black"/><path d="M 40.0000,0.0000 L 40.0000,1.0000 L 46.0000,1.0000 L 46.0000,2.0000 L 50.0000,0.0000 L 46.0000,-2.0000 L 46.0000,-1.0000 L 40.0000,-1.0000 " stroke="none" fill="black"/><path d="M 50.0000,0.0000 L 50.0000,1.0000 L 56.0000,1.0000 L 56.0000,2.0000 L 60.0000,0.0000 L 56.0000,-2.0000 L 56.0000,-1.0000 L 50.0000,-1.0000 " stroke="none" fill="black"/><path d="M 0.0000,8.0000 L 0.0000,9.0000 L 6.0000,9.0000 L 6.0000,10.0000 L 10.0000,8.0000 L 6.0000,6.0000 L 6.0000,7.0000 L 0.0000,7.0000 " stroke="none" fill="black"/><path d="M 10.0000,8.0000 L 10.0000,9.0000 L 16.0000,9.0000 L 16.0000,10.0000 L 20.0000,8.0000 L 16.0000,6.0000 L 16.0000,7.0000 L 10.0000,7.0000 " stroke="none" fill="black"/><path d="M 20.0000,8.0000 L 20.0000,9.0000 L 26.0000,9.0000 L 26.0000,10.0000 L 30.0000,8.0000 L 26.0000,6.0000 L 26.0000,7.0000 L 20.0000,7.0000 " stroke="none" fill="black"/><path d="M 30.0000,8.0000 L 30.0000,9.0000 L 36.0000,9.0000 L 36.0000,10.0000 L 40.0000,8.0000 L 36.0000,6.0000 L 36.0000,7.0000 L 30.0000,7.0000 " stroke="none" fill="black"/><path d="M 40.0000,8.0000 L 40.0000,9.0000 L 46.0000,9.0000 L 46.0000,10.0000 L 50.0000,8.0000 L 46.0000,6.0000 L 46.0000,7.0000 L 40.0000,7.0000 " stroke="none" fill="black"/><path d="M 50.0000,8.0000 L 50.0000,9.0000 L 56.0000,9.0000 L 56.0000,10.0000 L 60.0000,8.0000 L 56.0000,6.0000 L 56.0000,7.0000 L 50.0000,7.0000 " stroke="none" fill="black"/><path d="M 0.0000,14.0000 L 0.0000,17.0000 L 6.0000,17.0000 L 6.0000,16.0000 L 10.0000,18.0000 L 10.0000,17.0000 L 16.0000,17.0000 L 16.0000,16.0000 L 20.0000,18.0000 L 20.0000,17.0000 L 26.0000,17.0000 L 26.0000,16.0000 L 30.0000,18.0000 L 30.0000,17.0000 L 36.0000,17.0000 L 36.0000,16.0000 L 40.0000,18.0000 L 40.0000,17.0000 L 46.0000,17.0000 L 46.0000,16.0000 L 50.0000,18.0000 L 50.0000,17.0000 L 56.0000,17.0000 L 56.0000,16.0000 L 60.0000,18.0000 L 60.0000,10.0000 L 56.0000,12.0000 L 56.0000,11.0000 L 50.0000,11.0000 L 50.0000,10.0000 L 46.0000,12.0000 L 46.0000,11.0000 L 40.0000,11.0000 L 40.0000,10.0000 L 36.0000,12.0000 L 36.0000,11.0000 L 30.0000,11.0000 L 30.0000,10.0000 L 26.0000,12.0000 L 26.0000,11.0000 L 20.0000,11.0000 L 20.0000,10.0000 L 16.0000,12.0000 L 16.0000,11.0000 L 10.0000,11.0000 L 10.0000,10.0000 L 6.0000,12.0000 L 6.0000,11.0000 L 0.0000,11.0000 " stroke="none" fill="black"/><path d="M 0.0000,22.0000 L 0.0000,25.0000 L 6.0000,25.0000 L 6.0000,24.0000 L 10.0000,26.0000 L 10.0000,25.0000 L 16.0000,25.0000 L 16.0000,24.0000 L 20.0000,26.0000 L 20.0000,25.0000 L 26.0000,25.0000 L 26.0000,24.0000 L 30.0000,26.0000 L 30.0000,25.0000 L 36.0000,25.0000 L 36.0000,24.0000 L 40.0000,26.0000 L 40.0000,25.0000 L 46.0000,25.0000 L 46.0000,24.0000 L 50.0000,26.0000 L 50.0000,25.0000 L 56.0000,25.0000 L 56.0000,24.0000 L 60.0000,26.0000 L 60.0000,18.0000 L 56.0000,20.0000 L 56.0000,19.0000 L 50.0000,19.0000 L 50.0000,18.0000 L 46.0000,20.0000 L 46.0000,19.0000 L 40.0000,19.0000 L 40.0000,18.0000 L 36.0000,20.0000 L 36.0000,19.0000 L 30.0000,19.0000 L 30.0000,18.0000 L 26.0000,20.0000 L 26.0000,19.0000 L 20.0000,19.0000 L 20.0000,18.0000 L 16.0000,20.0000 L 16.0000,19.0000 L 10.0000,19.0000 L 10.0000,18.0000 L 6.0000,20.0000 L 6.0000,19.0000 L 0.0000,19.0000 " stroke="none" fill="black"/><path d="M 0.0000,28.0000 L 0.0000,29.0000 L 6.0000,29.0000 L 6.0000,30.0000 L 10.0000,28.0000 L 6.0000,26.0000 L 6.0000,27.0000 L 0.0000,27.0000 " stroke="none" fill="black"/><path d="M 10.0000,28.0000 L 10.0000,29.0000 L 16.0000,29.0000 L 16.0000,30.0000 L 20.0000,28.0000 L 16.0000,26.0000 L 16.0000,27.0000 L 10.0000,27.0000 " stroke="none" fill="black"/><path d="M 20.0000,28.0000 L 20.0000,29.0000 L 26.0000,29.0000 L 26.0000,30.0000 L 30.0000,28.0000 L 26.0000,26.0000 L 26.0000,27.0000 L 20.0000,27.0000 " stroke="none" fill="black"/><path d="M 30.0000,28.0000 L 30.0000,29.0000 L 36.0000,29.0000 L 36.0000,30.0000 L 40.0000,28.0000 L 36.0000,26.0000 L 36.0000,27.0000 L 30.0000,27.0000 " stroke="none" fill="black"/><path d="M 40.0000,28.0000 L 40.0000,29.0000 L 46.0000,29.0000 L 46.0000,30.0000 L 50.0000,28.0000 L 46.0000,26.0000 L 46.0000,27.0000 L 40.0000,27.0000 " stroke="none" fill="black"/><path d="M 50.0000,28.0000 L 50.0000,29.0000 L 56.0000,29.0000 L 56.0000,30.0000 L 60.0000,28.0000 L 56.0000,26.0000 L 56.0000,27.0000 L 50.0000,27.0000 " stroke="none" fill="black"/><path d="M 0.0000,36.0000 L 0.0000,37.0000 L 6.0000,37.0000 L 6.0000,38.0000 L 10.0000,36.0000 L 6.0000,34.0000 L 6.0000,35.0000 L 0.0000,35.0000 " stroke="none" fill="black"/><path d="M 10.0000,36.0000 L 10.0000,37.0000 L 16.0000,37.0000 L 16.0000,38.0000 L 20.0000,36.0000 L 16.0000,34.0000 L 16.0000,35.0000 L 10.0000,35.0000 " stroke="none" fill="black"/><path d="M 20.0000,36.0000 L 20.0000,37.0000 L 26.0000,37.0000 L 26.0000,38.0000 L 30.0000,36.0000 L 26.0000,34.0000 L 26.0000,35.0000 L 20.0000,35.0000 " stroke="none" fill="black"/><path d="M 30.0000,36.0000 L 30.0000,37.0000 L 36.0000,37.0000 L 36.0000,38.0000 L 40.0000,36.0000 L 36.0000,34.0000 L 36.0000,35.0000 L 30.0000,35.0000 " stroke="none" fill="black"/><path d="M 40.0000,36.0000 L 40.0000,37.0000 L 46.0000,37.0000 L 46.0000,38.0000 L 50.0000,36.0000 L 46.0000,34.0000 L 46.0000,35.0000 L 40.0000,35.0000 " stroke="none" fill="black"/><path d="M 50.0000,36.0000 L 50.0000,37.0000 L 56.0000,37.0000 L 56.0000,38.0000 L 60.0000,36.0000 L 56.0000,34.0000 L 56.0000,35.0000 L 50.0000,35.0000 " stroke="none" fill="black"/><path d="M 0.0000,42.0000 L 0.0000,45.0000 L 6.0000,45.0000 L 6.0000,44.0000 L 10.0000,46.0000 L 10.0000,45.0000 L 16.0000,45.0000 L 16.0000,44.0000 L 20.0000,46.0000 L 20.0000,45.0000 L 26.0000,45.0000 L 26.0000,44.0000 L 30.0000,46.0000 L 30.0000,45.0000 L 36.0000,45.0000 L 36.0000,44.0000 L 40.0000,46.0000 L 40.0000,45.0000 L 46.0000,45.0000 L 46.0000,44.0000 L 50.0000,46.0000 L 50.0000,45.0000 L 56.0000,45.0000 L 56.0000,44.0000 L 60.0000,46.0000 L 60.0000,38.0000 L 56.0000,40.0000 L 56.0000,39.0000 L 50.0000,39.0000 L 50.0000,38.0000 L 46.0000,40.0000 L 46.0000,39.0000 L 40.0000,39.0000 L 40.0000,38.0000 L 36.0000,40.0000 L 36.0000,39.0000 L 30.0000,39.0000 L 30.0000,38.0000 L 26.0000,40.0000 L 26.0000,39.0000 L 20.0000,39.0000 L 20.0000,38.0000 L 16.0000,40.0000 L 16.0000,39.0000 L 10.0000,39.0000 L 10.0000,38.0000 L 6.0000,40.0000 L 6.0000,39.0000 L 0.0000,39.0000 " stroke="none" fill="black"/><path d="M 0.0000,50.0000 L 0.0000,53.0000 L 6.0000,53.0000 L 6.0000,52.0000 L 10.0000,54.0000 L 10.0000,53.0000 L 16.0000,53.0000 L 16.0000,52.0000 L 20.0000,54.0000 L 20.0000,53.0000 L 26.0000,53.0000 L 26.0000,52.0000 L 30.0000,54.0000 L 30.0000,53.0000 L 36.0000,53.0000 L 36.0000,52.0000 L 40.0000,54.0000 L 40.0000,53.0000 L 46.0000,53.0000 L 46.0000,52.0000 L 50.0000,54.0000 L 50.0000,53.0000 L 56.0000,53.0000 L 56.0000,52.0000 L 60.0000,54.0000 L 60.0000,46.0000 L 56.0000,48.0000 L 56.0000,47.0000 L 50.0000,47.0000 L 50.0000,46.0000 L 46.0000,48.0000 L 46.0000,47.0000 L 40.0000,47.0000 L 40.0000,46.0000 L 36.0000,48.0000 L 36.0000,47.0000 L 30.0000,47.0000 L 30.0000,46.0000 L 26.0000,48.0000 L 26.0000,47.0000 L 20.0000,47.0000 L 20.0000,46.0000 L 16.0000,48.0000 L 16.0000,47.0000 L 10.0000,47.0000 L 10.0000,46.0000 L 6.0000,48.0000 L 6.0000,47.0000 L 0.0000,47.0000 " stroke="none" fill="black"/><path d="M 0.0000,56.0000 L 0.0000,57.0000 L 6.0000,57.0000 L 6.0000,58.0000 L 10.0000,56.0000 L 6.0000,54.0000 L 6.0000,55.0000 L 0.0000,55.0000 " stroke="none" fill="black"/><path d="M 10.0000,56.0000 L 10.0000,57.0000 L 16.0000,57.0000 L 16.0000,58.0000 L 20.0000,56.0000 L 16.0000,54.0000 L 16.0000,55.0000 L 10.0000,55.0000 " stroke="none" fill="black"/><path d="M 20.0000,56.0000 L 20.0000,57.0000 L 26.0000,57.0000 L 26.0000,58.0000 L 30.0000,56.0000 L 26.0000,54.0000 L 26.0000,55.0000 L 20.0000,55.0000 " stroke="none" fill="black"/><path d="M 30.0000,56.0000 L 30.0000,57.0000 L 36.0000,57.0000 L 36.0000,58.0000 L 40.0000,56.0000 L 36.0000,54.0000 L 36.0000,55.0000 L 30.0000,55.0000 " stroke="none" fill="black"/><path d="M 40.0000,56.0000 L 40.0000,57.0000 L 46.0000,57.0000 L 46.0000,58.0000 L 50.0000,56.0000 L 46.0000,54.0000 L 46.0000,55.0000 L 40.0000,55.0000 " stroke="none" fill="black"/><path d="M 50.0000,56.0000 L 50.0000,57.0000 L 56.0000,57.0000 L 56.0000,58.0000 L 60.0000,56.0000 L 56.0000,54.0000 L 56.0000,55.0000 L 50.0000,55.0000 " stroke="none" fill="black"/><path d="M 0.0000,64.0000 L 0.0000,65.0000 L 6.0000,65.0000 L 6.0000,66.0000 L 10.0000,64.0000 L 6.0000,62.0000 L 6.0000,63.0000 L 0.0000,63.0000 " stroke="none" fill="black"/><path d="M 10.0000,64.0000 L 10.0000,65.0000 L 16.0000,65.0000 L 16.0000,66.0000 L 20.0000,64.0000 L 16.0000,62.0000 L 16.0000,63.0000 L 10.0000,63.0000 " stroke="none" fill="black"/><path d="M 20.0000,64.0000 L 20.0000,65.0000 L 26.0000,65.0000 L 26.0000,66.0000 L 30.0000,64.0000 L 26.0000,62.0000 L 26.0000,63.0000 L 20.0000,63.0000 " stroke="none" fill="black"/><path d="M 30.0000,64.0000 L 30.0000,65.0000 L 36.0000,65.0000 L 36.0000,66.0000 L 40.0000,64.0000 L 36.0000,62.0000 L 36.0000,63.0000 L 30.0000,63.0000 " stroke="none" fill="black"/><path d="M 40.0000,64.0000 L 40.0000,65.0000 L 46.0000,65.0000 L 46.0000,66.0000 L 50.0000,64.0000 L 46.0000,62.0000 L 46.0000,63.0000 L 40.0000,63.0000 " stroke="none" fill="black"/><path d="M 50.0000,64.0000 L 50.0000,65.0000 L 56.0000,65.0000 L 56.0000,66.0000 L 60.0000,64.0000 L 56.0000,62.0000 L 56.0000,63.0000 L 50.0000,63.0000 " stroke="none" fill="black"/></g></svg>