<?xml version="1.0" encoding="UTF-8" standalone="no"?>
<!-- Created with Inkscape (http://www.inkscape.org/) -->

<svg
   xmlns:dc="http://purl.org/dc/elements/1.1/"
   xmlns:cc="http://creativecommons.org/ns#"
   xmlns:rdf="http://www.w3.org/1999/02/22-rdf-syntax-ns#"
   xmlns:svg="http://www.w3.org/2000/svg"
   xmlns="http://www.w3.org/2000/svg"
   xmlns:sodipodi="http://sodipodi.sourceforge.net/DTD/sodipodi-0.dtd"
   xmlns:inkscape="http://www.inkscape.org/namespaces/inkscape"
   width="200mm"
   height="200mm"
   viewBox="0 0 200 200"
   version="1.1"
   id="svg8"
   inkscape:version="0.92.4 (5da689c313, 2019-01-14)"
   sodipodi:docname="10.svg">
  <defs
     id="defs2" />
  <sodipodi:namedview
     id="base"
     pagecolor="#ffffff"
     bordercolor="#666666"
     borderopacity="1.0"
     inkscape:pageopacity="0.0"
     inkscape:pageshadow="2"
     inkscape:zoom="0.98994949"
     inkscape:cx="682.8795"
     inkscape:cy="432.9596"
     inkscape:document-units="mm"
     inkscape:current-layer="layer1"
     showgrid="true"
     inkscape:window-width="1918"
     inkscape:window-height="1020"
     inkscape:window-x="1921"
     inkscape:window-y="29"
     inkscape:window-maximized="1">
    <inkscape:grid
       type="xygrid"
       id="grid29" />
  </sodipodi:namedview>
  <metadata
     id="metadata5">
    <rdf:RDF>
      <cc:Work
         rdf:about="">
        <dc:format>image/svg+xml</dc:format>
        <dc:type
           rdf:resource="http://purl.org/dc/dcmitype/StillImage" />
        <dc:title></dc:title>
      </cc:Work>
    </rdf:RDF>
  </metadata>
  <g
     inkscape:label="Layer 1"
     inkscape:groupmode="layer"
     id="layer1"
     transform="translate(0,-97)">
    <path
       sodipodi:nodetypes="cccccccc"
       inkscape:connector-curvature="0"
       id="path5117"
       d="m 21.166666,129.25351 v -5.29243 h 15.875 v -2.64621 l 10.583333,5.29243 -10.583333,5.29244 v -2.64623 z"
       style="fill:#000000;fill-opacity:1;fill-rule:evenodd;stroke:none;stroke-width:0.18710233px;stroke-linecap:butt;stroke-linejoin:miter;stroke-opacity:1" />
    <path
       style="fill:#000000;fill-opacity:1;fill-rule:evenodd;stroke:none;stroke-width:0.18710247px;stroke-linecap:butt;stroke-linejoin:miter;stroke-opacity:1"
       d="m 21.166667,139.83725 v -5.29245 h 15.875 v -2.64621 l 10.583333,5.29244 -10.583333,5.29245 v -2.64623 z"
       id="path5279"
       inkscape:connector-curvature="0"
       sodipodi:nodetypes="cccccccc" />
    <path
       style="fill:#000000;fill-opacity:1;fill-rule:evenodd;stroke:none;stroke-width:0.18710233px;stroke-linecap:butt;stroke-linejoin:miter;stroke-opacity:1"
       d="m 47.625,129.25364 v -5.29243 H 63.5 V 121.315 L 74.083333,126.60743 63.5,131.89987 v -2.64623 z"
       id="path5297"
       inkscape:connector-curvature="0"
       sodipodi:nodetypes="cccccccc" />
    <path
       sodipodi:nodetypes="cccccccc"
       inkscape:connector-curvature="0"
       id="path5299"
       d="m 47.625001,139.83738 v -5.29244 h 15.875 v -2.64622 l 10.583333,5.29244 -10.583333,5.29245 v -2.64623 z"
       style="fill:#000000;fill-opacity:1;fill-rule:evenodd;stroke:none;stroke-width:0.18710247px;stroke-linecap:butt;stroke-linejoin:miter;stroke-opacity:1" />
    <path
       sodipodi:nodetypes="cccccccc"
       inkscape:connector-curvature="0"
       id="path5313"
       d="m 74.083333,129.25378 v -5.29244 h 15.875 v -2.64621 L 100.54167,126.60756 89.958333,131.9 v -2.64622 z"
       style="fill:#000000;fill-opacity:1;fill-rule:evenodd;stroke:none;stroke-width:0.18710233px;stroke-linecap:butt;stroke-linejoin:miter;stroke-opacity:1" />
    <path
       style="fill:#000000;fill-opacity:1;fill-rule:evenodd;stroke:none;stroke-width:0.18710247px;stroke-linecap:butt;stroke-linejoin:miter;stroke-opacity:1"
       d="m 74.083334,139.83752 v -5.29245 h 15.875 v -2.64621 l 10.583336,5.29244 -10.583336,5.29244 v -2.64622 z"
       id="path5315"
       inkscape:connector-curvature="0"
       sodipodi:nodetypes="cccccccc" />
    <path
       style="fill:#000000;fill-opacity:1;fill-rule:evenodd;stroke:none;stroke-width:0.18710233px;stroke-linecap:butt;stroke-linejoin:miter;stroke-opacity:1"
       d="m 100.54167,129.25378 v -5.29243 h 15.875 v -2.64621 L 127,126.60757 l -10.58333,5.29244 v -2.64623 z"
       id="path5329"
       inkscape:connector-curvature="0"
       sodipodi:nodetypes="cccccccc" />
    <path
       sodipodi:nodetypes="cccccccc"
       inkscape:connector-curvature="0"
       id="path5331"
       d="m 100.54167,139.83752 v -5.29244 h 15.875 v -2.64622 L 127,137.1913 l -10.58333,5.29245 v -2.64623 z"
       style="fill:#000000;fill-opacity:1;fill-rule:evenodd;stroke:none;stroke-width:0.18710247px;stroke-linecap:butt;stroke-linejoin:miter;stroke-opacity:1" />
    <path
       style="fill:#000000;fill-opacity:1;fill-rule:evenodd;stroke:none;stroke-width:0.18710233px;stroke-linecap:butt;stroke-linejoin:miter;stroke-opacity:1"
       d="m 127,129.25351 v -5.29243 h 15.875 v -2.64621 l 10.58334,5.29243 -10.58334,5.29244 v -2.64623 z"
       id="path5345"
       inkscape:connector-curvature="0"
       sodipodi:nodetypes="cccccccc" />
    <path
       sodipodi:nodetypes="cccccccc"
       inkscape:connector-curvature="0"
       id="path5347"
       d="m 127,139.83725 v -5.29245 h 15.875 v -2.64621 l 10.58334,5.29244 -10.58334,5.29245 v -2.64623 z"
       style="fill:#000000;fill-opacity:1;fill-rule:evenodd;stroke:none;stroke-width:0.18710247px;stroke-linecap:butt;stroke-linejoin:miter;stroke-opacity:1" />
    <path
       sodipodi:nodetypes="cccccccc"
       inkscape:connector-curvature="0"
       id="path5361"
       d="m 153.45834,129.25364 v -5.29243 h 15.875 V 121.315 l 10.58333,5.29243 -10.58333,5.29244 v -2.64623 z"
       style="fill:#000000;fill-opacity:1;fill-rule:evenodd;stroke:none;stroke-width:0.18710233px;stroke-linecap:butt;stroke-linejoin:miter;stroke-opacity:1" />
    <path
       style="fill:#000000;fill-opacity:1;fill-rule:evenodd;stroke:none;stroke-width:0.18710247px;stroke-linecap:butt;stroke-linejoin:miter;stroke-opacity:1"
       d="m 153.45834,139.83738 v -5.29244 h 15.875 v -2.64622 l 10.58333,5.29244 -10.58333,5.29245 v -2.64623 z"
       id="path5363"
       inkscape:connector-curvature="0"
       sodipodi:nodetypes="cccccccc" />
    <path
       style="fill:#000000;fill-opacity:1;fill-rule:evenodd;stroke:none;stroke-width:0.26458332px;stroke-linecap:butt;stroke-linejoin:miter;stroke-opacity:1"
       d="m 21.166667,140.89583 h 15.875 v 2.64582 L 47.625,138.24999 v 2.64584 H 63.5 v 2.64582 l 10.583333,-5.29166 v 2.64584 h 15.875 v 2.64582 l 10.583337,-5.29166 v 2.64584 h 15.875 v 2.64582 L 127,138.24999 v 2.64584 h 15.875 v 2.64582 l 10.58333,-5.29166 v 2.64584 h 15.875 v 2.64582 l 10.58334,-5.29166 v 21.16666 l -10.58334,-5.29167 v 2.64583 h -15.875 v 2.64584 L 142.875,154.12498 v 2.64583 H 127 v 2.64584 l -10.58333,-5.29167 v 2.64583 h -15.875 v 2.64584 l -10.583337,-5.29167 v 2.64583 h -15.875 v 2.64584 L 63.5,154.12498 v 2.64583 H 47.625 v 2.64584 l -10.583333,-5.29167 v 2.64583 h -15.875 z"
       id="path5409"
       inkscape:connector-curvature="0" />
    <path
       inkscape:connector-curvature="0"
       id="path5411"
       d="m 21.166667,162.06251 h 15.875 v 2.64582 L 47.625,159.41667 v 2.64584 H 63.5 v 2.64582 l 10.583333,-5.29166 v 2.64584 h 15.875 v 2.64582 l 10.583337,-5.29166 v 2.64584 h 15.875 v 2.64582 L 127,159.41667 v 2.64584 h 15.875 v 2.64582 l 10.58333,-5.29166 v 2.64584 h 15.875 v 2.64582 l 10.58334,-5.29166 v 21.16666 l -10.58334,-5.29167 v 2.64583 h -15.875 v 2.64584 L 142.875,175.29166 v 2.64583 H 127 v 2.64584 l -10.58333,-5.29167 v 2.64583 h -15.875 v 2.64584 l -10.583337,-5.29167 v 2.64583 h -15.875 v 2.64584 L 63.5,175.29166 v 2.64583 H 47.625 v 2.64584 l -10.583333,-5.29167 v 2.64583 h -15.875 z"
       style="fill:#000000;fill-opacity:1;fill-rule:evenodd;stroke:none;stroke-width:0.26458332px;stroke-linecap:butt;stroke-linejoin:miter;stroke-opacity:1" />
    <path
       style="fill:#000000;fill-opacity:1;fill-rule:evenodd;stroke:none;stroke-width:0.18710233px;stroke-linecap:butt;stroke-linejoin:miter;stroke-opacity:1"
       d="m 21.166667,184.28785 v -5.29243 h 15.875 v -2.64621 l 10.583333,5.29243 -10.583333,5.29244 v -2.64623 z"
       id="path5413"
       inkscape:connector-curvature="0"
       sodipodi:nodetypes="cccccccc" />
    <path
       sodipodi:nodetypes="cccccccc"
       inkscape:connector-curvature="0"
       id="path5415"
       d="m 21.166667,194.87162 v -5.29245 h 15.875 v -2.64621 L 47.625,192.2254 37.041667,197.51785 v -2.64623 z"
       style="fill:#000000;fill-opacity:1;fill-rule:evenodd;stroke:none;stroke-width:0.18710247px;stroke-linecap:butt;stroke-linejoin:miter;stroke-opacity:1" />
    <path
       sodipodi:nodetypes="cccccccc"
       inkscape:connector-curvature="0"
       id="path5417"
       d="m 47.625001,184.28798 v -5.29243 h 15.875 v -2.64621 l 10.583333,5.29243 -10.583333,5.29244 v -2.64623 z"
       style="fill:#000000;fill-opacity:1;fill-rule:evenodd;stroke:none;stroke-width:0.18710233px;stroke-linecap:butt;stroke-linejoin:miter;stroke-opacity:1" />
    <path
       style="fill:#000000;fill-opacity:1;fill-rule:evenodd;stroke:none;stroke-width:0.18710247px;stroke-linecap:butt;stroke-linejoin:miter;stroke-opacity:1"
       d="m 47.625001,194.87175 v -5.29244 h 15.875 v -2.64622 l 10.583333,5.29244 -10.583333,5.29245 v -2.64623 z"
       id="path5419"
       inkscape:connector-curvature="0"
       sodipodi:nodetypes="cccccccc" />
    <path
       style="fill:#000000;fill-opacity:1;fill-rule:evenodd;stroke:none;stroke-width:0.18710233px;stroke-linecap:butt;stroke-linejoin:miter;stroke-opacity:1"
       d="m 74.083334,184.28812 v -5.29244 h 15.875 v -2.64621 l 10.583336,5.29243 -10.583336,5.29244 v -2.64622 z"
       id="path5421"
       inkscape:connector-curvature="0"
       sodipodi:nodetypes="cccccccc" />
    <path
       sodipodi:nodetypes="cccccccc"
       inkscape:connector-curvature="0"
       id="path5423"
       d="m 74.083334,194.87189 v -5.29245 h 15.875 v -2.64621 l 10.583336,5.29244 -10.583336,5.29244 v -2.64622 z"
       style="fill:#000000;fill-opacity:1;fill-rule:evenodd;stroke:none;stroke-width:0.18710247px;stroke-linecap:butt;stroke-linejoin:miter;stroke-opacity:1" />
    <path
       sodipodi:nodetypes="cccccccc"
       inkscape:connector-curvature="0"
       id="path5425"
       d="m 100.54167,184.28812 v -5.29243 h 15.875 v -2.64621 L 127,181.64191 l -10.58333,5.29244 v -2.64623 z"
       style="fill:#000000;fill-opacity:1;fill-rule:evenodd;stroke:none;stroke-width:0.18710233px;stroke-linecap:butt;stroke-linejoin:miter;stroke-opacity:1" />
    <path
       style="fill:#000000;fill-opacity:1;fill-rule:evenodd;stroke:none;stroke-width:0.18710247px;stroke-linecap:butt;stroke-linejoin:miter;stroke-opacity:1"
       d="m 100.54167,194.87189 v -5.29244 h 15.875 v -2.64622 L 127,192.22567 l -10.58333,5.29245 v -2.64623 z"
       id="path5427"
       inkscape:connector-curvature="0"
       sodipodi:nodetypes="cccccccc" />
    <path
       sodipodi:nodetypes="cccccccc"
       inkscape:connector-curvature="0"
       id="path5429"
       d="m 127,184.28785 v -5.29243 h 15.875 v -2.64621 l 10.58334,5.29243 -10.58334,5.29244 v -2.64623 z"
       style="fill:#000000;fill-opacity:1;fill-rule:evenodd;stroke:none;stroke-width:0.18710233px;stroke-linecap:butt;stroke-linejoin:miter;stroke-opacity:1" />
    <path
       style="fill:#000000;fill-opacity:1;fill-rule:evenodd;stroke:none;stroke-width:0.18710247px;stroke-linecap:butt;stroke-linejoin:miter;stroke-opacity:1"
       d="m 127,194.87162 v -5.29245 h 15.875 v -2.64621 l 10.58334,5.29244 -10.58334,5.29245 v -2.64623 z"
       id="path5431"
       inkscape:connector-curvature="0"
       sodipodi:nodetypes="cccccccc" />
    <path
       style="fill:#000000;fill-opacity:1;fill-rule:evenodd;stroke:none;stroke-width:0.18710233px;stroke-linecap:butt;stroke-linejoin:miter;stroke-opacity:1"
       d="m 153.45834,184.28798 v -5.29243 h 15.875 v -2.64621 l 10.58333,5.29243 -10.58333,5.29244 v -2.64623 z"
       id="path5433"
       inkscape:connector-curvature="0"
       sodipodi:nodetypes="cccccccc" />
    <path
       sodipodi:nodetypes="cccccccc"
       inkscape:connector-curvature="0"
       id="path5435"
       d="m 153.45834,194.87175 v -5.29244 h 15.875 v -2.64622 l 10.58333,5.29244 -10.58333,5.29245 v -2.64623 z"
       style="fill:#000000;fill-opacity:1;fill-rule:evenodd;stroke:none;stroke-width:0.18710247px;stroke-linecap:butt;stroke-linejoin:miter;stroke-opacity:1" />
    <path
       inkscape:connector-curvature="0"
       id="path5437"
       d="m 21.166667,195.92954 h 15.875 v 2.64582 L 47.625,193.2837 v 2.64584 H 63.5 v 2.64582 l 10.583333,-5.29166 v 2.64584 h 15.875 v 2.64582 l 10.583337,-5.29166 v 2.64584 h 15.875 v 2.64582 L 127,193.2837 v 2.64584 h 15.875 v 2.64582 l 10.58333,-5.29166 v 2.64584 h 15.875 v 2.64582 l 10.58334,-5.29166 v 21.16666 l -10.58334,-5.29167 v 2.64583 h -15.875 v 2.64584 L 142.875,209.15869 v 2.64583 H 127 v 2.64584 l -10.58333,-5.29167 v 2.64583 h -15.875 v 2.64584 l -10.583337,-5.29167 v 2.64583 h -15.875 v 2.64584 L 63.5,209.15869 v 2.64583 H 47.625 v 2.64584 l -10.583333,-5.29167 v 2.64583 h -15.875 z"
       style="fill:#000000;fill-opacity:1;fill-rule:evenodd;stroke:none;stroke-width:0.26458332px;stroke-linecap:butt;stroke-linejoin:miter;stroke-opacity:1" />
    <path
       style="fill:#000000;fill-opacity:1;fill-rule:evenodd;stroke:none;stroke-width:0.26458332px;stroke-linecap:butt;stroke-linejoin:miter;stroke-opacity:1"
       d="m 21.166667,217.09622 h 15.875 v 2.64582 L 47.625,214.45038 v 2.64584 H 63.5 v 2.64582 l 10.583333,-5.29166 v 2.64584 h 15.875 v 2.64582 l 10.583337,-5.29166 v 2.64584 h 15.875 v 2.64582 L 127,214.45038 v 2.64584 h 15.875 v 2.64582 l 10.58333,-5.29166 v 2.64584 h 15.875 v 2.64582 l 10.58334,-5.29166 v 21.16666 l -10.58334,-5.29167 v 2.64583 h -15.875 v 2.64584 L 142.875,230.32537 v 2.64583 H 127 v 2.64584 l -10.58333,-5.29167 v 2.64583 h -15.875 v 2.64584 l -10.583337,-5.29167 v 2.64583 h -15.875 v 2.64584 L 63.5,230.32537 v 2.64583 H 47.625 v 2.64584 l -10.583333,-5.29167 v 2.64583 h -15.875 z"
       id="path5439"
       inkscape:connector-curvature="0" />
    <path
       sodipodi:nodetypes="cccccccc"
       inkscape:connector-curvature="0"
       id="path5441"
       d="m 21.166667,239.32105 v -5.29243 h 15.875 v -2.64621 l 10.583333,5.29243 -10.583333,5.29244 v -2.64623 z"
       style="fill:#000000;fill-opacity:1;fill-rule:evenodd;stroke:none;stroke-width:0.18710233px;stroke-linecap:butt;stroke-linejoin:miter;stroke-opacity:1" />
    <path
       style="fill:#000000;fill-opacity:1;fill-rule:evenodd;stroke:none;stroke-width:0.18710247px;stroke-linecap:butt;stroke-linejoin:miter;stroke-opacity:1"
       d="m 21.166667,249.9052 v -5.29245 h 15.875 v -2.64621 l 10.583333,5.29244 -10.583333,5.29245 v -2.64623 z"
       id="path5443"
       inkscape:connector-curvature="0"
       sodipodi:nodetypes="cccccccc" />
    <path
       style="fill:#000000;fill-opacity:1;fill-rule:evenodd;stroke:none;stroke-width:0.18710233px;stroke-linecap:butt;stroke-linejoin:miter;stroke-opacity:1"
       d="m 47.625001,239.32118 v -5.29243 h 15.875 v -2.64621 l 10.583333,5.29243 -10.583333,5.29244 v -2.64623 z"
       id="path5445"
       inkscape:connector-curvature="0"
       sodipodi:nodetypes="cccccccc" />
    <path
       sodipodi:nodetypes="cccccccc"
       inkscape:connector-curvature="0"
       id="path5447"
       d="m 47.625001,249.90533 v -5.29244 h 15.875 v -2.64622 l 10.583333,5.29244 -10.583333,5.29245 v -2.64623 z"
       style="fill:#000000;fill-opacity:1;fill-rule:evenodd;stroke:none;stroke-width:0.18710247px;stroke-linecap:butt;stroke-linejoin:miter;stroke-opacity:1" />
    <path
       sodipodi:nodetypes="cccccccc"
       inkscape:connector-curvature="0"
       id="path5449"
       d="m 74.083334,239.32132 v -5.29244 h 15.875 v -2.64621 l 10.583336,5.29243 -10.583336,5.29244 v -2.64622 z"
       style="fill:#000000;fill-opacity:1;fill-rule:evenodd;stroke:none;stroke-width:0.18710233px;stroke-linecap:butt;stroke-linejoin:miter;stroke-opacity:1" />
    <path
       style="fill:#000000;fill-opacity:1;fill-rule:evenodd;stroke:none;stroke-width:0.18710247px;stroke-linecap:butt;stroke-linejoin:miter;stroke-opacity:1"
       d="m 74.083334,249.90547 v -5.29245 h 15.875 v -2.64621 l 10.583336,5.29244 -10.583336,5.29244 v -2.64622 z"
       id="path5451"
       inkscape:connector-curvature="0"
       sodipodi:nodetypes="cccccccc" />
    <path
       style="fill:#000000;fill-opacity:1;fill-rule:evenodd;stroke:none;stroke-width:0.18710233px;stroke-linecap:butt;stroke-linejoin:miter;stroke-opacity:1"
       d="m 100.54167,239.32132 v -5.29243 h 15.875 v -2.64621 L 127,236.67511 l -10.58333,5.29244 v -2.64623 z"
       id="path5453"
       inkscape:connector-curvature="0"
       sodipodi:nodetypes="cccccccc" />
    <path
       sodipodi:nodetypes="cccccccc"
       inkscape:connector-curvature="0"
       id="path5455"
       d="m 100.54167,249.90547 v -5.29244 h 15.875 v -2.64622 L 127,247.25925 116.41667,252.5517 v -2.64623 z"
       style="fill:#000000;fill-opacity:1;fill-rule:evenodd;stroke:none;stroke-width:0.18710247px;stroke-linecap:butt;stroke-linejoin:miter;stroke-opacity:1" />
    <path
       style="fill:#000000;fill-opacity:1;fill-rule:evenodd;stroke:none;stroke-width:0.18710233px;stroke-linecap:butt;stroke-linejoin:miter;stroke-opacity:1"
       d="m 127,239.32105 v -5.29243 h 15.875 v -2.64621 l 10.58334,5.29243 -10.58334,5.29244 v -2.64623 z"
       id="path5457"
       inkscape:connector-curvature="0"
       sodipodi:nodetypes="cccccccc" />
    <path
       sodipodi:nodetypes="cccccccc"
       inkscape:connector-curvature="0"
       id="path5459"
       d="m 127,249.9052 v -5.29245 h 15.875 v -2.64621 l 10.58334,5.29244 -10.58334,5.29245 v -2.64623 z"
       style="fill:#000000;fill-opacity:1;fill-rule:evenodd;stroke:none;stroke-width:0.18710247px;stroke-linecap:butt;stroke-linejoin:miter;stroke-opacity:1" />
    <path
       sodipodi:nodetypes="cccccccc"
       inkscape:connector-curvature="0"
       id="path5461"
       d="m 153.45834,239.32118 v -5.29243 h 15.875 v -2.64621 l 10.58333,5.29243 -10.58333,5.29244 v -2.64623 z"
       style="fill:#000000;fill-opacity:1;fill-rule:evenodd;stroke:none;stroke-width:0.18710233px;stroke-linecap:butt;stroke-linejoin:miter;stroke-opacity:1" />
    <path
       style="fill:#000000;fill-opacity:1;fill-rule:evenodd;stroke:none;stroke-width:0.18710247px;stroke-linecap:butt;stroke-linejoin:miter;stroke-opacity:1"
       d="m 153.45834,249.90533 v -5.29244 h 15.875 v -2.64622 l 10.58333,5.29244 -10.58333,5.29245 v -2.64623 z"
       id="path5463"
       inkscape:connector-curvature="0"
       sodipodi:nodetypes="cccccccc" />
  </g>
</svg>
